<?xml version="1.0" standalone="no"?>
<!DOCTYPE svg PUBLIC "-//W3C//DTD SVG 1.1//EN" "http://www.w3.org/Graphics/SVG/1.1/DTD/svg11.dtd" >
<svg xmlns="http://www.w3.org/2000/svg" xmlns:xlink="http://www.w3.org/1999/xlink" version="1.1">
<metadata>
Created by FontForge 20161003 at Wed Apr 17 17:36:35 2019
 By www-data
Copyright (c) 2011 by vernon adams. All rights reserved.
</metadata>
<defs>
<font id="Candal" horiz-adv-x="1362" >
  <font-face 
    font-family="Candal"
    font-weight="400"
    font-stretch="normal"
    units-per-em="2048"
    panose-1="2 0 5 3 0 0 0 2 0 4"
    ascent="1638"
    descent="-410"
    x-height="1079"
    cap-height="1414"
    bbox="-200 -997 3874 2226"
    underline-thickness="258"
    underline-position="-614"
    unicode-range="U+0002-FB06"
  />
<missing-glyph horiz-adv-x="532" 
 />
    <glyph glyph-name=".notdef" horiz-adv-x="532" 
 />
    <glyph glyph-name="uni0000" horiz-adv-x="0" 
 />
    <glyph glyph-name="uni0000" horiz-adv-x="0" 
 />
    <glyph glyph-name="nonmarkingreturn" horiz-adv-x="713" 
 />
    <glyph glyph-name="uni0002" horiz-adv-x="0" 
 />
    <glyph glyph-name="uni0009" unicode="&#x9;" horiz-adv-x="0" 
 />
    <glyph glyph-name="uni000A" unicode="&#xa;" horiz-adv-x="0" 
 />
    <glyph glyph-name="uni000D" unicode="&#xd;" horiz-adv-x="0" 
 />
    <glyph glyph-name="space" unicode=" " horiz-adv-x="713" 
 />
    <glyph glyph-name="exclam" unicode="!" horiz-adv-x="1033" 
d="M292 1414h448l-64 -902h-320zM516 -29q-65 0 -113.5 17t-80 42.5t-47 59.5t-15.5 69q0 36 16.5 70.5t48.5 62t80 44t111 16.5t111 -16.5t80.5 -43.5t49 -61.5t16.5 -70.5q0 -35 -15.5 -69.5t-47.5 -60t-80 -42.5t-114 -17z" />
    <glyph glyph-name="quotedbl" unicode="&#x22;" horiz-adv-x="1088" 
d="M176 1536h320l-60 -560h-200zM592 1536h320l-60 -560h-200z" />
    <glyph glyph-name="numbersign" unicode="#" horiz-adv-x="1182" 
d="M242 691q-42 60 -62.5 128.5t-20.5 140.5q0 66 18 129.5t53 120.5l-103 109l160 154l107 -113q45 23 98.5 35.5t114.5 12.5q54 0 101 -10t89 -28l98 103l160 -154l-85 -89q42 -60 63.5 -129t21.5 -141q0 -78 -25 -152.5t-73 -135.5l98 -102l-160 -154l-119 125
q-78 -29 -169 -29q-55 0 -102.5 10t-89.5 28l-128 -134l-160 154zM415 960q0 -47 10 -88t33 -71t59.5 -47.5t89.5 -17.5t90 17.5t59.5 47.5t32.5 71t10 88t-10 88t-32.5 71t-59.5 47.5t-90 17.5t-89.5 -17.5t-59.5 -47.5t-33 -71t-10 -88z" />
    <glyph glyph-name="dollar" unicode="$" horiz-adv-x="1372" 
d="M581 42q-102 9 -205.5 34t-197.5 67v332q48 -24 102 -45.5t111 -37t115 -24.5t113 -9q39 0 74.5 2.5t63 11t44 24.5t16.5 44q0 24 -16.5 46t-51 44.5t-88.5 47.5t-130 54q-43 20 -88 43t-88 51.5t-81 63t-67 77.5t-45.5 95t-16.5 116q0 66 24 126t74.5 108.5t128.5 82.5
t186 48v156h238v-150q48 -3 100 -10.5t104 -21.5t100.5 -34.5t89.5 -48.5l-32 -277q-41 18 -85.5 36t-97 32.5t-116 23.5t-141.5 9q-66 0 -96 -20.5t-30 -52.5q0 -20 22 -41t56.5 -41t78 -39t86.5 -35q39 -18 84.5 -41t91 -53.5t88 -69.5t75 -88t52 -110t19.5 -135
q0 -64 -25 -127t-77 -116t-132.5 -91.5t-191.5 -53.5v-145h-238v142z" />
    <glyph glyph-name="percent" unicode="%" horiz-adv-x="2818" 
d="M562 285q-94 0 -168.5 23t-131 63.5t-96 96t-64 120.5t-36 136.5t-11.5 144.5q0 71 11 141.5t36 134t64 118t95.5 94t131 62t169.5 22.5q142 0 239 -49t156.5 -129.5t85.5 -183.5t26 -210q0 -73 -11.5 -144.5t-36 -136.5t-64 -120.5t-96 -96t-131 -63.5t-168.5 -23z
M562 522q41 0 72 29.5t51.5 78t31 110.5t10.5 127q0 64 -10.5 126t-31 110.5t-51.5 78t-72 29.5t-72 -29.5t-52 -78t-31.5 -110.5t-10.5 -126q0 -65 10.5 -127t31 -110.5t51.5 -78t73 -29.5zM2258 -29q-95 1 -169 24t-130.5 63.5t-96 96t-64 120.5t-36 136.5t-11.5 144.5
q0 72 11 142t36 133.5t64 118t95.5 94t131 62t169.5 22.5q142 0 239 -49t156.5 -129.5t85.5 -183.5t26 -210q0 -73 -11.5 -144.5t-36 -136.5t-64 -120.5t-96 -96t-131 -63.5t-168.5 -24zM2258 209q41 0 72 29.5t51.5 78t31 110.5t10.5 127q0 64 -10.5 126t-31 110.5
t-51.5 78t-72 29.5t-72 -29.5t-52 -78t-31.5 -110.5t-10.5 -126q0 -65 10.5 -127t31 -110.5t51.5 -78t73 -29.5zM1884 1426l-524 -1426h-417l499 1426h442z" />
    <glyph glyph-name="ampersand" unicode="&#x26;" horiz-adv-x="1761" 
d="M1329 456q0 -36 5.5 -69t22.5 -58t49 -40t85 -15q34 0 75 7t93 24l24 -282q-63 -23 -144.5 -37.5t-172.5 -14.5q-38 0 -79.5 4.5t-83.5 16.5q-26 7 -46 21t-35.5 32t-27.5 38.5t-22 41.5q-47 -70 -147.5 -112t-267.5 -42q-143 0 -246 32t-169 88t-97.5 131t-31.5 162
q0 57 23.5 117.5t68.5 111t110.5 84.5t149.5 39q-77 13 -126.5 45t-78 75.5t-39.5 95t-11 104.5q0 79 30 138t80 102t115.5 71t136.5 44.5t142.5 23t134.5 6.5q45 0 104.5 -5t121 -13.5t120 -20.5t102.5 -26l-64 -288q-81 17 -191.5 24.5t-168.5 7.5q-66 0 -123 -3t-99 -18
t-66 -46t-24 -88q0 -29 4 -50t11.5 -37t18.5 -28t25 -23q28 -22 66.5 -35.5t86.5 -13.5h150v160h406v-482zM937 289q-2 5 -4.5 20.5t-4.5 47t-3.5 82t-1.5 125.5q-111 0 -181.5 -8t-110.5 -26t-55 -46t-15 -68q0 -27 9.5 -55t32 -51.5t59 -38.5t91.5 -15q36 0 81.5 7.5
t102.5 25.5z" />
    <glyph glyph-name="quotesingle" unicode="'" horiz-adv-x="673" 
d="M176 1535h320l-60 -598h-200z" />
    <glyph glyph-name="parenleft" unicode="(" horiz-adv-x="949" 
d="M160 711q0 101 19 196t56 180t92 155.5t126 121.5t158 79.5t189 28.5v-256q-45 0 -86 -43.5t-71.5 -115t-48.5 -162t-18 -184.5q0 -92 18 -180t48.5 -156t71.5 -109.5t86 -41.5v-256q-102 0 -189 27.5t-158 77t-126 118t-92 151t-56 176.5t-19 193z" />
    <glyph glyph-name="parenright" unicode=")" horiz-adv-x="950" 
d="M790 711q0 -99 -19 -193t-56 -176.5t-92 -151t-126 -118t-158 -77t-189 -27.5v256q45 0 86 41.5t71.5 109.5t48.5 156t18 180q0 94 -18 184.5t-48.5 162t-71.5 115t-86 43.5v256q102 0 189 -28.5t158 -79.5t126 -121.5t92 -155.5t56 -180.5t19 -195.5z" />
    <glyph glyph-name="asterisk" unicode="*" horiz-adv-x="1038" 
d="M391 473l-193 92l152 301h-311v220h311l-152 318l193 92l128 -297l128 297l193 -92l-152 -301h311v-220h-311l152 -318l-193 -92l-128 297z" />
    <glyph glyph-name="plus" unicode="+" horiz-adv-x="1162" 
d="M421 544h-224v288h224v256h320v-256h224v-288h-224v-256h-320v256z" />
    <glyph glyph-name="comma" unicode="," horiz-adv-x="832" 
d="M397 4q-66 -36 -115 -36q-39 0 -72.5 17t-58.5 45.5t-39 66.5t-14 79q0 42 16.5 85t50 77.5t84 56t118.5 21.5q137 0 206 -81.5t69 -236.5q0 -126 -37 -207.5t-96.5 -128t-133.5 -64.5t-149 -18h-96v192q93 0 146.5 8t80.5 24.5t33.5 41.5t6.5 58z" />
    <glyph glyph-name="hyphen" unicode="-" horiz-adv-x="1001" 
d="M900 832v-320h-800v320h800z" />
    <glyph glyph-name="period" unicode="." horiz-adv-x="924" 
d="M455 -29q-67 0 -111.5 19t-75.5 50.5t-47.5 72t-16.5 82.5q0 40 17 80t49 72t76.5 52t109.5 20q67 0 114 -20t80.5 -52t51.5 -71.5t18 -79.5q0 -43 -17.5 -83.5t-50 -72t-80 -50.5t-117.5 -19z" />
    <glyph glyph-name="slash" unicode="/" horiz-adv-x="748" 
d="M864 1441l-416 -1470h-448l384 1470h480z" />
    <glyph glyph-name="zero" unicode="0" horiz-adv-x="1524" 
d="M762 1441q126 0 225 -29t173.5 -79.5t126.5 -120.5t84.5 -151.5t47.5 -172t15 -182.5q0 -91 -15 -182t-48 -172.5t-85 -151.5t-127 -120.5t-173.5 -79.5t-223.5 -29t-223.5 29t-173.5 79.5t-127 120.5t-85 151.5t-48 172.5t-15 182q0 92 15 182.5t47.5 172t84.5 151.5
t126.5 120.5t173.5 79.5t225 29zM762 1121q-55 0 -96.5 -34.5t-69.5 -92.5t-42.5 -133t-14.5 -156q0 -79 14 -154t42 -132.5t69.5 -92.5t97.5 -35q55 0 97 35t70 92.5t42 132.5t14 154q0 81 -14.5 156t-42.5 133t-69.5 92.5t-96.5 34.5z" />
    <glyph glyph-name="one" unicode="1" horiz-adv-x="1109" 
d="M860 0h-427v1021l-224 -41v274q67 21 147 58t188 102h316v-1414z" />
    <glyph glyph-name="two" unicode="2" horiz-adv-x="1321" 
d="M604 349h541v-349h-946l-52 352q45 43 104 89.5t122 96t124 102t109 108t77.5 114.5t29.5 121q0 38 -17.5 64.5t-44.5 42.5t-60.5 23t-66.5 7q-41 0 -83 -6t-81 -15t-72.5 -20.5t-56.5 -22.5l-64 320q112 38 221 51.5t206 13.5q145 0 251.5 -34.5t176.5 -93t103.5 -136.5
t33.5 -164q0 -94 -44.5 -188.5t-120 -181.5t-176.5 -162.5t-214 -131.5z" />
    <glyph glyph-name="three" unicode="3" horiz-adv-x="1297" 
d="M285 864q121 0 196.5 8.5t117 26t56 44t14.5 61.5q0 41 -17 70t-46 47t-67 26.5t-80 8.5q-40 0 -83.5 -5t-87 -14.5t-85.5 -22.5t-78 -29v272q94 44 193.5 63.5t221.5 20.5q116 -1 204 -17.5t152 -45.5t106.5 -68t68 -85t36 -96t10.5 -101q0 -77 -26 -131t-65 -89.5
t-84.5 -55t-84.5 -28.5q45 -8 96 -27t94.5 -56t72.5 -94.5t29 -142.5q0 -57 -11.5 -111t-39 -102t-74 -88.5t-116 -69.5t-165 -45.5t-221.5 -16.5q-114 0 -210 17.5t-187 55.5v283q35 -16 77 -29t86 -22.5t88 -14.5t83 -5q40 0 78 9t67.5 29t47 52t17.5 79q0 40 -13 73.5
t-53.5 58t-116 38t-201.5 13.5v256z" />
    <glyph glyph-name="four" unicode="4" horiz-adv-x="1364" 
d="M1108 608h170v-320h-170v-288h-416v288h-608v320l352 806h672v-806zM623 1120l-195 -512h264v512h-69z" />
    <glyph glyph-name="five" unicode="5" horiz-adv-x="1425" 
d="M175 642l96 772h928l-32 -292h-576l-64 -290q34 31 75.5 50t85 29.5t85.5 13.5t78 3q89 0 173 -32t148.5 -90.5t103.5 -141t39 -183.5q0 -117 -38 -211.5t-112 -161t-183 -102.5t-250 -36q-146 0 -250.5 33t-174.5 90t-109.5 134.5t-54.5 167.5h416q8 -36 24.5 -62
t38 -43t47 -25.5t52.5 -8.5q35 0 69 13t61 38.5t43.5 62.5t16.5 84q0 38 -10 73.5t-32.5 62.5t-57.5 43.5t-84 16.5q-26 0 -54 -5t-55.5 -15t-51.5 -23.5t-41 -30.5z" />
    <glyph glyph-name="six" unicode="6" horiz-adv-x="1399" 
d="M1171 1091q-27 10 -62.5 21.5t-77 21t-86.5 16t-90 6.5q-62 0 -117.5 -13t-99 -51t-72 -108t-35.5 -184q37 17 77.5 29t82.5 20t82.5 11.5t77.5 3.5q90 0 171 -27t142.5 -79.5t98 -130.5t36.5 -179q0 -59 -9.5 -117t-33.5 -111t-63.5 -98.5t-99 -79t-141.5 -52.5
t-190 -19q-136 0 -236.5 27t-172.5 75.5t-118 116t-73 148.5t-37 173.5t-10 190.5q0 158 43.5 293.5t130 234.5t216.5 155t303 56q88 0 186 -15t209 -50zM531 578q0 -110 20 -174t52.5 -97t74.5 -42t86 -9t78 15t57.5 39.5t35.5 56t12 64.5q0 25 -5.5 56.5t-26 59.5
t-61 46.5t-109.5 18.5q-42 0 -94.5 -8t-119.5 -26z" />
    <glyph glyph-name="seven" unicode="7" horiz-adv-x="1216" 
d="M1133 1122l-432 -1125h-480l432 1125h-528v292h976z" />
    <glyph glyph-name="eight" unicode="8" horiz-adv-x="1574" 
d="M1363 1091q0 -88 -58 -164.5t-173 -124.5q61 -23 120 -54.5t105 -74t74 -98.5t28 -129q0 -58 -12.5 -116t-42.5 -110.5t-80 -98t-125.5 -79t-179 -52.5t-239.5 -19q-164 0 -288 34t-208 89t-126.5 124t-42.5 140q0 103 79.5 189t240.5 132q-48 29 -89 65.5t-71 82.5
t-47 102.5t-17 125.5q0 76 37.5 146t110.5 123.5t180.5 85t248.5 31.5q139 0 246.5 -30.5t180.5 -80t110.5 -112.5t37.5 -127zM730 559q-26 8 -55 17t-60 20q-39 -30 -61.5 -66t-22.5 -85q0 -54 22 -90.5t57.5 -58.5t80.5 -31t92 -9q43 0 84.5 7.5t73 27t51 52t19.5 82.5
q0 25 -21.5 41.5t-59.5 30.5t-89 28t-111 34zM788 1176q-75 0 -118 -28.5t-43 -70.5q0 -40 16 -72t48 -58t80 -48.5t112 -44.5q26 32 45 80.5t19 102.5q0 26 -12 51t-33 44.5t-50.5 31.5t-63.5 12z" />
    <glyph glyph-name="nine" unicode="9" horiz-adv-x="1399" 
d="M243 321q27 -10 62.5 -21.5t77 -21t86.5 -16t90 -6.5q62 0 117.5 13t99 51t72 108t35.5 184q-37 -17 -77.5 -29t-82.5 -20t-82.5 -11.5t-77.5 -3.5q-90 0 -171 27t-142.5 79.5t-98 130.5t-36.5 179q0 59 9.5 117t33.5 111t63.5 98.5t99 79t141.5 52.5t190 19
q136 0 236.5 -27t172.5 -75.5t118 -116t73 -148.5t37 -173.5t10 -190.5q0 -158 -43.5 -293.5t-130 -234.5t-216.5 -155t-303 -56q-88 0 -186 15t-209 50zM883 834q0 110 -20 174t-52.5 97t-74.5 42t-86 9t-78 -15t-57.5 -39.5t-35.5 -56t-12 -64.5q0 -25 5.5 -56.5t26 -59.5
t61 -46.5t109.5 -18.5q42 0 94.5 8t119.5 26z" />
    <glyph glyph-name="colon" unicode=":" horiz-adv-x="929" 
d="M465 0q-65 0 -113.5 21t-80 55t-47 76.5t-15.5 86.5q0 45 16.5 88t48.5 77t80 47t111 13t111 -13t80 -47q32 -33 48.5 -76.5t16.5 -88.5q0 -44 -16 -86.5t-47.5 -76.5t-80 -55t-112.5 -21zM465 690q-66 0 -114 13.5t-80 48.5q-31 33 -46.5 75.5t-15.5 87.5t16.5 88.5
t48.5 77t80 54.5t111 21t111 -21t80 -54.5t48.5 -77t16.5 -88.5t-16 -86.5t-48 -76.5q-32 -34 -80 -48t-112 -14z" />
    <glyph glyph-name="semicolon" unicode=";" horiz-adv-x="869" 
d="M373 683q-65 1 -113.5 21t-80 51.5t-47 73t-15.5 86.5t16.5 88.5t48.5 77t80 54.5t111 21t111 -21t80 -54.5t48.5 -77t16.5 -88.5t-16 -86.5t-47.5 -73t-80 -51.5t-112.5 -21zM405 0q-53 -32 -104 -29q-39 -3 -72.5 14t-58.5 45.5t-39 66.5t-14 79q0 43 16.5 84.5t50 74
t84 53t118.5 21.5q137 0 206 -78t69 -233q0 -126 -37 -207.5t-96.5 -128t-133.5 -64.5t-149 -18h-96v192q72 0 121 7.5t79 23t43 39.5t13 58z" />
    <glyph glyph-name="less" unicode="&#x3c;" horiz-adv-x="1098" 
d="M197 1024l704 256v-320l-512 -128l512 -128v-320l-704 256v384z" />
    <glyph glyph-name="equal" unicode="=" horiz-adv-x="1098" 
d="M901 519v-256h-704v256h704zM901 928v-256h-704v256h704z" />
    <glyph glyph-name="greater" unicode="&#x3e;" horiz-adv-x="1088" 
d="M891 640l-694 -256v320l512 128l-512 128v320l694 -256v-384z" />
    <glyph glyph-name="question" unicode="?" horiz-adv-x="1336" 
d="M327 770q109 9 186.5 23t129.5 32t83 39t47 44.5t20.5 49t4.5 52.5q0 36 -13.5 65.5t-37 50.5t-54.5 32.5t-65 11.5q-28 0 -54.5 -9t-47.5 -28t-34 -47t-14 -66h-331q0 90 33 167.5t97.5 133.5t160 88t220.5 32q135 0 232 -35t159 -93.5t91 -134.5t29 -158
q0 -73 -30 -143.5t-90 -128.5t-150 -98t-211 -51v-150h-331zM543 -29q-57 0 -99.5 15.5t-70.5 41t-42 58.5t-14 67t14.5 67t43 58.5t71 41t97.5 15.5t97.5 -15.5t71 -41t43 -58t14.5 -66.5q0 -35 -13.5 -68t-41.5 -58.5t-70.5 -41t-100.5 -15.5z" />
    <glyph glyph-name="at" unicode="@" horiz-adv-x="2463" 
d="M1780 273q55 0 78 82t23 248q0 126 -39.5 228.5t-119 174.5t-198 111t-276.5 39q-151 0 -284.5 -32.5t-233.5 -103t-158 -182t-58 -269.5q0 -167 57 -279.5t167.5 -181.5t273.5 -101t375 -36l31 -160q-43 -15 -112.5 -23t-168.5 -8q-198 0 -340 31q-169 36 -295.5 111
t-210.5 176t-126 221.5t-42 246.5q0 159 43 285.5t118.5 223.5t180 166.5t228 113.5t260.5 64.5t279 20.5q130 0 256 -18t239 -57t209 -100.5t166 -148.5t109.5 -201.5t39.5 -258.5q0 -77 -13 -151t-40 -140.5t-67.5 -122.5t-95.5 -97t-124.5 -64t-153.5 -23
q-65 0 -118 14.5t-96 43t-77 71t-62 99.5q-15 -29 -40.5 -53.5t-59.5 -43t-75.5 -29t-87.5 -10.5q-111 0 -197.5 35t-145.5 94t-89.5 137.5t-30.5 165.5q0 77 28.5 148.5t81 126t127.5 87.5t168 33q186 0 273 -154l31 106h205l82 -120v-412q0 -44 11.5 -68.5t28 -37
t35 -15.5t31.5 -3zM1356 700q-78 60 -138 60q-57 0 -95.5 -15.5t-62 -40.5t-33.5 -57t-10 -65q0 -39 15 -73t41 -58.5t61 -39t74 -14.5q79 0 148 31v272z" />
    <glyph glyph-name="A" unicode="A" horiz-adv-x="1395" 
d="M1385 0h-534l-66 301h-351l-63 -301h-361l360 1414h626zM614 1194l-137 -659h286l-118 659h-31z" />
    <glyph glyph-name="B" unicode="B" horiz-adv-x="1549" 
d="M170 1414h476q62 0 136.5 -4.5t149.5 -18t145 -38t124.5 -64t87 -97t32.5 -136.5q0 -47 -11 -93.5t-39.5 -85.5t-78 -68t-126.5 -41q84 -5 149.5 -38.5t110.5 -83.5t68.5 -110.5t23.5 -119.5q0 -79 -32 -153.5t-107.5 -133t-199.5 -94t-308 -35.5h-601v1414zM618 256h181
q86 0 128.5 44.5t42.5 115.5q0 42 -14.5 72t-53.5 49.5t-107.5 29t-176.5 9.5v-320zM758 832q47 0 86 13.5t67 35.5t43.5 51t15.5 60q0 48 -19 79t-61 49t-109 25t-163 7v-320h140z" />
    <glyph glyph-name="C" unicode="C" horiz-adv-x="1427" 
d="M92 704q0 171 61.5 307.5t166.5 232t244 146.5t295 51q109 0 222 -21t225 -76l-62 -320q-88 48 -174 72t-158 24q-87 0 -156 -28.5t-117 -82.5t-73.5 -131t-25.5 -174t25.5 -174t73.5 -131t117 -82.5t156 -28.5q72 0 158 24t174 72l62 -320q-112 -54 -225 -73.5
t-222 -19.5q-156 0 -295 50.5t-244 145t-166.5 230.5t-61.5 307z" />
    <glyph glyph-name="D" unicode="D" horiz-adv-x="1539" 
d="M170 0v1414h492q182 0 327 -42.5t245.5 -129t154 -217t53.5 -306.5q0 -134 -27.5 -239.5t-78 -185.5t-122 -135.5t-158.5 -91t-187.5 -51.5t-210.5 -16h-488zM618 320h30q78 0 142 14.5t109.5 57.5t70 121t24.5 206q0 116 -22 193.5t-65 124t-106 66t-144 19.5h-39v-802z
" />
    <glyph glyph-name="E" unicode="E" horiz-adv-x="1319" 
d="M171 1414h992v-262h-544v-299h480v-256h-480v-309h544v-288h-992v1414z" />
    <glyph glyph-name="F" unicode="F" horiz-adv-x="1200" 
d="M171 1414h968v-262h-520v-302h456v-288h-456v-562h-448v1414z" />
    <glyph glyph-name="G" unicode="G" horiz-adv-x="1548" 
d="M867 -29q-110 0 -210 24.5t-186 70.5t-155.5 112t-119 149t-76.5 181t-27 209q0 162 64.5 295.5t180 229t275 147.5t350.5 52q103 0 218 -15.5t230 -49.5l-64 -320q-103 37 -188 51.5t-164 14.5q-105 0 -189 -29.5t-143 -82.5t-90.5 -128.5t-31.5 -166.5q0 -101 21 -180
t65 -134t111.5 -84t160.5 -29h128v293l-224 -30v249h608v-676q-74 -44 -143 -73.5t-136 -47t-132.5 -25t-132.5 -7.5z" />
    <glyph glyph-name="H" unicode="H" horiz-adv-x="1654" 
d="M171 1414h448v-550h416v550h448v-1414h-448v576h-416v-576h-448v1414z" />
    <glyph glyph-name="I" unicode="I" horiz-adv-x="790" 
d="M171 1414h448v-1414h-448v1414z" />
    <glyph glyph-name="J" unicode="J" horiz-adv-x="994" 
d="M343 -29q-91 0 -175.5 13t-144.5 51v285q67 -21 124.5 -26.5t99.5 -5.5q45 0 70.5 18.5t38.5 47.5t16 65.5t3 72.5v922h448v-985q0 -120 -42 -206.5t-109.5 -142.5t-154 -82.5t-174.5 -26.5z" />
    <glyph glyph-name="K" unicode="K" horiz-adv-x="1416" 
d="M618 598v-598h-448v1414h448v-623l320 623h523l-405 -678l405 -736h-523l-288 666z" />
    <glyph glyph-name="L" unicode="L" horiz-adv-x="1150" 
d="M170 1414h448v-1126h480v-288h-928v1414z" />
    <glyph glyph-name="M" unicode="M" horiz-adv-x="1887" 
d="M170 1414h416l352 -550l352 550h426v-1414h-458v768l-330 -559h-97l-341 559v-768h-320v1414z" />
    <glyph glyph-name="N" unicode="N" horiz-adv-x="1654" 
d="M170 1414h433l538 -710v710h342v-1414h-444l-530 752v-752h-339v1414z" />
    <glyph glyph-name="O" unicode="O" horiz-adv-x="1593" 
d="M795 -29q-131 0 -234 28.5t-181.5 79t-133 120t-89 151t-50 171.5t-15.5 183q0 92 19 182.5t57 172.5t96 152t136 121t176.5 80t218.5 29t218.5 -29t177 -80t136.5 -121t96.5 -152t57.5 -172.5t19 -182.5q0 -93 -16 -183t-50.5 -171.5t-89.5 -151t-133 -120t-181.5 -79
t-234.5 -28.5zM540 704q0 -120 17.5 -205t50 -139t80 -79t107.5 -25t107.5 25t81 79t51 139t17.5 205t-17.5 205.5t-51 140t-81 80.5t-107.5 26t-107.5 -26t-80 -80.5t-50 -140t-17.5 -205.5z" />
    <glyph glyph-name="P" unicode="P" horiz-adv-x="1501" 
d="M170 1414h546q142 0 249.5 -17.5t186.5 -49.5t131.5 -77t84 -98.5t44.5 -114.5t13 -126q0 -55 -12.5 -110t-42 -105t-78.5 -93t-120.5 -75t-169 -50t-224.5 -18q-18 0 -45 0.5t-53 2.5l-62 4v-487h-448v1414zM618 704h103q72 0 121 17.5t79 47.5t43 71t13 88
q0 75 -19 124t-53.5 78.5t-81.5 41.5t-102 12h-103v-480z" />
    <glyph glyph-name="Q" unicode="Q" horiz-adv-x="1594" 
d="M1203 -484q-88 34 -165 72.5t-143 91t-120 124.5t-96 174q-109 12 -195 47t-151 87t-111 119t-75 143.5t-42 160t-13 169.5q0 92 19 182.5t57 172.5t96 152t136 121t176.5 80t218.5 29t218.5 -29t177 -80t136.5 -121t96.5 -152t57.5 -172.5t19 -182.5
q0 -117 -25.5 -229.5t-82 -207t-148 -165.5t-223.5 -104q15 -34 50 -66.5t82.5 -60t103 -48.5t112.5 -31zM540 704q0 -120 17.5 -205t50 -139t80 -79t107.5 -25t107.5 25t81 79t51 139t17.5 205t-17.5 205.5t-51 140t-81 80.5t-107.5 26t-107.5 -26t-80 -80.5t-50 -140
t-17.5 -205.5z" />
    <glyph glyph-name="R" unicode="R" horiz-adv-x="1456" 
d="M170 1414h636q151 0 266 -39.5t191.5 -104t115.5 -146t39 -164.5q0 -65 -13 -128.5t-46 -120t-90.5 -102t-146.5 -73.5q13 -42 44 -104t72 -134t88 -149t92 -149h-512q-43 97 -88 217.5t-72 262.5h-128v-480h-448v1414zM694 704q76 0 128.5 20t85.5 52t47.5 72t14.5 80
q0 79 -22 129t-60 78.5t-88 38.5t-107 10h-75v-480h76z" />
    <glyph glyph-name="S" unicode="S" horiz-adv-x="1394" 
d="M1179 1047q-41 18 -95.5 36.5t-114 33.5t-120.5 24.5t-115 9.5q-94 0 -147 -24t-53 -81q0 -27 18.5 -47.5t52.5 -38t81.5 -34t105.5 -34.5l73 -23q92 -28 165 -67.5t123.5 -93t77.5 -122.5t27 -157q0 -103 -32.5 -187.5t-101.5 -144.5t-176.5 -93t-258.5 -33
q-134 0 -266.5 22t-267.5 77v330q129 -66 250.5 -96.5t239.5 -30.5q97 0 141.5 31t44.5 86q0 33 -16.5 56.5t-53 43.5t-95.5 40.5t-143 46.5q-84 25 -155.5 63t-123.5 91.5t-81.5 124.5t-29.5 162q0 94 33 172t101 133.5t172.5 86.5t248.5 31q57 0 121 -5t130.5 -15
t131.5 -26t123 -38z" />
    <glyph glyph-name="T" unicode="T" horiz-adv-x="1116" 
d="M330 0v1088h-320v326h1095v-326h-327v-1088h-448z" />
    <glyph glyph-name="U" unicode="U" horiz-adv-x="1579" 
d="M810 -29q-149 0 -267.5 43.5t-201.5 131t-127 219.5t-44 309v740h448v-742q0 -99 10 -176t34 -130.5t64 -81.5t100 -28q66 0 106.5 28t63 81.5t30.5 130.5t8 176v742h374v-740q0 -178 -35 -310t-108.5 -219.5t-186 -130.5t-268.5 -43z" />
    <glyph glyph-name="V" unicode="V" horiz-adv-x="1364" 
d="M10 1414h544l206 -1055l242 1055h352l-383 -1414h-609z" />
    <glyph glyph-name="W" unicode="W" horiz-adv-x="2062" 
d="M1063 800l-145 -800h-591l-256 1414h506l141 -1134l175 1134h426l172 -1136l148 1136h352l-224 -1414h-544z" />
    <glyph glyph-name="X" unicode="X" horiz-adv-x="1451" 
d="M1061 704l352 -704h-544l-180 533l-242 -533h-410l352 704l-352 710h544l216 -501l232 501h384z" />
    <glyph glyph-name="Y" unicode="Y" horiz-adv-x="1235" 
d="M414 0v486l-437 928h514l172 -509l158 509h436l-395 -915v-499h-448z" />
    <glyph glyph-name="Z" unicode="Z" horiz-adv-x="1064" 
d="M980 1414v-326l-416 -768h403v-320h-883v317l483 771h-469v326h882z" />
    <glyph glyph-name="bracketleft" unicode="[" horiz-adv-x="1008" 
d="M180 1441h701v-289h-269v-863h269v-289h-701v1441z" />
    <glyph glyph-name="backslash" unicode="\" horiz-adv-x="853" 
d="M451 1441l402 -1441h-451l-402 1441h451z" />
    <glyph glyph-name="bracketright" unicode="]" horiz-adv-x="1008" 
d="M848 0h-701v289h269v863h-269v289h701v-1441z" />
    <glyph glyph-name="asciicircum" unicode="^" horiz-adv-x="1376" 
d="M188 512l300 688h400l300 -688h-344l-156 488l-151 -488h-349z" />
    <glyph glyph-name="underscore" unicode="_" horiz-adv-x="1000" 
d="M1000 0v-220h-1000v220h1000z" />
    <glyph glyph-name="grave" unicode="`" horiz-adv-x="1204" 
d="M586 1219l-256 634h448l96 -634h-288z" />
    <glyph glyph-name="a" unicode="a" 
d="M416 -29q-64 0 -122.5 18t-103.5 55t-71.5 93.5t-26.5 133.5q0 74 24 128.5t64.5 93.5t95 64.5t115.5 40t125.5 20t125.5 5.5q42 0 81 -2t73 -5q-2 63 -24 104.5t-58 66t-84 34.5t-101 10q-49 0 -100.5 -6.5t-100.5 -16t-93.5 -20.5t-78.5 -20v280q49 11 105.5 21.5
t117.5 18.5t124.5 13t125.5 5q77 0 151.5 -9.5t141 -31.5t123 -59t97 -91.5t63.5 -128.5t23 -171v-615h-412v179q-24 -49 -67 -87.5t-97 -65.5t-115 -41t-121 -14zM585 206q28 0 64.5 15.5t69 47.5t55 81t22.5 117h-33q-48 0 -98.5 -10t-92.5 -30t-69 -49t-27 -67
q0 -30 10 -50t25.5 -32.5t35 -17.5t38.5 -5z" />
    <glyph glyph-name="b" unicode="b" horiz-adv-x="1519" 
d="M948 -29q-54 0 -107 14t-100.5 40.5t-86.5 65t-66 87.5v-178h-432v1536h432v-605q23 38 63 70t90 55.5t107 36.5t114 13q90 0 175 -30t151 -97.5t106.5 -176t40.5 -264.5q0 -148 -39.5 -255t-106 -176.5t-155 -102.5t-186.5 -33zM1003 537q0 82 -18 137.5t-48 89.5
t-67.5 48.5t-76.5 14.5t-75.5 -14.5t-65.5 -48.5t-46.5 -89.5t-17.5 -136.5q0 -82 17.5 -137.5t46.5 -89t66 -48t76 -14.5t76.5 14.5t67 48t47.5 88.5t18 137z" />
    <glyph glyph-name="c" unicode="c" horiz-adv-x="1213" 
d="M512 538q0 -73 17.5 -127t49.5 -89.5t77 -53t101 -17.5q72 0 136 19.5t131 53.5l64 -260q-44 -23 -95 -40.5t-105 -29t-109.5 -17.5t-108.5 -6q-121 0 -228 34t-187.5 104t-127.5 177t-47 253t47 253t127.5 177t187.5 104t228 34q53 0 108.5 -6t109.5 -17.5t105 -29
t95 -40.5l-64 -260q-67 34 -131 53.5t-136 19.5q-56 0 -101 -17.5t-77 -53.5t-49.5 -90.5t-17.5 -127.5z" />
    <glyph glyph-name="d" unicode="d" horiz-adv-x="1519" 
d="M571 -29q-98 0 -186.5 33t-155 102.5t-106 176.5t-39.5 255q0 156 40.5 264.5t106.5 176t151 97.5t175 30q57 0 114 -13t107 -36.5t90 -55.5t63 -70v605h432v-1536h-432v178q-27 -49 -66 -87.5t-86.5 -65t-100.5 -40.5t-107 -14zM516 537q0 -82 18 -137t47.5 -88.5
t67 -48t76.5 -14.5t76 14.5t66 48t46.5 89t17.5 137.5q0 81 -17.5 136.5t-46.5 89.5t-65.5 48.5t-75.5 14.5t-76.5 -14.5t-67.5 -48.5t-48 -89.5t-18 -137.5z" />
    <glyph glyph-name="e" unicode="e" horiz-adv-x="1297" 
d="M1156 43q-94 -31 -203 -51.5t-227 -20.5q-129 0 -246 34t-206 106t-141.5 182.5t-52.5 263.5q0 87 27 161.5t73.5 135.5t109 108t134 79t147.5 48.5t149 16.5q115 0 203 -25.5t146.5 -68.5t88.5 -100t30 -121q0 -78 -26.5 -133t-71 -92.5t-103 -59t-123.5 -33
t-132.5 -14.5t-128.5 -3q-21 0 -40.5 0.5t-38.5 0.5q8 -57 31.5 -96t59 -63.5t82 -35t99.5 -10.5q40 0 85.5 6t92 16.5t93 24t89.5 28.5v-284zM515 611q24 1 61.5 3t79.5 7t84 14t76 23t55 35t21 51q0 51 -40.5 81.5t-112.5 30.5q-33 0 -71 -9.5t-71 -36.5t-56 -75t-26 -124
z" />
    <glyph glyph-name="f" unicode="f" horiz-adv-x="959" 
d="M641 0h-432v827h-172v252h170q0 123 33 214.5t94 152.5t147.5 91.5t194.5 30.5q88 0 163 -19t138 -45l-32 -257q-58 14 -96.5 23.5t-74.5 9.5q-46 0 -72.5 -17t-40 -45t-17 -64.5t-3.5 -74.5h302q-14 -66 -22 -127t-8 -125h-272v-827z" />
    <glyph glyph-name="g" unicode="g" horiz-adv-x="1491" 
d="M902 186q-42 -88 -130 -137t-203 -49q-123 0 -214.5 46t-151.5 121t-89.5 172t-29.5 199q0 105 30.5 206.5t90 182t147.5 130t203 49.5q74 0 132.5 -17t103.5 -48.5t78 -75t57 -97.5q0 9 -2 37t-5.5 61t-7.5 64.5t-8 48.5h432v-847q0 -181 -44.5 -314.5t-127.5 -222
t-203.5 -132t-271.5 -43.5q-61 0 -108.5 3t-90.5 9t-86.5 15t-95.5 21l30 252q28 -8 63.5 -15t74 -12.5t78.5 -9t76 -3.5q86 0 139.5 33t83 89t40 129.5t10.5 154.5zM487 537q0 -82 18 -137t47.5 -88.5t67 -48t76.5 -14.5t76 14.5t66 48t46.5 89t17.5 137.5
q0 81 -17.5 136.5t-46.5 89.5t-65.5 48.5t-75.5 14.5t-76.5 -14.5t-67.5 -48.5t-48 -89.5t-18 -137.5z" />
    <glyph glyph-name="h" unicode="h" horiz-adv-x="1485" 
d="M156 1536h432v-605q28 39 72 71t97 55.5t112 36t118 12.5q73 0 137.5 -23.5t112.5 -75.5t75.5 -133.5t27.5 -196.5v-677h-432v570q0 75 -12.5 125t-32.5 80.5t-45.5 43t-51.5 12.5q-30 0 -59.5 -11.5t-54 -32.5t-41.5 -50t-23 -64v-673h-432v1536z" />
    <glyph glyph-name="i" unicode="i" horiz-adv-x="761" 
d="M162 1079h432v-1079h-432v1079zM379 1301q-57 0 -107 12t-86.5 33t-58 51t-21.5 66q0 40 21 70.5t58 50.5t87 30t108 10t108.5 -10t87.5 -30t58 -50.5t21 -70.5q0 -36 -21.5 -66t-58.5 -51t-87.5 -33t-108.5 -12z" />
    <glyph glyph-name="j" unicode="j" horiz-adv-x="777" 
d="M205 -416q-79 0 -152 4.5t-136 27.5v287q28 -9 47.5 -15t35.5 -9.5t30 -5t31 -1.5q42 0 67.5 16.5t39 43.5t17.5 62t4 73v1012h432v-1035q0 -132 -33.5 -220.5t-90.5 -141.5t-132.5 -75.5t-159.5 -22.5zM395 1318q-57 0 -107 12t-86.5 33t-58 51t-21.5 66q0 40 21 70.5
t58 50.5t87 30t108 10t108.5 -10t87.5 -30t58 -50.5t21 -70.5q0 -36 -21.5 -66t-58.5 -51t-87.5 -33t-108.5 -12z" />
    <glyph glyph-name="k" unicode="k" horiz-adv-x="1405" 
d="M984 1079h443l-411 -508l431 -571h-500l-325 509l-34 -35v-474h-432v1536h432v-938z" />
    <glyph glyph-name="l" unicode="l" horiz-adv-x="744" 
d="M156 1536h432v-1536h-432v1536z" />
    <glyph glyph-name="m" unicode="m" horiz-adv-x="2285" 
d="M154 1079h437q-9 -29 -15 -53.5t-9 -48.5t-4.5 -48.5t-1.5 -52.5q27 45 70 87t96.5 73.5t114 50.5t122.5 19q49 0 96.5 -14t90.5 -42t79 -69t62 -96q31 48 80.5 88.5t109.5 70t127.5 46t134.5 16.5q108 0 183.5 -31t122 -88t67.5 -137t21 -177v-673h-432v610
q0 29 -6.5 66.5t-24.5 71t-49.5 56.5t-82.5 23q-35 0 -66 -17t-55 -45t-38 -64t-14 -74v-627h-432v610q0 41 -7.5 80t-25.5 69.5t-49 49t-78 18.5q-33 0 -67.5 -12.5t-62 -34t-45 -51.5t-17.5 -65v-664h-432v1079z" />
    <glyph glyph-name="n" unicode="n" horiz-adv-x="1572" 
d="M156 1079h432q-6 -34 -12 -87.5t-6 -110.5q34 51 85.5 92.5t113.5 71t131.5 45.5t140.5 16q78 0 148 -23.5t123 -74.5t84 -132.5t31 -197.5v-678h-432v615q0 62 -13 103t-36 65t-54.5 34t-68.5 10q-40 0 -79 -13.5t-71 -36.5t-55 -54t-30 -66v-657h-432v1079z" />
    <glyph glyph-name="o" unicode="o" horiz-adv-x="1408" 
d="M704 -29q-118 0 -210 22t-161 61t-117.5 92.5t-78.5 116.5t-43.5 133t-13.5 142q0 71 13.5 140.5t43.5 133t78 117t117.5 93t161.5 62t210 22.5t210 -22.5t161.5 -62t117.5 -93t78 -117t43.5 -133t13.5 -140.5q0 -72 -13.5 -142t-43.5 -133t-78.5 -116.5t-117.5 -92.5
t-161 -61t-210 -22zM512 538q0 -54 10 -105.5t32.5 -92t59 -65t90.5 -24.5t90.5 24.5t59 65t32.5 92t10 105.5t-10 105.5t-32.5 92t-59 65.5t-90.5 25t-90.5 -25t-59 -65.5t-32.5 -92t-10 -105.5z" />
    <glyph glyph-name="p" unicode="p" horiz-adv-x="1488" 
d="M156 1079h440q-17 -54 -23.5 -100.5t-6.5 -97.5q28 49 73 90t99 71t113.5 47t116.5 17q84 0 163 -32t139.5 -99t97 -171.5t36.5 -248.5q0 -162 -40.5 -273.5t-105.5 -180.5t-146.5 -99.5t-163.5 -30.5q-59 0 -114.5 12.5t-103 35t-84.5 53t-58 66.5v-570h-432v1511z
M588 537q0 -82 18 -137t47.5 -88.5t67 -48t76.5 -14.5t76 14.5t66 48t46.5 89t17.5 137.5q0 81 -17.5 136.5t-46.5 89.5t-65.5 48.5t-75.5 14.5t-76.5 -14.5t-67.5 -48.5t-48 -89.5t-18 -137.5z" />
    <glyph glyph-name="q" unicode="q" horiz-adv-x="1503" 
d="M915 -432v570q-21 -38 -58 -69t-85 -53t-104 -33.5t-114 -11.5q-86 0 -170 29.5t-150.5 97.5t-108 180t-41.5 277q0 144 37.5 248.5t100.5 171.5t144.5 99t170.5 32q57 0 113 -12.5t106 -35t91 -55t68 -72.5v148h432v-1511h-432zM500 537q0 -82 18 -137t47.5 -88.5
t67 -48t76.5 -14.5t76 14.5t66 48t46.5 89t17.5 137.5q0 81 -17.5 136.5t-46.5 89.5t-65.5 48.5t-75.5 14.5t-76.5 -14.5t-67.5 -48.5t-48 -89.5t-18 -137.5z" />
    <glyph glyph-name="r" unicode="r" horiz-adv-x="1050" 
d="M156 1079h411q-2 -26 -3 -57.5t-1 -66v-69.5v-67q20 49 52 100.5t75.5 92.5t99 67.5t124.5 26.5q13 0 28.5 -1.5t30.5 -4.5t28.5 -7.5t22.5 -10.5l-35 -412q-45 17 -95 25.5t-87 8.5q-51 0 -89.5 -12.5t-65.5 -32.5t-42.5 -44t-21.5 -47v-568h-432v1079z" />
    <glyph glyph-name="s" unicode="s" horiz-adv-x="1156" 
d="M996 756q-100 46 -195.5 71.5t-167.5 25.5q-76 0 -108 -14.5t-32 -50.5q0 -32 47 -50.5t138 -42.5t163 -53t122.5 -72t77 -103t26.5 -147q0 -78 -30 -142.5t-91 -110.5t-154 -71t-219 -25q-112 0 -225 16.5t-228 58.5v309q103 -45 207 -72t198 -27q169 0 169 70
q0 12 -8 22t-29.5 19.5t-60 20t-98.5 25.5q-83 20 -156.5 51.5t-128 77t-86 106.5t-31.5 139q0 70 29.5 129t89 101t148 65.5t205.5 23.5q68 0 130.5 -6t118.5 -14.5t104.5 -18t89.5 -17.5z" />
    <glyph glyph-name="t" unicode="t" horiz-adv-x="1053" 
d="M693 -29q-93 0 -178 22.5t-149.5 76t-103 142t-38.5 220.5v399h-199v65l471 512h160v-329h320q-12 -60 -21.5 -121t-10.5 -127h-288v-395q0 -36 5.5 -69.5t22.5 -59t49 -41t85 -15.5q34 0 75 6.5t93 24.5l24 -259q-63 -23 -144.5 -37.5t-172.5 -14.5z" />
    <glyph glyph-name="u" unicode="u" horiz-adv-x="1517" 
d="M1361 0h-431l9 69q4 32 7 72t5 83q-30 -59 -75.5 -105.5t-100.5 -79.5t-117 -50.5t-125 -17.5q-78 0 -148 25.5t-123.5 81t-85 143t-31.5 211.5v647h432v-607q0 -62 11.5 -104t31.5 -68t46 -37.5t55 -11.5q34 0 68.5 14t63 38t49 56.5t27.5 69.5v650h432v-1079z" />
    <glyph glyph-name="v" unicode="v" horiz-adv-x="1305" 
d="M29 1079h485l187 -808l209 808h367l-345 -1079h-547z" />
    <glyph glyph-name="w" unicode="w" horiz-adv-x="2019" 
d="M66 1079h460l161 -818l161 818h470l180 -818l114 818h342l-224 -1079h-556l-139 698l-126 -698h-584z" />
    <glyph glyph-name="x" unicode="x" horiz-adv-x="1361" 
d="M972 562l360 -562h-490l-209 359l-188 -359h-363l307 556l-360 523h490l199 -345l201 345h363z" />
    <glyph glyph-name="y" unicode="y" horiz-adv-x="1453" 
d="M848 1079h432v-928q0 -113 -23 -203t-64 -160.5t-97.5 -121t-124.5 -83t-145 -48t-158 -15.5q-109 0 -219 11t-201 37l30 252q109 -26 182.5 -33t108.5 -7q100 0 159.5 29t90.5 89q15 30 24.5 59t15.5 60t8 64.5t2 74.5q-21 -38 -57 -67t-80 -49t-92.5 -30t-94.5 -10
q-80 0 -152 24.5t-127.5 77t-88 134.5t-32.5 196v647h384v-635q0 -50 14.5 -86.5t38 -60t53.5 -35t61 -11.5q29 0 56.5 9.5t48.5 28t34 45.5t13 62v683z" />
    <glyph glyph-name="z" unicode="z" horiz-adv-x="1067" 
d="M590 271h387q-12 -63 -18.5 -129.5t-6.5 -141.5h-868v271l380 561h-380l25 247h843v-253z" />
    <glyph glyph-name="braceleft" unicode="{" horiz-adv-x="1163" 
d="M381 1055q0 117 36 222.5t106 185t172.5 126.5t235.5 47v-227q-38 0 -58 -23t-29.5 -60t-11 -84.5t-1.5 -96.5q0 -56 -18 -116.5t-55 -113.5t-93.5 -94t-133.5 -59q77 -19 133.5 -63t93.5 -101.5t55 -122.5t18 -125q0 -44 1.5 -86t11 -75t30 -53t57.5 -20v-227
q-133 0 -235.5 47t-172.5 126.5t-106 185t-36 222.5q0 37 -12 63t-32.5 41.5t-47.5 22.5t-58 7v317q31 0 58 7t47.5 22.5t32.5 41t12 63.5z" />
    <glyph glyph-name="bar" unicode="|" horiz-adv-x="872" 
d="M236 1600h400v-1700h-400v1700z" />
    <glyph glyph-name="braceright" unicode="}" horiz-adv-x="1163" 
d="M781 1055q0 -38 12 -63.5t32.5 -41t47.5 -22.5t58 -7v-317q-31 0 -58 -7t-47.5 -22.5t-32.5 -41.5t-12 -63q0 -117 -36 -222.5t-106 -185t-172.5 -126.5t-235.5 -47v227q37 0 57.5 20t30 53t11 75t1.5 86q0 60 18 125t55 122.5t93.5 101.5t133.5 63q-77 18 -133.5 59
t-93.5 94t-55 113.5t-18 116.5q0 49 -1.5 96.5t-11 84.5t-30 60t-57.5 23v227q133 0 235.5 -47t172.5 -126.5t106 -185t36 -222.5z" />
    <glyph glyph-name="asciitilde" unicode="~" horiz-adv-x="1673" 
d="M1027 836q-39 0 -76.5 14t-75 35.5t-74 46t-72.5 46t-71.5 35.5t-70.5 14q-57 0 -100 -32.5t-60 -101.5l-230 83q36 99 85.5 171t108 119.5t124.5 70.5t136 23q38 0 76 -14t75.5 -35.5t74 -46t72.5 -46t71 -35.5t70 -14q57 0 97.5 24.5t57.5 78.5l231 -83
q-35 -91 -83.5 -157.5t-107 -110t-124 -64.5t-134.5 -21z" />
    <glyph glyph-name="uni00A0" unicode="&#xa0;" horiz-adv-x="510" 
 />
    <glyph glyph-name="exclamdown" unicode="&#xa1;" horiz-adv-x="1033" 
d="M292 0h448l-64 900h-320zM516 1441q-65 0 -113.5 -17t-80 -42.5t-47 -59.5t-15.5 -69q0 -36 16.5 -70.5t48.5 -62t80 -44t111 -16.5t111 16.5t80.5 43.5t49 61.5t16.5 70.5q0 35 -15.5 69.5t-47.5 60t-80 42.5t-114 17z" />
    <glyph glyph-name="cent" unicode="&#xa2;" horiz-adv-x="1213" 
d="M840 0h-217v136q-95 5 -181 33q-107 34 -187.5 104t-127.5 177t-47 253t47 253t127.5 177t187.5 104q86 27 181 33v171h217v-185q24 -4 48 -9q54 -11 105 -28.5t95 -40.5l-64 -260q-67 34 -131 53q-26 8 -53 13v-562q27 4 53 12q64 20 131 54l64 -260q-44 -23 -95 -40.5
t-105 -29.5q-24 -5 -48 -9v-149zM512 702q0 -73 17.5 -127t49.5 -90q19 -21 44 -37v509q-25 -15 -44 -37q-32 -36 -49.5 -90.5t-17.5 -127.5z" />
    <glyph glyph-name="sterling" unicode="&#xa3;" horiz-adv-x="1399" 
d="M294 832q20 180 61 298t108 187t162.5 96.5t225.5 27.5q127 0 207.5 -28t127 -81.5t64 -131t17.5 -176.5h-256q0 33 -4 62t-17.5 50.5t-38.5 34.5t-68 13q-42 0 -71 -19t-47.5 -61t-28 -109t-13.5 -163h256v-256h-256v-160q0 -32 -1.5 -67.5t-3.5 -65.5q20 -3 44 -7.5
t47.5 -9t43 -7.5t30.5 -3q36 0 55.5 11.5t28.5 29.5t10.5 41t1.5 46h320q0 -120 -33.5 -199.5t-88 -127t-123.5 -67t-139 -19.5q-96 0 -162 10.5t-110.5 28t-70.5 40t-41 46.5q-69 -57 -174 -76.5t-242 -19.5v256q31 0 59.5 6t51 20.5t36 39t13.5 62.5v192h-160v256h179z
" />
    <glyph glyph-name="currency" unicode="&#xa4;" horiz-adv-x="1290" 
d="M640 293q-104 0 -183 35t-132 92t-80 130t-27 150t26.5 150t79.5 130t132 91.5t184 34.5q104 0 183 -34.5t132 -91.5t79.5 -130t26.5 -150t-27 -150t-80 -130t-132 -92t-182 -35zM639 469q53 0 94 20t68.5 52t41.5 73.5t14 85.5q0 43 -14 84.5t-41.5 74t-68 52
t-94.5 19.5t-95.5 -19.5t-69 -52t-41.5 -74t-14 -84.5q0 -44 14 -85.5t42 -73.5t69 -52t95 -20z" />
    <glyph glyph-name="yen" unicode="&#xa5;" horiz-adv-x="1292" 
d="M799 1414h470l-303 -550h280v-256h-400v-160h400v-256h-400v-192h-400v192h-400v256h400v160h-400v256h280l-303 550h470l153 -387z" />
    <glyph glyph-name="brokenbar" unicode="&#xa6;" horiz-adv-x="698" 
d="M162 1600h384v-736h-384v736zM162 640h384v-736h-384v736z" />
    <glyph glyph-name="section" unicode="&#xa7;" horiz-adv-x="941" 
d="M14 1136q0 65 32.5 127t96.5 110t158.5 77t217.5 29q66 0 138.5 -12.5t154.5 -40.5v-249q-17 8 -45 15.5t-63 13.5t-75 9.5t-80 3.5q-34 0 -66 -5t-57 -16.5t-40 -31.5t-15 -50q0 -20 23 -35t60.5 -29.5t85 -30t97.5 -35.5t97.5 -46t85 -61.5t60.5 -82.5t23 -109
q0 -52 -23 -104t-71 -97q27 -22 49.5 -49t39 -61t26 -75t9.5 -90q0 -68 -29.5 -131t-91 -112t-155.5 -78t-224 -29q-72 0 -158 10t-180 30v259q103 -24 180.5 -34.5t137.5 -10.5q78 0 115 26t37 68q0 20 -23.5 35.5t-61.5 30t-86.5 30t-99.5 35.5t-99.5 46.5t-86.5 62
t-61.5 83t-23.5 109.5q0 57 24.5 112.5t75.5 103.5q-48 45 -78.5 111.5t-30.5 167.5zM608 641q0 18 -22 34.5t-59.5 33.5t-86.5 34.5t-103 37.5q-8 -15 -15 -38t-7 -50q0 -17 22.5 -32t60 -30.5t87 -31.5t103.5 -34q11 17 15.5 37.5t4.5 38.5z" />
    <glyph glyph-name="dieresis" unicode="&#xa8;" horiz-adv-x="1356" 
d="M386 1197q-51 0 -90 17.5t-65.5 46t-39.5 64.5t-13 74t13 74t39 64.5t65 45.5t91 17t91 -17t65 -45.5t39.5 -64.5t13.5 -74t-13.5 -74t-39.5 -64.5t-65 -46t-91 -17.5zM969 1197q-51 0 -90 17.5t-65.5 46t-39.5 64.5t-13 74t13 74t39 64.5t65 45.5t91 17t91 -17t65 -45.5
t39.5 -64.5t13.5 -74t-13.5 -74t-39.5 -64.5t-65 -46t-91 -17.5z" />
    <glyph glyph-name="copyright" unicode="&#xa9;" horiz-adv-x="2312" 
d="M1156 88q104 0 191.5 24t157 66.5t122 100.5t87.5 126t52.5 143.5t17.5 151.5t-17.5 151.5t-52.5 143.5t-87.5 126t-122 100.5t-157 66.5t-191.5 24q-105 0 -192 -24t-157 -66.5t-122 -100.5t-87 -126t-52.5 -143.5t-17.5 -151.5q0 -77 17.5 -152t52.5 -143t87 -126
t122 -100.5t157 -66.5t192 -24zM1156 1541q150 0 274.5 -33t224.5 -91.5t175 -138.5t125 -173.5t75 -196.5t25 -208t-25 -208.5t-75 -197t-125 -173t-175 -138t-224.5 -91.5t-274.5 -33t-275 33t-225 91.5t-174.5 138t-124.5 173t-75 197t-25 208.5t25 208t75 196.5
t124.5 173.5t174.5 138.5t225 91.5t275 33zM1175 238q-92 0 -172.5 30t-140.5 89t-95 148t-35 208q0 88 29 169.5t84.5 143.5t136 99t183.5 37q76 0 152 -15.5t152 -50.5l-16 -232q-42 26 -97 38.5t-106 12.5q-44 0 -81 -14t-63.5 -41t-41.5 -66.5t-15 -91.5
q0 -106 51.5 -161t142.5 -55q111 0 214 52l26 -228q-69 -35 -146 -53.5t-162 -18.5z" />
    <glyph glyph-name="ordfeminine" unicode="&#xaa;" horiz-adv-x="1034" 
d="M310 331q-47 0 -89.5 13t-75 40t-52 68t-19.5 97q0 54 17.5 93.5t47 68t69 47t84 29t91.5 14.5t91 4q31 0 59.5 -1.5t52.5 -3.5q-1 46 -17 76.5t-42 48.5t-61 25t-74 7q-36 0 -73.5 -5t-73.5 -12t-68 -15l-56 -14v204q35 8 76.5 15.5t85.5 13t90.5 9t91.5 3.5
q84 0 162.5 -16t139.5 -56.5t97.5 -109.5t36.5 -174v-448h-300v130q-17 -35 -48.5 -63t-71 -47.5t-84 -30t-87.5 -10.5zM433 502q20 0 46.5 11t50 34.5t40 59t16.5 85.5h-24q-35 0 -71.5 -7.5t-67 -22t-50 -35.5t-19.5 -49q0 -22 7 -36.5t18.5 -23.5t25.5 -12.5t28 -3.5z
" />
    <glyph glyph-name="guillemotleft" unicode="&#xab;" horiz-adv-x="1290" 
d="M591 250l-498 350v300l498 350v-320l-306 -180l306 -180v-320zM1153 250l-498 350v300l498 350v-320l-306 -180l306 -180v-320z" />
    <glyph glyph-name="logicalnot" unicode="&#xac;" horiz-adv-x="1176" 
d="M997 832v-303h-576v-241h-224v544h800z" />
    <glyph glyph-name="uni00AD" unicode="&#xad;" horiz-adv-x="1707" 
 />
    <glyph glyph-name="registered" unicode="&#xae;" horiz-adv-x="2312" 
d="M837 1157h310q101 0 177.5 -20.5t128 -56t77.5 -82.5t26 -99q0 -35 -8.5 -69.5t-30 -65.5t-58.5 -56t-94 -40q12 -55 33 -108.5t47 -103.5t55 -96.5t56 -86.5h-289q-32 56 -66.5 144t-62.5 225h-37v-374h-264v889zM1122 779q48 0 80.5 8.5t53 22.5t29 32t8.5 36
q0 40 -13.5 62.5t-37 33.5t-54.5 13.5t-67 2.5h-20v-211h21zM1156 88q104 0 191.5 24t157 66.5t122 100.5t87.5 126t52.5 143.5t17.5 151.5t-17.5 151.5t-52.5 143.5t-87.5 126t-122 100.5t-157 66.5t-191.5 24q-105 0 -192 -24t-157 -66.5t-122 -100.5t-87 -126
t-52.5 -143.5t-17.5 -151.5q0 -77 17.5 -152t52.5 -143t87 -126t122 -100.5t157 -66.5t192 -24zM1156 1541q148 0 271.5 -33t222.5 -91.5t173 -138.5t123.5 -173.5t74 -196.5t24.5 -208t-24.5 -208.5t-74 -197t-123.5 -173t-173 -138t-222.5 -91.5t-271.5 -33t-271.5 33
t-222.5 91.5t-173.5 138t-124 173t-74 197t-24.5 208.5t24.5 208t74 196.5t124 173.5t173.5 138.5t222.5 91.5t271.5 33z" />
    <glyph glyph-name="macron" unicode="&#xaf;" horiz-adv-x="987" 
d="M894 1545v-245h-800v245h800z" />
    <glyph glyph-name="degree" unicode="&#xb0;" horiz-adv-x="991" 
d="M473 823q-77 0 -135 26t-97 69t-59 97t-20 111q0 56 19.5 110t58.5 96t97 68t136 26t136.5 -26t97.5 -68t59 -96t20 -110q0 -57 -20 -111t-59 -97t-97.5 -69t-136.5 -26zM472 983q32 0 57 12t42 32.5t26 46t9 52.5t-8.5 52t-25.5 44.5t-42 31.5t-58 12t-58 -12
t-42.5 -31.5t-26 -44.5t-8.5 -52t9 -52.5t26 -46t42.5 -32.5t57.5 -12z" />
    <glyph glyph-name="plusminus" unicode="&#xb1;" horiz-adv-x="1675" 
d="M397 604h-200v256h200v248h300v-248h200v-256h-200v-244h-300v244zM897 249v-249h-700v249h700z" />
    <glyph glyph-name="twosuperior" unicode="&#xb2;" horiz-adv-x="1063" 
d="M474 614h409v-264h-715l-40 266q34 33 78.5 68.5t92.5 72.5t94 77t82.5 82t58.5 87t22 91q0 29 -13 49t-33.5 32.5t-46 17.5t-50.5 5q-31 0 -62.5 -4.5t-61 -11t-55 -15.5t-42.5 -17l-49 241q85 29 167.5 39.5t156.5 10.5q109 0 189.5 -26.5t133.5 -70.5t78.5 -103
t25.5 -124q0 -71 -33.5 -143t-91 -137.5t-134 -122.5t-161.5 -100z" />
    <glyph glyph-name="threesuperior" unicode="&#xb3;" horiz-adv-x="1040" 
d="M249 993q94 0 152.5 6.5t90.5 20t43.5 34t11.5 48.5q0 31 -13.5 53.5t-36 36.5t-52 20.5t-61.5 6.5q-31 0 -65 -3.5t-67.5 -11t-66 -17.5t-60.5 -23v211q73 34 150 49.5t172 16.5q90 -1 158 -14t117.5 -35.5t82.5 -52.5t53 -66t28 -74.5t8 -78.5q0 -59 -20 -101
t-50.5 -69.5t-65.5 -43t-65 -22.5q34 -6 73.5 -20.5t73.5 -43.5t56.5 -73.5t22.5 -110.5q0 -44 -9 -86t-30.5 -79t-57.5 -68.5t-89.5 -54t-128 -35t-171.5 -12.5q-89 0 -163.5 13.5t-144.5 42.5v220q27 -13 59.5 -23t66.5 -17.5t68.5 -11t64.5 -3.5q31 0 60.5 6.5t52.5 22.5
t36.5 40.5t13.5 61.5q0 31 -10 57t-41.5 45t-90 29.5t-156.5 10.5v198z" />
    <glyph glyph-name="acute" unicode="&#xb4;" horiz-adv-x="1204" 
d="M330 1219l96 634h448l-256 -634h-288z" />
    <glyph glyph-name="mu" unicode="&#xb5;" horiz-adv-x="1517" 
d="M1361 0h-431l9 69q4 32 7 72t5 83q-30 -59 -75.5 -105.5t-100.5 -79.5t-117 -50q-48 -14 -96 -17v-324h-417v1431h432v-607q0 -62 11.5 -104t31.5 -68t46 -37.5t55 -11.5q34 0 68.5 14t63 38t49 56.5t27.5 69.5v650h432v-1079z" />
    <glyph glyph-name="paragraph" unicode="&#xb6;" horiz-adv-x="1451" 
d="M1334 0h-300v1156h-200v-1156h-300v704q-123 0 -204 31t-128 81t-66 113t-19 126q0 76 22.5 142t80.5 114t159 75.5t259 27.5h696v-1414z" />
    <glyph glyph-name="periodcentered" unicode="&#xb7;" horiz-adv-x="927" 
d="M465 502q-69 0 -121 19t-86 50.5t-51 72t-17 82.5q0 44 18 86.5t52.5 76t86 54t119.5 20.5q67 0 119 -20.5t86.5 -54t52.5 -76t18 -85.5t-17 -83.5t-51.5 -72t-86.5 -50.5t-122 -19z" />
    <glyph glyph-name="cedilla" unicode="&#xb8;" horiz-adv-x="1029" 
d="M238 0h200v-100q86 0 152 -29t110.5 -76.5t67.5 -108t23 -124.5q0 -65 -24.5 -128t-75.5 -112.5t-128.5 -79.5t-182.5 -30q-33 0 -68.5 3.5t-73.5 10.5v296q51 -9 91 -9q39 0 68.5 11t49 28.5t29.5 40t10 46.5q0 23 -9.5 45t-28 39.5t-47 28t-66.5 10.5q-45 0 -97 -18
v256z" />
    <glyph glyph-name="onesuperior" unicode="&#xb9;" horiz-adv-x="877" 
d="M661 347h-348v753l-200 -41v213q28 10 60.5 23.5t71 31.5t83.5 42.5t99 56.5h234v-1079z" />
    <glyph glyph-name="ordmasculine" unicode="&#xba;" horiz-adv-x="1135" 
d="M559 928q-72 0 -100 -46t-28 -131q0 -90 28 -132.5t100 -42.5t100 42.5t28 132.5q0 85 -28 131t-100 46zM559 1120q108 0 181.5 -32t118.5 -83.5t64.5 -117.5t19.5 -135t-19 -135t-63 -118t-115 -83.5t-176 -31.5q-111 0 -187 30t-122 80.5t-66 117t-20 140.5
q0 69 19.5 135t64.5 117.5t118.5 83.5t181.5 32z" />
    <glyph glyph-name="guillemotright" unicode="&#xbb;" horiz-adv-x="1290" 
d="M655 250l498 350v300l-498 350v-320l306 -180l-306 -180v-320zM93 250l498 350v300l-498 350v-320l306 -180l-306 -180v-320z" />
    <glyph glyph-name="onequarter" unicode="&#xbc;" horiz-adv-x="2588" 
d="M1587 1441l-543 -1441h-366l517 1441h392zM661 347h-348v753l-200 -41v213q28 10 60.5 23.5t71 31.5t83.5 42.5t99 56.5h234v-1079zM2378 389h175v-239h-175v-204h-442v204h-502v239l348 666h596v-666zM1972 836l-241 -447h265v447h-24z" />
    <glyph glyph-name="onehalf" unicode="&#xbd;" horiz-adv-x="2457" 
d="M1597 1441l-543 -1441h-366l517 1441h392zM661 347h-348v753l-200 -41v213q28 10 60.5 23.5t71 31.5t83.5 42.5t99 56.5h234v-1079zM1932 264h409v-264h-715l-40 266q34 33 78.5 68.5t92.5 72.5t94 77t82.5 82t58.5 87t22 91q0 29 -13 49t-33.5 32.5t-46 17.5t-50.5 5
q-31 0 -62.5 -4.5t-61 -11t-55 -15.5t-42.5 -17l-49 241q85 29 167.5 39.5t156.5 10.5q109 0 189.5 -26.5t133.5 -70.5t78.5 -103t25.5 -124q0 -71 -33.5 -143t-91 -137.5t-134 -122.5t-161.5 -100z" />
    <glyph glyph-name="threequarters" unicode="&#xbe;" horiz-adv-x="2823" 
d="M1788 1441l-543 -1441h-366l517 1441h392zM2583 389h175v-239h-175v-204h-442v204h-502v239l348 666h596v-666zM2177 836l-241 -447h265v447h-24zM249 993q94 0 152.5 6.5t90.5 20t43.5 34t11.5 48.5q0 31 -13.5 53.5t-36 36.5t-52 20.5t-61.5 6.5q-31 0 -65 -3.5
t-67.5 -11t-66 -17.5t-60.5 -23v211q73 34 150 49.5t172 16.5q90 -1 158 -14t117.5 -35.5t82.5 -52.5t53 -66t28 -74.5t8 -78.5q0 -59 -20 -101t-50.5 -69.5t-65.5 -43t-65 -22.5q34 -6 73.5 -20.5t73.5 -43.5t56.5 -73.5t22.5 -110.5q0 -44 -9 -86t-30.5 -79t-57.5 -68.5
t-89.5 -54t-128 -35t-171.5 -12.5q-89 0 -163.5 13.5t-144.5 42.5v220q27 -13 59.5 -23t66.5 -17.5t68.5 -11t64.5 -3.5q31 0 60.5 6.5t52.5 22.5t36.5 40.5t13.5 61.5q0 31 -10 57t-41.5 45t-90 29.5t-156.5 10.5v198z" />
    <glyph glyph-name="questiondown" unicode="&#xbf;" horiz-adv-x="1336" 
d="M989 642q-109 -9 -186.5 -23t-129.5 -32t-83 -39t-47 -44.5t-20.5 -49t-4.5 -52.5q0 -36 13.5 -65.5t37 -50.5t54.5 -32.5t65 -11.5q28 0 54.5 9t47.5 28t34 47t14 66h331q0 -90 -33 -167.5t-97.5 -133.5t-160 -88t-220.5 -32q-135 0 -232 35t-159 93.5t-91 134.5
t-29 158q0 73 30 143.5t90 128.5t150 98t211 51v150h331zM773 1441q57 0 99.5 -15.5t70.5 -41t42 -58.5t14 -67t-14.5 -67t-43 -58.5t-71 -41t-97.5 -15.5t-97.5 15.5t-71 41t-43 58t-14.5 66.5q0 35 13.5 68t41.5 58.5t70.5 41t100.5 15.5z" />
    <glyph glyph-name="Agrave" unicode="&#xc0;" horiz-adv-x="1395" 
d="M1385 0h-534l-66 301h-351l-63 -301h-361l360 1414h626zM614 1194l-137 -659h286l-118 659h-31zM681 1592l-256 634h448l96 -634h-288z" />
    <glyph glyph-name="Aacute" unicode="&#xc1;" horiz-adv-x="1395" 
d="M1385 0h-534l-66 301h-351l-63 -301h-361l360 1414h626zM614 1194l-137 -659h286l-118 659h-31zM425 1537l96 634h448l-256 -634h-288z" />
    <glyph glyph-name="Acircumflex" unicode="&#xc2;" horiz-adv-x="1395" 
d="M1385 0h-534l-66 301h-351l-63 -301h-361l360 1414h626zM614 1194l-137 -659h286l-118 659h-31zM847 1580l-150 402l-150 -402h-300l200 544h500l200 -544h-300z" />
    <glyph glyph-name="Atilde" unicode="&#xc3;" horiz-adv-x="1395" 
d="M1385 0h-534l-66 301h-351l-63 -301h-361l360 1414h626zM614 1194l-137 -659h286l-118 659h-31zM880 1618q-49 0 -99.5 22t-101 48.5t-99 48.5t-93.5 22q-33 0 -55 -32t-28 -104l-235 50q17 93 48.5 163t72.5 117.5t89 71.5t99 24q53 0 108 -22t109.5 -48.5t107 -48.5
t101.5 -22q34 0 57 32t29 104l235 -50q-20 -93 -55 -163t-81 -117.5t-99.5 -71.5t-109.5 -24z" />
    <glyph glyph-name="Adieresis" unicode="&#xc4;" horiz-adv-x="1395" 
d="M1385 0h-534l-66 301h-351l-63 -301h-361l360 1414h626zM614 1194l-137 -659h286l-118 659h-31zM405 1570q-51 0 -90 17.5t-65.5 46t-39.5 64.5t-13 74t13 74t39 64.5t65 45.5t91 17t91 -17t65 -45.5t39.5 -64.5t13.5 -74t-13.5 -74t-39.5 -64.5t-65 -46t-91 -17.5z
M988 1570q-51 0 -90 17.5t-65.5 46t-39.5 64.5t-13 74t13 74t39 64.5t65 45.5t91 17t91 -17t65 -45.5t39.5 -64.5t13.5 -74t-13.5 -74t-39.5 -64.5t-65 -46t-91 -17.5z" />
    <glyph glyph-name="Aring" unicode="&#xc5;" horiz-adv-x="1395" 
d="M1385 0h-534l-66 301h-351l-63 -301h-361l360 1414h626zM614 1194l-137 -659h286l-118 659h-31zM601 1781q0 -42 25.5 -69t70.5 -27t70.5 27t25.5 69t-25.5 69t-70.5 27t-70.5 -27t-25.5 -69zM473 1781q0 37 14.5 72t43 61.5t70.5 42.5t96 16t96 -16t70.5 -42.5t43 -61.5
t14.5 -72q0 -38 -14.5 -72.5t-43 -61t-70.5 -42.5t-96 -16t-96 16t-70.5 42.5t-43 61t-14.5 72.5z" />
    <glyph glyph-name="AE" unicode="&#xc6;" horiz-adv-x="1978" 
d="M1935 0h-1085l-23 301h-351l-106 -301h-360l560 1414h1162l38 -262h-539l39 -299h478l38 -256h-480l44 -309h544zM783 1194l-231 -659h286l-24 659h-31z" />
    <glyph glyph-name="Ccedilla" unicode="&#xc7;" horiz-adv-x="1427" 
d="M92 704q0 171 61.5 307.5t166.5 232t244 146.5t295 51q109 0 222 -21t225 -76l-62 -320q-88 48 -174 72t-158 24q-87 0 -156 -28.5t-117 -82.5t-73.5 -131t-25.5 -174t25.5 -174t73.5 -131t117 -82.5t156 -28.5q72 0 158 24t174 72l62 -320q-112 -54 -225 -73.5
t-222 -19.5q-156 0 -295 50.5t-244 145t-166.5 230.5t-61.5 307zM661 0h200v-100q86 0 152 -29t110.5 -76.5t67.5 -108t23 -124.5q0 -65 -24.5 -128t-75.5 -112.5t-128.5 -79.5t-182.5 -30q-33 0 -68.5 3.5t-73.5 10.5v296q51 -9 91 -9q39 0 68.5 11t49 28.5t29.5 40
t10 46.5q0 23 -9.5 45t-28 39.5t-47 28t-66.5 10.5q-45 0 -97 -18v256z" />
    <glyph glyph-name="Egrave" unicode="&#xc8;" horiz-adv-x="1319" 
d="M171 1414h992v-262h-544v-299h480v-256h-480v-309h544v-288h-992v1414zM643 1592l-256 634h448l96 -634h-288z" />
    <glyph glyph-name="Eacute" unicode="&#xc9;" horiz-adv-x="1319" 
d="M171 1414h992v-262h-544v-299h480v-256h-480v-309h544v-288h-992v1414zM387 1537l96 634h448l-256 -634h-288z" />
    <glyph glyph-name="Ecircumflex" unicode="&#xca;" horiz-adv-x="1319" 
d="M171 1414h992v-262h-544v-299h480v-256h-480v-309h544v-288h-992v1414zM809 1577l-150 402l-150 -402h-300l200 544h500l200 -544h-300z" />
    <glyph glyph-name="Edieresis" unicode="&#xcb;" horiz-adv-x="1319" 
d="M171 1414h992v-262h-544v-299h480v-256h-480v-309h544v-288h-992v1414zM370 1570q-51 0 -90 17.5t-65.5 46t-39.5 64.5t-13 74t13 74t39 64.5t65 45.5t91 17t91 -17t65 -45.5t39.5 -64.5t13.5 -74t-13.5 -74t-39.5 -64.5t-65 -46t-91 -17.5zM953 1570q-51 0 -90 17.5
t-65.5 46t-39.5 64.5t-13 74t13 74t39 64.5t65 45.5t91 17t91 -17t65 -45.5t39.5 -64.5t13.5 -74t-13.5 -74t-39.5 -64.5t-65 -46t-91 -17.5z" />
    <glyph glyph-name="Igrave" unicode="&#xcc;" horiz-adv-x="790" 
d="M171 1414h448v-1414h-448v1414zM333 1535l-256 634h448l96 -634h-288z" />
    <glyph glyph-name="Iacute" unicode="&#xcd;" horiz-adv-x="790" 
d="M171 1414h448v-1414h-448v1414zM125 1537l96 634h448l-256 -634h-288z" />
    <glyph glyph-name="Icircumflex" unicode="&#xce;" horiz-adv-x="790" 
d="M171 1414h448v-1414h-448v1414zM547 1580l-150 402l-150 -402h-300l200 544h500l200 -544h-300z" />
    <glyph glyph-name="Idieresis" unicode="&#xcf;" horiz-adv-x="790" 
d="M171 1414h448v-1414h-448v1414zM105 1570q-51 0 -90 17.5t-65.5 46t-39.5 64.5t-13 74t13 74t39 64.5t65 45.5t91 17t91 -17t65 -45.5t39.5 -64.5t13.5 -74t-13.5 -74t-39.5 -64.5t-65 -46t-91 -17.5zM688 1570q-51 0 -90 17.5t-65.5 46t-39.5 64.5t-13 74t13 74t39 64.5
t65 45.5t91 17t91 -17t65 -45.5t39.5 -64.5t13.5 -74t-13.5 -74t-39.5 -64.5t-65 -46t-91 -17.5z" />
    <glyph glyph-name="Eth" unicode="&#xd0;" horiz-adv-x="1539" 
d="M170 0v592h-170v240h170v582h492q182 0 327 -42.5t245.5 -129t154 -217t53.5 -306.5q0 -134 -27.5 -239.5t-78 -185.5t-122 -135.5t-158.5 -91t-187.5 -51.5t-210.5 -16h-488zM618 320h30q78 0 142 14.5t109.5 57.5t70 121t24.5 206q0 116 -22 193.5t-65 124t-106 66
t-144 19.5h-39v-290h182v-240h-182v-272z" />
    <glyph glyph-name="Ntilde" unicode="&#xd1;" horiz-adv-x="1654" 
d="M170 1414h433l538 -710v710h342v-1414h-444l-530 752v-752h-339v1414zM1010 1618q-49 0 -99.5 22t-101 48.5t-99 48.5t-93.5 22q-33 0 -55 -32t-28 -104l-235 50q17 93 48.5 163t72.5 117.5t89 71.5t99 24q53 0 108 -22t109.5 -48.5t107 -48.5t101.5 -22q34 0 57 32
t29 104l235 -50q-20 -93 -55 -163t-81 -117.5t-99.5 -71.5t-109.5 -24z" />
    <glyph glyph-name="Ograve" unicode="&#xd2;" horiz-adv-x="1593" 
d="M795 -29q-131 0 -234 28.5t-181.5 79t-133 120t-89 151t-50 171.5t-15.5 183q0 92 19 182.5t57 172.5t96 152t136 121t176.5 80t218.5 29t218.5 -29t177 -80t136.5 -121t96.5 -152t57.5 -172.5t19 -182.5q0 -93 -16 -183t-50.5 -171.5t-89.5 -151t-133 -120t-181.5 -79
t-234.5 -28.5zM540 704q0 -120 17.5 -205t50 -139t80 -79t107.5 -25t107.5 25t81 79t51 139t17.5 205t-17.5 205.5t-51 140t-81 80.5t-107.5 26t-107.5 -26t-80 -80.5t-50 -140t-17.5 -205.5zM697 1534l-256 634h448l96 -634h-288z" />
    <glyph glyph-name="Oacute" unicode="&#xd3;" horiz-adv-x="1593" 
d="M795 -29q-131 0 -234 28.5t-181.5 79t-133 120t-89 151t-50 171.5t-15.5 183q0 92 19 182.5t57 172.5t96 152t136 121t176.5 80t218.5 29t218.5 -29t177 -80t136.5 -121t96.5 -152t57.5 -172.5t19 -182.5q0 -93 -16 -183t-50.5 -171.5t-89.5 -151t-133 -120t-181.5 -79
t-234.5 -28.5zM540 704q0 -120 17.5 -205t50 -139t80 -79t107.5 -25t107.5 25t81 79t51 139t17.5 205t-17.5 205.5t-51 140t-81 80.5t-107.5 26t-107.5 -26t-80 -80.5t-50 -140t-17.5 -205.5zM524 1535l96 634h448l-256 -634h-288z" />
    <glyph glyph-name="Ocircumflex" unicode="&#xd4;" horiz-adv-x="1593" 
d="M795 -29q-131 0 -234 28.5t-181.5 79t-133 120t-89 151t-50 171.5t-15.5 183q0 92 19 182.5t57 172.5t96 152t136 121t176.5 80t218.5 29t218.5 -29t177 -80t136.5 -121t96.5 -152t57.5 -172.5t19 -182.5q0 -93 -16 -183t-50.5 -171.5t-89.5 -151t-133 -120t-181.5 -79
t-234.5 -28.5zM540 704q0 -120 17.5 -205t50 -139t80 -79t107.5 -25t107.5 25t81 79t51 139t17.5 205t-17.5 205.5t-51 140t-81 80.5t-107.5 26t-107.5 -26t-80 -80.5t-50 -140t-17.5 -205.5zM946 1577l-150 402l-150 -402h-300l200 544h500l200 -544h-300z" />
    <glyph glyph-name="Otilde" unicode="&#xd5;" horiz-adv-x="1593" 
d="M795 -29q-131 0 -234 28.5t-181.5 79t-133 120t-89 151t-50 171.5t-15.5 183q0 92 19 182.5t57 172.5t96 152t136 121t176.5 80t218.5 29t218.5 -29t177 -80t136.5 -121t96.5 -152t57.5 -172.5t19 -182.5q0 -93 -16 -183t-50.5 -171.5t-89.5 -151t-133 -120t-181.5 -79
t-234.5 -28.5zM540 704q0 -120 17.5 -205t50 -139t80 -79t107.5 -25t107.5 25t81 79t51 139t17.5 205t-17.5 205.5t-51 140t-81 80.5t-107.5 26t-107.5 -26t-80 -80.5t-50 -140t-17.5 -205.5zM979 1618q-49 0 -99.5 22t-101 48.5t-99 48.5t-93.5 22q-33 0 -55 -32t-28 -104
l-235 50q17 93 48.5 163t72.5 117.5t89 71.5t99 24q53 0 108 -22t109.5 -48.5t107 -48.5t101.5 -22q34 0 57 32t29 104l235 -50q-20 -93 -55 -163t-81 -117.5t-99.5 -71.5t-109.5 -24z" />
    <glyph glyph-name="Odieresis" unicode="&#xd6;" horiz-adv-x="1593" 
d="M795 -29q-131 0 -234 28.5t-181.5 79t-133 120t-89 151t-50 171.5t-15.5 183q0 92 19 182.5t57 172.5t96 152t136 121t176.5 80t218.5 29t218.5 -29t177 -80t136.5 -121t96.5 -152t57.5 -172.5t19 -182.5q0 -93 -16 -183t-50.5 -171.5t-89.5 -151t-133 -120t-181.5 -79
t-234.5 -28.5zM540 704q0 -120 17.5 -205t50 -139t80 -79t107.5 -25t107.5 25t81 79t51 139t17.5 205t-17.5 205.5t-51 140t-81 80.5t-107.5 26t-107.5 -26t-80 -80.5t-50 -140t-17.5 -205.5zM504 1570q-51 0 -90 17.5t-65.5 46t-39.5 64.5t-13 74t13 74t39 64.5t65 45.5
t91 17t91 -17t65 -45.5t39.5 -64.5t13.5 -74t-13.5 -74t-39.5 -64.5t-65 -46t-91 -17.5zM1087 1570q-51 0 -90 17.5t-65.5 46t-39.5 64.5t-13 74t13 74t39 64.5t65 45.5t91 17t91 -17t65 -45.5t39.5 -64.5t13.5 -74t-13.5 -74t-39.5 -64.5t-65 -46t-91 -17.5z" />
    <glyph glyph-name="multiply" unicode="&#xd7;" horiz-adv-x="1271" 
d="M850 684l195 -194l-213 -213l-194 194l-194 -194l-213 213l194 194l-194 195l213 213l194 -195l194 195l213 -213z" />
    <glyph glyph-name="Oslash" unicode="&#xd8;" horiz-adv-x="1593" 
d="M795 -29q-131 0 -234 29h-1l-105 -200l-200 100l102 193q-64 46 -111 105q-54 70 -88.5 151.5t-50 171.5t-15.5 183q0 92 19 182.5t57 172.5t96 152t136 121t176.5 80t218.5 29t218 -29q19 -6 36 -12l106 200l200 -100l-110 -208q45 -37 82 -81q58 -70 96.5 -152
t57.5 -172.5t19 -182.5q0 -93 -16 -183t-50.5 -171.5t-89.5 -151t-133 -120t-181.5 -79t-234.5 -28.5zM540 704q0 -120 17 -205q2 -10 5 -20l343 649q-1 1 -3 2q-47 26 -107 26t-107.5 -26t-80 -80.5t-50 -140t-17.5 -205.5zM795 256q60 0 107.5 25t81 79t51 139t17.5 205
q0 113 -16 195l-331 -627q41 -16 90 -16z" />
    <glyph glyph-name="Ugrave" unicode="&#xd9;" horiz-adv-x="1579" 
d="M810 -29q-149 0 -267.5 43.5t-201.5 131t-127 219.5t-44 309v740h448v-742q0 -99 10 -176t34 -130.5t64 -81.5t100 -28q66 0 106.5 28t63 81.5t30.5 130.5t8 176v742h374v-740q0 -178 -35 -310t-108.5 -219.5t-186 -130.5t-268.5 -43zM773 1535l-256 634h448l96 -634
h-288z" />
    <glyph glyph-name="Uacute" unicode="&#xda;" horiz-adv-x="1579" 
d="M810 -29q-149 0 -267.5 43.5t-201.5 131t-127 219.5t-44 309v740h448v-742q0 -99 10 -176t34 -130.5t64 -81.5t100 -28q66 0 106.5 28t63 81.5t30.5 130.5t8 176v742h374v-740q0 -178 -35 -310t-108.5 -219.5t-186 -130.5t-268.5 -43zM517 1536l96 634h448l-256 -634
h-288z" />
    <glyph glyph-name="Ucircumflex" unicode="&#xdb;" horiz-adv-x="1579" 
d="M810 -29q-149 0 -267.5 43.5t-201.5 131t-127 219.5t-44 309v740h448v-742q0 -99 10 -176t34 -130.5t64 -81.5t100 -28q66 0 106.5 28t63 81.5t30.5 130.5t8 176v742h374v-740q0 -178 -35 -310t-108.5 -219.5t-186 -130.5t-268.5 -43zM939 1582l-150 402l-150 -402h-300
l200 544h500l200 -544h-300z" />
    <glyph glyph-name="Udieresis" unicode="&#xdc;" horiz-adv-x="1579" 
d="M810 -29q-149 0 -267.5 43.5t-201.5 131t-127 219.5t-44 309v740h448v-742q0 -99 10 -176t34 -130.5t64 -81.5t100 -28q66 0 106.5 28t63 81.5t30.5 130.5t8 176v742h374v-740q0 -178 -35 -310t-108.5 -219.5t-186 -130.5t-268.5 -43zM497 1570q-51 0 -90 17.5t-65.5 46
t-39.5 64.5t-13 74t13 74t39 64.5t65 45.5t91 17t91 -17t65 -45.5t39.5 -64.5t13.5 -74t-13.5 -74t-39.5 -64.5t-65 -46t-91 -17.5zM1080 1570q-51 0 -90 17.5t-65.5 46t-39.5 64.5t-13 74t13 74t39 64.5t65 45.5t91 17t91 -17t65 -45.5t39.5 -64.5t13.5 -74t-13.5 -74
t-39.5 -64.5t-65 -46t-91 -17.5z" />
    <glyph glyph-name="Yacute" unicode="&#xdd;" horiz-adv-x="1235" 
d="M414 0v486l-437 928h514l172 -509l158 509h436l-395 -915v-499h-448zM345 1537l96 634h448l-256 -634h-288z" />
    <glyph glyph-name="Thorn" unicode="&#xde;" horiz-adv-x="1487" 
d="M170 1414h448v-134h98q135 0 237 -17.5t176.5 -49t124 -76t79 -97.5t41.5 -114t12 -126q0 -83 -28.5 -163t-98 -143.5t-187 -102.5t-294.5 -39h-160v-352h-448v1414zM618 576h128q72 0 121 17.5t79 47.5t43 71t13 88q0 66 -19 109t-53.5 68.5t-81.5 36t-102 10.5h-128
v-448z" />
    <glyph glyph-name="germandbls" unicode="&#xdf;" horiz-adv-x="1491" 
d="M589 0h-432l-1 1008q0 91 27 158t73 115.5t107 79.5t129.5 48.5t140.5 24.5t140 7q151 0 259.5 -30.5t178 -80t102 -112.5t32.5 -129q0 -48 -16.5 -97t-47.5 -93t-76 -79.5t-103 -57.5q93 -10 165 -43t121.5 -81.5t75 -108.5t25.5 -124q0 -82 -44 -163t-136.5 -146
t-235 -105.5t-338.5 -40.5v250q82 0 143 16.5t102 44t61.5 62.5t20.5 71q0 35 -19.5 69t-58.5 60.5t-97.5 42.5t-135.5 16v246q62 0 107 17t74 43t42.5 58.5t13.5 63.5q0 78 -43.5 124t-136.5 46q-103 0 -160.5 -46t-58.5 -124v-1010z" />
    <glyph glyph-name="agrave" unicode="&#xe0;" 
d="M416 -29q-64 0 -122.5 18t-103.5 55t-71.5 93.5t-26.5 133.5q0 74 24 128.5t64.5 93.5t95 64.5t115.5 40t125.5 20t125.5 5.5q42 0 81 -2t73 -5q-2 63 -24 104.5t-58 66t-84 34.5t-101 10q-49 0 -100.5 -6.5t-100.5 -16t-93.5 -20.5t-78.5 -20v280q49 11 105.5 21.5
t117.5 18.5t124.5 13t125.5 5q77 0 151.5 -9.5t141 -31.5t123 -59t97 -91.5t63.5 -128.5t23 -171v-615h-412v179q-24 -49 -67 -87.5t-97 -65.5t-115 -41t-121 -14zM585 206q28 0 64.5 15.5t69 47.5t55 81t22.5 117h-33q-48 0 -98.5 -10t-92.5 -30t-69 -49t-27 -67
q0 -30 10 -50t25.5 -32.5t35 -17.5t38.5 -5zM665 1219l-256 634h448l96 -634h-288z" />
    <glyph glyph-name="aacute" unicode="&#xe1;" 
d="M416 -29q-64 0 -122.5 18t-103.5 55t-71.5 93.5t-26.5 133.5q0 74 24 128.5t64.5 93.5t95 64.5t115.5 40t125.5 20t125.5 5.5q42 0 81 -2t73 -5q-2 63 -24 104.5t-58 66t-84 34.5t-101 10q-49 0 -100.5 -6.5t-100.5 -16t-93.5 -20.5t-78.5 -20v280q49 11 105.5 21.5
t117.5 18.5t124.5 13t125.5 5q77 0 151.5 -9.5t141 -31.5t123 -59t97 -91.5t63.5 -128.5t23 -171v-615h-412v179q-24 -49 -67 -87.5t-97 -65.5t-115 -41t-121 -14zM585 206q28 0 64.5 15.5t69 47.5t55 81t22.5 117h-33q-48 0 -98.5 -10t-92.5 -30t-69 -49t-27 -67
q0 -30 10 -50t25.5 -32.5t35 -17.5t38.5 -5zM409 1219l96 634h448l-256 -634h-288z" />
    <glyph glyph-name="acircumflex" unicode="&#xe2;" 
d="M416 -29q-64 0 -122.5 18t-103.5 55t-71.5 93.5t-26.5 133.5q0 74 24 128.5t64.5 93.5t95 64.5t115.5 40t125.5 20t125.5 5.5q42 0 81 -2t73 -5q-2 63 -24 104.5t-58 66t-84 34.5t-101 10q-49 0 -100.5 -6.5t-100.5 -16t-93.5 -20.5t-78.5 -20v280q49 11 105.5 21.5
t117.5 18.5t124.5 13t125.5 5q77 0 151.5 -9.5t141 -31.5t123 -59t97 -91.5t63.5 -128.5t23 -171v-615h-412v179q-24 -49 -67 -87.5t-97 -65.5t-115 -41t-121 -14zM585 206q28 0 64.5 15.5t69 47.5t55 81t22.5 117h-33q-48 0 -98.5 -10t-92.5 -30t-69 -49t-27 -67
q0 -30 10 -50t25.5 -32.5t35 -17.5t38.5 -5zM831 1248l-150 402l-150 -402h-300l200 544h500l200 -544h-300z" />
    <glyph glyph-name="atilde" unicode="&#xe3;" 
d="M416 -29q-64 0 -122.5 18t-103.5 55t-71.5 93.5t-26.5 133.5q0 74 24 128.5t64.5 93.5t95 64.5t115.5 40t125.5 20t125.5 5.5q42 0 81 -2t73 -5q-2 63 -24 104.5t-58 66t-84 34.5t-101 10q-49 0 -100.5 -6.5t-100.5 -16t-93.5 -20.5t-78.5 -20v280q49 11 105.5 21.5
t117.5 18.5t124.5 13t125.5 5q77 0 151.5 -9.5t141 -31.5t123 -59t97 -91.5t63.5 -128.5t23 -171v-615h-412v179q-24 -49 -67 -87.5t-97 -65.5t-115 -41t-121 -14zM585 206q28 0 64.5 15.5t69 47.5t55 81t22.5 117h-33q-48 0 -98.5 -10t-92.5 -30t-69 -49t-27 -67
q0 -30 10 -50t25.5 -32.5t35 -17.5t38.5 -5zM864 1245q-49 0 -99.5 22t-101 48.5t-99 48.5t-93.5 22q-33 0 -55 -32t-28 -104l-235 50q17 93 48.5 163t72.5 117.5t89 71.5t99 24q53 0 108 -22t109.5 -48.5t107 -48.5t101.5 -22q34 0 57 32t29 104l235 -50q-20 -93 -55 -163
t-81 -117.5t-99.5 -71.5t-109.5 -24z" />
    <glyph glyph-name="adieresis" unicode="&#xe4;" 
d="M416 -29q-64 0 -122.5 18t-103.5 55t-71.5 93.5t-26.5 133.5q0 74 24 128.5t64.5 93.5t95 64.5t115.5 40t125.5 20t125.5 5.5q42 0 81 -2t73 -5q-2 63 -24 104.5t-58 66t-84 34.5t-101 10q-49 0 -100.5 -6.5t-100.5 -16t-93.5 -20.5t-78.5 -20v280q49 11 105.5 21.5
t117.5 18.5t124.5 13t125.5 5q77 0 151.5 -9.5t141 -31.5t123 -59t97 -91.5t63.5 -128.5t23 -171v-615h-412v179q-24 -49 -67 -87.5t-97 -65.5t-115 -41t-121 -14zM585 206q28 0 64.5 15.5t69 47.5t55 81t22.5 117h-33q-48 0 -98.5 -10t-92.5 -30t-69 -49t-27 -67
q0 -30 10 -50t25.5 -32.5t35 -17.5t38.5 -5zM389 1197q-51 0 -90 17.5t-65.5 46t-39.5 64.5t-13 74t13 74t39 64.5t65 45.5t91 17t91 -17t65 -45.5t39.5 -64.5t13.5 -74t-13.5 -74t-39.5 -64.5t-65 -46t-91 -17.5zM972 1197q-51 0 -90 17.5t-65.5 46t-39.5 64.5t-13 74
t13 74t39 64.5t65 45.5t91 17t91 -17t65 -45.5t39.5 -64.5t13.5 -74t-13.5 -74t-39.5 -64.5t-65 -46t-91 -17.5z" />
    <glyph glyph-name="aring" unicode="&#xe5;" 
d="M416 -29q-64 0 -122.5 18t-103.5 55t-71.5 93.5t-26.5 133.5q0 74 24 128.5t64.5 93.5t95 64.5t115.5 40t125.5 20t125.5 5.5q42 0 81 -2t73 -5q-2 63 -24 104.5t-58 66t-84 34.5t-101 10q-49 0 -100.5 -6.5t-100.5 -16t-93.5 -20.5t-78.5 -20v280q49 11 105.5 21.5
t117.5 18.5t124.5 13t125.5 5q77 0 151.5 -9.5t141 -31.5t123 -59t97 -91.5t63.5 -128.5t23 -171v-615h-412v179q-24 -49 -67 -87.5t-97 -65.5t-115 -41t-121 -14zM585 206q28 0 64.5 15.5t69 47.5t55 81t22.5 117h-33q-48 0 -98.5 -10t-92.5 -30t-69 -49t-27 -67
q0 -30 10 -50t25.5 -32.5t35 -17.5t38.5 -5zM585 1408q0 -42 25.5 -69t70.5 -27t70.5 27t25.5 69t-25.5 69t-70.5 27t-70.5 -27t-25.5 -69zM457 1408q0 37 14.5 72t43 61.5t70.5 42.5t96 16t96 -16t70.5 -42.5t43 -61.5t14.5 -72q0 -38 -14.5 -72.5t-43 -61t-70.5 -42.5
t-96 -16t-96 16t-70.5 42.5t-43 61t-14.5 72.5z" />
    <glyph glyph-name="ae" unicode="&#xe6;" horiz-adv-x="1978" 
d="M1874 43q-94 -31 -203 -51.5t-227 -20.5q-144 0 -271 41.5t-218 131.5q-42 -41 -102.5 -73.5t-131.5 -54.5t-149 -33.5t-156 -11.5q-64 0 -122.5 18t-103.5 55t-71.5 93.5t-26.5 133.5q0 74 24 128.5t64.5 93.5t95 64.5t115.5 40t125.5 20t125.5 5.5q42 0 81 -2t73 -5
q-2 63 -24 104.5t-58 66t-84 34.5t-101 10q-49 0 -100.5 -6.5t-100.5 -16t-93.5 -20.5t-78.5 -20v280q49 11 105.5 21.5t117.5 18.5t124.5 13t125.5 5q121 0 232.5 -24.5t196.5 -85.5q86 54 184.5 82t195.5 28q115 0 203 -25.5t146.5 -68.5t88.5 -100t30 -121
q0 -78 -26.5 -133t-71 -92.5t-103 -59t-123.5 -33t-132.5 -14.5t-128.5 -3q-21 0 -40.5 0.5t-38.5 0.5q8 -57 31.5 -96t59 -63.5t82 -35t99.5 -10.5q40 0 85.5 6t92 16.5t93 24t89.5 28.5v-284zM1233 611q24 1 61.5 3t79.5 7t84 14t76 23t55 35t21 51q0 51 -40.5 81.5
t-112.5 30.5q-33 0 -71 -9.5t-71 -36.5t-56 -75t-26 -124zM585 206q28 0 64.5 15.5t69 47.5t55 81t22.5 117h-33q-48 0 -98.5 -10t-92.5 -30t-69 -49t-27 -67q0 -30 10 -50t25.5 -32.5t35 -17.5t38.5 -5z" />
    <glyph glyph-name="ccedilla" unicode="&#xe7;" horiz-adv-x="1213" 
d="M512 538q0 -73 17.5 -127t49.5 -89.5t77 -53t101 -17.5q72 0 136 19.5t131 53.5l64 -260q-44 -23 -95 -40.5t-105 -29t-109.5 -17.5t-108.5 -6q-121 0 -228 34t-187.5 104t-127.5 177t-47 253t47 253t127.5 177t187.5 104t228 34q53 0 108.5 -6t109.5 -17.5t105 -29
t95 -40.5l-64 -260q-67 34 -131 53.5t-136 19.5q-56 0 -101 -17.5t-77 -53.5t-49.5 -90.5t-17.5 -127.5zM531 0h200v-100q86 0 152 -29t110.5 -76.5t67.5 -108t23 -124.5q0 -65 -24.5 -128t-75.5 -112.5t-128.5 -79.5t-182.5 -30q-33 0 -68.5 3.5t-73.5 10.5v296
q51 -9 91 -9q39 0 68.5 11t49 28.5t29.5 40t10 46.5q0 23 -9.5 45t-28 39.5t-47 28t-66.5 10.5q-45 0 -97 -18v256z" />
    <glyph glyph-name="egrave" unicode="&#xe8;" horiz-adv-x="1297" 
d="M1156 43q-94 -31 -203 -51.5t-227 -20.5q-129 0 -246 34t-206 106t-141.5 182.5t-52.5 263.5q0 87 27 161.5t73.5 135.5t109 108t134 79t147.5 48.5t149 16.5q115 0 203 -25.5t146.5 -68.5t88.5 -100t30 -121q0 -78 -26.5 -133t-71 -92.5t-103 -59t-123.5 -33
t-132.5 -14.5t-128.5 -3q-21 0 -40.5 0.5t-38.5 0.5q8 -57 31.5 -96t59 -63.5t82 -35t99.5 -10.5q40 0 85.5 6t92 16.5t93 24t89.5 28.5v-284zM515 611q24 1 61.5 3t79.5 7t84 14t76 23t55 35t21 51q0 51 -40.5 81.5t-112.5 30.5q-33 0 -71 -9.5t-71 -36.5t-56 -75t-26 -124
zM632 1219l-256 634h448l96 -634h-288z" />
    <glyph glyph-name="eacute" unicode="&#xe9;" horiz-adv-x="1297" 
d="M1156 43q-94 -31 -203 -51.5t-227 -20.5q-129 0 -246 34t-206 106t-141.5 182.5t-52.5 263.5q0 87 27 161.5t73.5 135.5t109 108t134 79t147.5 48.5t149 16.5q115 0 203 -25.5t146.5 -68.5t88.5 -100t30 -121q0 -78 -26.5 -133t-71 -92.5t-103 -59t-123.5 -33
t-132.5 -14.5t-128.5 -3q-21 0 -40.5 0.5t-38.5 0.5q8 -57 31.5 -96t59 -63.5t82 -35t99.5 -10.5q40 0 85.5 6t92 16.5t93 24t89.5 28.5v-284zM515 611q24 1 61.5 3t79.5 7t84 14t76 23t55 35t21 51q0 51 -40.5 81.5t-112.5 30.5q-33 0 -71 -9.5t-71 -36.5t-56 -75t-26 -124
zM376 1219l96 634h448l-256 -634h-288z" />
    <glyph glyph-name="ecircumflex" unicode="&#xea;" horiz-adv-x="1297" 
d="M1156 43q-94 -31 -203 -51.5t-227 -20.5q-129 0 -246 34t-206 106t-141.5 182.5t-52.5 263.5q0 87 27 161.5t73.5 135.5t109 108t134 79t147.5 48.5t149 16.5q115 0 203 -25.5t146.5 -68.5t88.5 -100t30 -121q0 -78 -26.5 -133t-71 -92.5t-103 -59t-123.5 -33
t-132.5 -14.5t-128.5 -3q-21 0 -40.5 0.5t-38.5 0.5q8 -57 31.5 -96t59 -63.5t82 -35t99.5 -10.5q40 0 85.5 6t92 16.5t93 24t89.5 28.5v-284zM515 611q24 1 61.5 3t79.5 7t84 14t76 23t55 35t21 51q0 51 -40.5 81.5t-112.5 30.5q-33 0 -71 -9.5t-71 -36.5t-56 -75t-26 -124
zM798 1248l-150 402l-150 -402h-300l200 544h500l200 -544h-300z" />
    <glyph glyph-name="edieresis" unicode="&#xeb;" horiz-adv-x="1297" 
d="M1156 43q-94 -31 -203 -51.5t-227 -20.5q-129 0 -246 34t-206 106t-141.5 182.5t-52.5 263.5q0 87 27 161.5t73.5 135.5t109 108t134 79t147.5 48.5t149 16.5q115 0 203 -25.5t146.5 -68.5t88.5 -100t30 -121q0 -78 -26.5 -133t-71 -92.5t-103 -59t-123.5 -33
t-132.5 -14.5t-128.5 -3q-21 0 -40.5 0.5t-38.5 0.5q8 -57 31.5 -96t59 -63.5t82 -35t99.5 -10.5q40 0 85.5 6t92 16.5t93 24t89.5 28.5v-284zM515 611q24 1 61.5 3t79.5 7t84 14t76 23t55 35t21 51q0 51 -40.5 81.5t-112.5 30.5q-33 0 -71 -9.5t-71 -36.5t-56 -75t-26 -124
zM359 1197q-51 0 -90 17.5t-65.5 46t-39.5 64.5t-13 74t13 74t39 64.5t65 45.5t91 17t91 -17t65 -45.5t39.5 -64.5t13.5 -74t-13.5 -74t-39.5 -64.5t-65 -46t-91 -17.5zM942 1197q-51 0 -90 17.5t-65.5 46t-39.5 64.5t-13 74t13 74t39 64.5t65 45.5t91 17t91 -17t65 -45.5
t39.5 -64.5t13.5 -74t-13.5 -74t-39.5 -64.5t-65 -46t-91 -17.5z" />
    <glyph glyph-name="igrave" unicode="&#xec;" horiz-adv-x="670" 
d="M162 1079h432v-1079h-432v1079zM321 1219l-256 634h448l96 -634h-288z" />
    <glyph glyph-name="iacute" unicode="&#xed;" horiz-adv-x="670" 
d="M162 1079h432v-1079h-432v1079zM65 1219l96 634h448l-256 -634h-288z" />
    <glyph glyph-name="icircumflex" unicode="&#xee;" horiz-adv-x="670" 
d="M162 1079h432v-1079h-432v1079zM487 1248l-150 402l-150 -402h-300l200 544h500l200 -544h-300z" />
    <glyph glyph-name="idieresis" unicode="&#xef;" horiz-adv-x="670" 
d="M162 1079h432v-1079h-432v1079zM85 1197q-51 0 -90 17.5t-65.5 46t-39.5 64.5t-13 74t13 74t39 64.5t65 45.5t91 17t91 -17t65 -45.5t39.5 -64.5t13.5 -74t-13.5 -74t-39.5 -64.5t-65 -46t-91 -17.5zM668 1197q-51 0 -90 17.5t-65.5 46t-39.5 64.5t-13 74t13 74t39 64.5
t65 45.5t91 17t91 -17t65 -45.5t39.5 -64.5t13.5 -74t-13.5 -74t-39.5 -64.5t-65 -46t-91 -17.5z" />
    <glyph glyph-name="eth" unicode="&#xf0;" horiz-adv-x="1391" 
d="M761 1105q-6 3 -16 7q-8 4 -20.5 8.5t-28.5 12.5q-46 5 -70 8t-28 3q-74 1 -132.5 -13t-102.5 -24q-45 -11 -75 -21l-48 -16l-32 307q167 64 412 64q175 0 292.5 -45t189.5 -125l249 102l82 -178l-238 -97q32 -93 50.5 -205t18.5 -230q0 -94 -10 -182.5t-36 -165.5
t-71 -141t-116 -110t-170 -71t-232 -25q-110 0 -193.5 17.5t-144.5 48.5t-101.5 73t-65 90.5t-34.5 101.5t-10 107q0 92 38.5 165.5t102.5 124.5t147 78.5t172 27.5q75 0 154 -17.5t154 -46.5q0 19 -3 48t-6.5 59t-8 56t-7.5 40l-158 -86l-90 136zM656 577
q-54 0 -90.5 -13.5t-59 -37t-32.5 -54t-10 -63.5t9.5 -66t29 -59.5t49.5 -42.5t72 -16q54 0 95.5 10t70 46t43.5 106t15 190h-192z" />
    <glyph glyph-name="ntilde" unicode="&#xf1;" horiz-adv-x="1572" 
d="M156 1079h432q-6 -34 -12 -87.5t-6 -110.5q34 51 85.5 92.5t113.5 71t131.5 45.5t140.5 16q78 0 148 -23.5t123 -74.5t84 -132.5t31 -197.5v-678h-432v615q0 62 -13 103t-36 65t-54.5 34t-68.5 10q-40 0 -79 -13.5t-71 -36.5t-55 -54t-30 -66v-657h-432v1079zM969 1245
q-49 0 -99.5 22t-101 48.5t-99 48.5t-93.5 22q-33 0 -55 -32t-28 -104l-235 50q17 93 48.5 163t72.5 117.5t89 71.5t99 24q53 0 108 -22t109.5 -48.5t107 -48.5t101.5 -22q34 0 57 32t29 104l235 -50q-20 -93 -55 -163t-81 -117.5t-99.5 -71.5t-109.5 -24z" />
    <glyph glyph-name="ograve" unicode="&#xf2;" horiz-adv-x="1408" 
d="M704 -29q-118 0 -210 22t-161 61t-117.5 92.5t-78.5 116.5t-43.5 133t-13.5 142q0 71 13.5 140.5t43.5 133t78 117t117.5 93t161.5 62t210 22.5t210 -22.5t161.5 -62t117.5 -93t78 -117t43.5 -133t13.5 -140.5q0 -72 -13.5 -142t-43.5 -133t-78.5 -116.5t-117.5 -92.5
t-161 -61t-210 -22zM512 538q0 -54 10 -105.5t32.5 -92t59 -65t90.5 -24.5t90.5 24.5t59 65t32.5 92t10 105.5t-10 105.5t-32.5 92t-59 65.5t-90.5 25t-90.5 -25t-59 -65.5t-32.5 -92t-10 -105.5zM688 1219l-256 634h448l96 -634h-288z" />
    <glyph glyph-name="oacute" unicode="&#xf3;" horiz-adv-x="1408" 
d="M704 -29q-118 0 -210 22t-161 61t-117.5 92.5t-78.5 116.5t-43.5 133t-13.5 142q0 71 13.5 140.5t43.5 133t78 117t117.5 93t161.5 62t210 22.5t210 -22.5t161.5 -62t117.5 -93t78 -117t43.5 -133t13.5 -140.5q0 -72 -13.5 -142t-43.5 -133t-78.5 -116.5t-117.5 -92.5
t-161 -61t-210 -22zM512 538q0 -54 10 -105.5t32.5 -92t59 -65t90.5 -24.5t90.5 24.5t59 65t32.5 92t10 105.5t-10 105.5t-32.5 92t-59 65.5t-90.5 25t-90.5 -25t-59 -65.5t-32.5 -92t-10 -105.5zM516 1219l96 634h448l-256 -634h-288z" />
    <glyph glyph-name="ocircumflex" unicode="&#xf4;" horiz-adv-x="1408" 
d="M704 -29q-118 0 -210 22t-161 61t-117.5 92.5t-78.5 116.5t-43.5 133t-13.5 142q0 71 13.5 140.5t43.5 133t78 117t117.5 93t161.5 62t210 22.5t210 -22.5t161.5 -62t117.5 -93t78 -117t43.5 -133t13.5 -140.5q0 -72 -13.5 -142t-43.5 -133t-78.5 -116.5t-117.5 -92.5
t-161 -61t-210 -22zM512 538q0 -54 10 -105.5t32.5 -92t59 -65t90.5 -24.5t90.5 24.5t59 65t32.5 92t10 105.5t-10 105.5t-32.5 92t-59 65.5t-90.5 25t-90.5 -25t-59 -65.5t-32.5 -92t-10 -105.5zM854 1248l-150 402l-150 -402h-300l200 544h500l200 -544h-300z" />
    <glyph glyph-name="otilde" unicode="&#xf5;" horiz-adv-x="1408" 
d="M704 -29q-118 0 -210 22t-161 61t-117.5 92.5t-78.5 116.5t-43.5 133t-13.5 142q0 71 13.5 140.5t43.5 133t78 117t117.5 93t161.5 62t210 22.5t210 -22.5t161.5 -62t117.5 -93t78 -117t43.5 -133t13.5 -140.5q0 -72 -13.5 -142t-43.5 -133t-78.5 -116.5t-117.5 -92.5
t-161 -61t-210 -22zM512 538q0 -54 10 -105.5t32.5 -92t59 -65t90.5 -24.5t90.5 24.5t59 65t32.5 92t10 105.5t-10 105.5t-32.5 92t-59 65.5t-90.5 25t-90.5 -25t-59 -65.5t-32.5 -92t-10 -105.5zM887 1245q-49 0 -99.5 22t-101 48.5t-99 48.5t-93.5 22q-33 0 -55 -32
t-28 -104l-235 50q17 93 48.5 163t72.5 117.5t89 71.5t99 24q53 0 108 -22t109.5 -48.5t107 -48.5t101.5 -22q34 0 57 32t29 104l235 -50q-20 -93 -55 -163t-81 -117.5t-99.5 -71.5t-109.5 -24z" />
    <glyph glyph-name="odieresis" unicode="&#xf6;" horiz-adv-x="1408" 
d="M704 -29q-118 0 -210 22t-161 61t-117.5 92.5t-78.5 116.5t-43.5 133t-13.5 142q0 71 13.5 140.5t43.5 133t78 117t117.5 93t161.5 62t210 22.5t210 -22.5t161.5 -62t117.5 -93t78 -117t43.5 -133t13.5 -140.5q0 -72 -13.5 -142t-43.5 -133t-78.5 -116.5t-117.5 -92.5
t-161 -61t-210 -22zM512 538q0 -54 10 -105.5t32.5 -92t59 -65t90.5 -24.5t90.5 24.5t59 65t32.5 92t10 105.5t-10 105.5t-32.5 92t-59 65.5t-90.5 25t-90.5 -25t-59 -65.5t-32.5 -92t-10 -105.5zM412 1197q-51 0 -90 17.5t-65.5 46t-39.5 64.5t-13 74t13 74t39 64.5
t65 45.5t91 17t91 -17t65 -45.5t39.5 -64.5t13.5 -74t-13.5 -74t-39.5 -64.5t-65 -46t-91 -17.5zM995 1197q-51 0 -90 17.5t-65.5 46t-39.5 64.5t-13 74t13 74t39 64.5t65 45.5t91 17t91 -17t65 -45.5t39.5 -64.5t13.5 -74t-13.5 -74t-39.5 -64.5t-65 -46t-91 -17.5z" />
    <glyph glyph-name="divide" unicode="&#xf7;" horiz-adv-x="1146" 
d="M581 8q-44 0 -76 14t-53 36.5t-31 51.5t-10 58q0 30 11 58.5t32 51t53 36.5t74 14t74 -14t53.5 -36.5t32.5 -51t11 -58.5q0 -29 -10.5 -58t-32 -51.5t-53.5 -36.5t-75 -14zM581 800q-44 0 -76 14t-53 37t-31 51.5t-10 57.5q0 30 11 58.5t32 51t53 36.5t74 14t74 -14
t53.5 -36.5t32.5 -51t11 -58.5q0 -29 -10.5 -57.5t-32 -51.5t-53.5 -37t-75 -14zM965 704v-224h-768v224h768z" />
    <glyph glyph-name="oslash" unicode="&#xf8;" horiz-adv-x="1408" 
d="M704 -29q-105 0 -189 18l-107 -204l-149 73l95 184q-11 6 -21 12q-69 39 -117.5 92.5t-78.5 116.5t-43.5 133t-13.5 142q0 71 13.5 140.5t43.5 133t78 117t117.5 93t161.5 62t210 22.5q104 0 188 -18l118 230l162 -86l-108 -204q6 -4 11 -7q70 -39 118 -92.5t78 -117
t43.5 -133t13.5 -140.5q0 -72 -13.5 -142t-43.5 -133t-78.5 -116.5t-117.5 -92.5t-161 -61t-210 -22zM512 538q0 -54 10 -106q4 -22 10 -42l221 430q-22 6 -49 6q-54 0 -90.5 -25t-59 -65.5t-32.5 -92t-10 -105.5zM704 251q54 0 90.5 24.5t59 65t32.5 92t10 105.5t-10 105
q-3 17 -8 32l-221 -419q21 -5 47 -5z" />
    <glyph glyph-name="ugrave" unicode="&#xf9;" horiz-adv-x="1517" 
d="M1361 0h-431l9 69q4 32 7 72t5 83q-30 -59 -75.5 -105.5t-100.5 -79.5t-117 -50.5t-125 -17.5q-78 0 -148 25.5t-123.5 81t-85 143t-31.5 211.5v647h432v-607q0 -62 11.5 -104t31.5 -68t46 -37.5t55 -11.5q34 0 68.5 14t63 38t49 56.5t27.5 69.5v650h432v-1079zM742 1219
l-256 634h448l96 -634h-288z" />
    <glyph glyph-name="uacute" unicode="&#xfa;" horiz-adv-x="1517" 
d="M1361 0h-431l9 69q4 32 7 72t5 83q-30 -59 -75.5 -105.5t-100.5 -79.5t-117 -50.5t-125 -17.5q-78 0 -148 25.5t-123.5 81t-85 143t-31.5 211.5v647h432v-607q0 -62 11.5 -104t31.5 -68t46 -37.5t55 -11.5q34 0 68.5 14t63 38t49 56.5t27.5 69.5v650h432v-1079zM486 1219
l96 634h448l-256 -634h-288z" />
    <glyph glyph-name="ucircumflex" unicode="&#xfb;" horiz-adv-x="1517" 
d="M1361 0h-431l9 69q4 32 7 72t5 83q-30 -59 -75.5 -105.5t-100.5 -79.5t-117 -50.5t-125 -17.5q-78 0 -148 25.5t-123.5 81t-85 143t-31.5 211.5v647h432v-607q0 -62 11.5 -104t31.5 -68t46 -37.5t55 -11.5q34 0 68.5 14t63 38t49 56.5t27.5 69.5v650h432v-1079zM908 1248
l-150 402l-150 -402h-300l200 544h500l200 -544h-300z" />
    <glyph glyph-name="udieresis" unicode="&#xfc;" horiz-adv-x="1517" 
d="M1361 0h-431l9 69q4 32 7 72t5 83q-30 -59 -75.5 -105.5t-100.5 -79.5t-117 -50.5t-125 -17.5q-78 0 -148 25.5t-123.5 81t-85 143t-31.5 211.5v647h432v-607q0 -62 11.5 -104t31.5 -68t46 -37.5t55 -11.5q34 0 68.5 14t63 38t49 56.5t27.5 69.5v650h432v-1079zM466 1197
q-51 0 -90 17.5t-65.5 46t-39.5 64.5t-13 74t13 74t39 64.5t65 45.5t91 17t91 -17t65 -45.5t39.5 -64.5t13.5 -74t-13.5 -74t-39.5 -64.5t-65 -46t-91 -17.5zM1049 1197q-51 0 -90 17.5t-65.5 46t-39.5 64.5t-13 74t13 74t39 64.5t65 45.5t91 17t91 -17t65 -45.5t39.5 -64.5
t13.5 -74t-13.5 -74t-39.5 -64.5t-65 -46t-91 -17.5z" />
    <glyph glyph-name="yacute" unicode="&#xfd;" horiz-adv-x="1453" 
d="M848 1079h432v-928q0 -113 -23 -203t-64 -160.5t-97.5 -121t-124.5 -83t-145 -48t-158 -15.5q-109 0 -219 11t-201 37l30 252q109 -26 182.5 -33t108.5 -7q100 0 159.5 29t90.5 89q15 30 24.5 59t15.5 60t8 64.5t2 74.5q-21 -38 -57 -67t-80 -49t-92.5 -30t-94.5 -10
q-80 0 -152 24.5t-127.5 77t-88 134.5t-32.5 196v647h384v-635q0 -50 14.5 -86.5t38 -60t53.5 -35t61 -11.5q29 0 56.5 9.5t48.5 28t34 45.5t13 62v683zM454 1219l96 634h448l-256 -634h-288z" />
    <glyph glyph-name="thorn" unicode="&#xfe;" horiz-adv-x="1487" 
d="M156 1414h448v-451q21 38 56.5 73t81.5 61.5t100.5 42.5t113.5 16q60 0 121.5 -15t118 -46t106.5 -79t86.5 -115.5t58 -155.5t21.5 -198t-21.5 -195.5t-58 -149.5t-86.5 -108t-106.5 -71.5t-118 -39.5t-121.5 -12q-59 0 -113.5 10.5t-100.5 31t-81.5 50.5t-56.5 68v-483
h-448v1766zM604 544q0 -77 16 -131t42.5 -89t61 -51.5t72.5 -16.5q18 0 42 1.5t49 10t49 26t42.5 49.5t30 81t11.5 123q0 71 -11.5 120t-30 81t-42.5 49.5t-49 26t-49 10t-42 1.5q-38 0 -72.5 -13.5t-61 -45t-42.5 -83.5t-16 -130v-19z" />
    <glyph glyph-name="ydieresis" unicode="&#xff;" horiz-adv-x="1453" 
d="M848 1079h432v-928q0 -113 -23 -203t-64 -160.5t-97.5 -121t-124.5 -83t-145 -48t-158 -15.5q-109 0 -219 11t-201 37l30 252q109 -26 182.5 -33t108.5 -7q100 0 159.5 29t90.5 89q15 30 24.5 59t15.5 60t8 64.5t2 74.5q-21 -38 -57 -67t-80 -49t-92.5 -30t-94.5 -10
q-80 0 -152 24.5t-127.5 77t-88 134.5t-32.5 196v647h384v-635q0 -50 14.5 -86.5t38 -60t53.5 -35t61 -11.5q29 0 56.5 9.5t48.5 28t34 45.5t13 62v683zM434 1197q-51 0 -90 17.5t-65.5 46t-39.5 64.5t-13 74t13 74t39 64.5t65 45.5t91 17t91 -17t65 -45.5t39.5 -64.5
t13.5 -74t-13.5 -74t-39.5 -64.5t-65 -46t-91 -17.5zM1017 1197q-51 0 -90 17.5t-65.5 46t-39.5 64.5t-13 74t13 74t39 64.5t65 45.5t91 17t91 -17t65 -45.5t39.5 -64.5t13.5 -74t-13.5 -74t-39.5 -64.5t-65 -46t-91 -17.5z" />
    <glyph glyph-name="Abreve" unicode="&#x102;" horiz-adv-x="1395" 
d="M1385 0h-534l-66 301h-351l-63 -301h-361l360 1414h626zM614 1194l-137 -659h286l-118 659h-31zM1069 1909q0 -92 -30.5 -157t-82 -107t-119 -61.5t-140.5 -19.5q-84 0 -152.5 19.5t-117 61.5t-75.5 107t-27 157h212q0 -34 13.5 -57t36 -36.5t51.5 -19.5t59 -6t58.5 6
t51 19.5t36.5 36.5t14 57h212z" />
    <glyph glyph-name="abreve" unicode="&#x103;" 
d="M416 -29q-64 0 -122.5 18t-103.5 55t-71.5 93.5t-26.5 133.5q0 74 24 128.5t64.5 93.5t95 64.5t115.5 40t125.5 20t125.5 5.5q42 0 81 -2t73 -5q-2 63 -24 104.5t-58 66t-84 34.5t-101 10q-49 0 -100.5 -6.5t-100.5 -16t-93.5 -20.5t-78.5 -20v280q49 11 105.5 21.5
t117.5 18.5t124.5 13t125.5 5q77 0 151.5 -9.5t141 -31.5t123 -59t97 -91.5t63.5 -128.5t23 -171v-615h-412v179q-24 -49 -67 -87.5t-97 -65.5t-115 -41t-121 -14zM585 206q28 0 64.5 15.5t69 47.5t55 81t22.5 117h-33q-48 0 -98.5 -10t-92.5 -30t-69 -49t-27 -67
q0 -30 10 -50t25.5 -32.5t35 -17.5t38.5 -5zM1053 1536q0 -92 -30.5 -157t-82 -107t-119 -61.5t-140.5 -19.5q-84 0 -152.5 19.5t-117 61.5t-75.5 107t-27 157h212q0 -34 13.5 -57t36 -36.5t51.5 -19.5t59 -6t58.5 6t51 19.5t36.5 36.5t14 57h212z" />
    <glyph glyph-name="Aogonek" unicode="&#x104;" horiz-adv-x="1401" 
d="M1385 0h-534l-66 301h-351l-63 -301h-361l360 1414h626zM614 1194l-137 -659h286l-118 659h-31zM1244 -672q-108 0 -196.5 29.5t-151.5 78.5t-97.5 112.5t-34.5 131.5q0 85 25 149t68 110t101 76t123.5 48t136 25t138.5 7v-95q-35 -8 -77 -23t-78 -43.5t-60.5 -74
t-24.5 -115.5q0 -29 11 -52.5t29 -40.5t41 -26t47 -9v-288z" />
    <glyph glyph-name="aogonek" unicode="&#x105;" 
d="M416 -29q-64 0 -122.5 18t-103.5 55t-71.5 93.5t-26.5 133.5q0 74 24 128.5t64.5 93.5t95 64.5t115.5 40t125.5 20t125.5 5.5q42 0 81 -2t73 -5q-2 63 -24 104.5t-58 66t-84 34.5t-101 10q-49 0 -100.5 -6.5t-100.5 -16t-93.5 -20.5t-78.5 -20v280q49 11 105.5 21.5
t117.5 18.5t124.5 13t125.5 5q77 0 151.5 -9.5t141 -31.5t123 -59t97 -91.5t63.5 -128.5t23 -171v-615h-412v179q-24 -49 -67 -87.5t-97 -65.5t-115 -41t-121 -14zM585 206q28 0 64.5 15.5t69 47.5t55 81t22.5 117h-33q-48 0 -98.5 -10t-92.5 -30t-69 -49t-27 -67
q0 -30 10 -50t25.5 -32.5t35 -17.5t38.5 -5zM1116 -672q-108 0 -196.5 29.5t-151.5 78.5t-97.5 112.5t-34.5 131.5q0 85 25 149t68 110t101 76t123.5 48t136 25t138.5 7v-95q-35 -8 -77 -23t-78 -43.5t-60.5 -74t-24.5 -115.5q0 -29 11 -52.5t29 -40.5t41 -26t47 -9v-288z
" />
    <glyph glyph-name="Cacute" unicode="&#x106;" horiz-adv-x="1427" 
d="M92 704q0 171 61.5 307.5t166.5 232t244 146.5t295 51q109 0 222 -21t225 -76l-62 -320q-88 48 -174 72t-158 24q-87 0 -156 -28.5t-117 -82.5t-73.5 -131t-25.5 -174t25.5 -174t73.5 -131t117 -82.5t156 -28.5q72 0 158 24t174 72l62 -320q-112 -54 -225 -73.5
t-222 -19.5q-156 0 -295 50.5t-244 145t-166.5 230.5t-61.5 307zM602 1536l96 634h448l-256 -634h-288z" />
    <glyph glyph-name="cacute" unicode="&#x107;" horiz-adv-x="1213" 
d="M512 538q0 -73 17.5 -127t49.5 -89.5t77 -53t101 -17.5q72 0 136 19.5t131 53.5l64 -260q-44 -23 -95 -40.5t-105 -29t-109.5 -17.5t-108.5 -6q-121 0 -228 34t-187.5 104t-127.5 177t-47 253t47 253t127.5 177t187.5 104t228 34q53 0 108.5 -6t109.5 -17.5t105 -29
t95 -40.5l-64 -260q-67 34 -131 53.5t-136 19.5q-56 0 -101 -17.5t-77 -53.5t-49.5 -90.5t-17.5 -127.5zM467 1219l96 634h448l-256 -634h-288z" />
    <glyph glyph-name="Ccaron" unicode="&#x10c;" horiz-adv-x="1427" 
d="M92 704q0 171 61.5 307.5t166.5 232t244 146.5t295 51q109 0 222 -21t225 -76l-62 -320q-88 48 -174 72t-158 24q-87 0 -156 -28.5t-117 -82.5t-73.5 -131t-25.5 -174t25.5 -174t73.5 -131t117 -82.5t156 -28.5q72 0 158 24t174 72l62 -320q-112 -54 -225 -73.5
t-222 -19.5q-156 0 -295 50.5t-244 145t-166.5 230.5t-61.5 307zM552 1580l-193 544h289l160 -381l160 381h289l-193 -544h-512z" />
    <glyph glyph-name="ccaron" unicode="&#x10d;" horiz-adv-x="1213" 
d="M512 538q0 -73 17.5 -127t49.5 -89.5t77 -53t101 -17.5q72 0 136 19.5t131 53.5l64 -260q-44 -23 -95 -40.5t-105 -29t-109.5 -17.5t-108.5 -6q-121 0 -228 34t-187.5 104t-127.5 177t-47 253t47 253t127.5 177t187.5 104t228 34q53 0 108.5 -6t109.5 -17.5t105 -29
t95 -40.5l-64 -260q-67 34 -131 53.5t-136 19.5q-56 0 -101 -17.5t-77 -53.5t-49.5 -90.5t-17.5 -127.5zM350 1248l-193 544h289l160 -381l160 381h289l-193 -544h-512z" />
    <glyph glyph-name="Dcaron" unicode="&#x10e;" horiz-adv-x="1539" 
d="M170 0v1414h492q182 0 327 -42.5t245.5 -129t154 -217t53.5 -306.5q0 -134 -27.5 -239.5t-78 -185.5t-122 -135.5t-158.5 -91t-187.5 -51.5t-210.5 -16h-488zM618 320h30q78 0 142 14.5t109.5 57.5t70 121t24.5 206q0 116 -22 193.5t-65 124t-106 66t-144 19.5h-39v-802z
M438 1586l-193 544h289l160 -381l160 381h289l-193 -544h-512z" />
    <glyph glyph-name="dcaron" unicode="&#x10f;" horiz-adv-x="2113" 
d="M571 -29q-98 0 -186.5 33t-155 102.5t-106 176.5t-39.5 255q0 156 40.5 264.5t106.5 176t151 97.5t175 30q57 0 114 -13t107 -36.5t90 -55.5t63 -70v605h432v-1536h-432v178q-27 -49 -66 -87.5t-86.5 -65t-100.5 -40.5t-107 -14zM516 537q0 -82 18 -137t47.5 -88.5
t67 -48t76.5 -14.5t76 14.5t66 48t46.5 89t17.5 137.5q0 81 -17.5 136.5t-46.5 89.5t-65.5 48.5t-75.5 14.5t-76.5 -14.5t-67.5 -48.5t-48 -89.5t-18 -137.5zM1763 1120q0 34 -13 58t-43 39.5t-79 23t-121 7.5v192h96q75 0 149 -18t133.5 -64.5t96.5 -128t37 -207.5
q0 -155 -69 -236.5t-206 -81.5q-68 0 -118.5 21.5t-84 56t-50 77.5t-16.5 85q0 41 14 79t39 66.5t58.5 45.5t72.5 17q51 0 104 -32z" />
    <glyph glyph-name="Dcroat" unicode="&#x110;" horiz-adv-x="1539" 
d="M170 0v1414h492q182 0 327 -42.5t245.5 -129t154 -217t53.5 -306.5q0 -134 -27.5 -239.5t-78 -185.5t-122 -135.5t-158.5 -91t-187.5 -51.5t-210.5 -16h-488zM618 320h30q78 0 142 14.5t109.5 57.5t70 121t24.5 206q0 116 -22 193.5t-65 124t-106 66t-144 19.5h-39v-802z
" />
    <glyph glyph-name="dcroat" unicode="&#x111;" horiz-adv-x="1519" 
d="M571 -29q-98 0 -186.5 33t-155 102.5t-106 176.5t-39.5 255q0 156 40.5 264.5t106.5 176t151 97.5t175 30q57 0 114 -13t107 -36.5t90 -55.5t63 -70v290h-242v193h242v122h432v-122h156v-193h-156v-1221h-432v178q-27 -49 -66 -87.5t-86.5 -65t-100.5 -40.5t-107 -14z
M516 537q0 -82 18 -137t47.5 -88.5t67 -48t76.5 -14.5t76 14.5t66 48t46.5 89t17.5 137.5q0 81 -17.5 136.5t-46.5 89.5t-65.5 48.5t-75.5 14.5t-76.5 -14.5t-67.5 -48.5t-48 -89.5t-18 -137.5z" />
    <glyph glyph-name="Eogonek" unicode="&#x118;" horiz-adv-x="1319" 
d="M171 1414h992v-262h-544v-299h480v-256h-480v-309h544v-288h-992v1414zM1051 -672q-108 0 -196.5 29.5t-151.5 78.5t-97.5 112.5t-34.5 131.5q0 85 25 149t68 110t101 76t123.5 48t136 25t138.5 7v-95q-35 -8 -77 -23t-78 -43.5t-60.5 -74t-24.5 -115.5q0 -29 11 -52.5
t29 -40.5t41 -26t47 -9v-288z" />
    <glyph glyph-name="eogonek" unicode="&#x119;" horiz-adv-x="1297" 
d="M1156 43q-94 -31 -203 -51.5t-227 -20.5q-129 0 -246 34t-206 106t-141.5 182.5t-52.5 263.5q0 87 27 161.5t73.5 135.5t109 108t134 79t147.5 48.5t149 16.5q115 0 203 -25.5t146.5 -68.5t88.5 -100t30 -121q0 -78 -26.5 -133t-71 -92.5t-103 -59t-123.5 -33
t-132.5 -14.5t-128.5 -3q-21 0 -40.5 0.5t-38.5 0.5q8 -57 31.5 -96t59 -63.5t82 -35t99.5 -10.5q40 0 85.5 6t92 16.5t93 24t89.5 28.5v-284zM515 611q24 1 61.5 3t79.5 7t84 14t76 23t55 35t21 51q0 51 -40.5 81.5t-112.5 30.5q-33 0 -71 -9.5t-71 -36.5t-56 -75t-26 -124
zM1044 -672q-108 0 -196.5 29.5t-151.5 78.5t-97.5 112.5t-34.5 131.5q0 85 25 149t68 110t101 76t123.5 48t136 25t138.5 7v-95q-35 -8 -77 -23t-78 -43.5t-60.5 -74t-24.5 -115.5q0 -29 11 -52.5t29 -40.5t41 -26t47 -9v-288z" />
    <glyph glyph-name="Ecaron" unicode="&#x11a;" horiz-adv-x="1319" 
d="M171 1414h992v-262h-544v-299h480v-256h-480v-309h544v-288h-992v1414zM403 1583l-193 544h289l160 -381l160 381h289l-193 -544h-512z" />
    <glyph glyph-name="ecaron" unicode="&#x11b;" horiz-adv-x="1297" 
d="M1156 43q-94 -31 -203 -51.5t-227 -20.5q-129 0 -246 34t-206 106t-141.5 182.5t-52.5 263.5q0 87 27 161.5t73.5 135.5t109 108t134 79t147.5 48.5t149 16.5q115 0 203 -25.5t146.5 -68.5t88.5 -100t30 -121q0 -78 -26.5 -133t-71 -92.5t-103 -59t-123.5 -33
t-132.5 -14.5t-128.5 -3q-21 0 -40.5 0.5t-38.5 0.5q8 -57 31.5 -96t59 -63.5t82 -35t99.5 -10.5q40 0 85.5 6t92 16.5t93 24t89.5 28.5v-284zM515 611q24 1 61.5 3t79.5 7t84 14t76 23t55 35t21 51q0 51 -40.5 81.5t-112.5 30.5q-33 0 -71 -9.5t-71 -36.5t-56 -75t-26 -124
zM392 1248l-193 544h289l160 -381l160 381h289l-193 -544h-512z" />
    <glyph glyph-name="hbar" unicode="&#x127;" horiz-adv-x="1485" 
d="M156 1536h432v-122h212v-193h-212v-290q28 39 72 71t97 55.5t112 36t118 12.5q73 0 137.5 -23.5t112.5 -75.5t75.5 -133.5t27.5 -196.5v-677h-432v570q0 75 -12.5 125t-32.5 80.5t-45.5 43t-51.5 12.5q-30 0 -59.5 -11.5t-54 -32.5t-41.5 -50t-23 -64v-673h-432v1221
h-156v193h156v122z" />
    <glyph glyph-name="Itilde" unicode="&#x128;" horiz-adv-x="790" 
d="M171 1414h448v-1414h-448v1414zM580 1618q-49 0 -99.5 22t-101 48.5t-99 48.5t-93.5 22q-33 0 -55 -32t-28 -104l-235 50q17 93 48.5 163t72.5 117.5t89 71.5t99 24q53 0 108 -22t109.5 -48.5t107 -48.5t101.5 -22q34 0 57 32t29 104l235 -50q-20 -93 -55 -163
t-81 -117.5t-99.5 -71.5t-109.5 -24z" />
    <glyph glyph-name="itilde" unicode="&#x129;" horiz-adv-x="670" 
d="M162 1079h432v-1079h-432v1079zM520 1245q-49 0 -99.5 22t-101 48.5t-99 48.5t-93.5 22q-33 0 -55 -32t-28 -104l-235 50q17 93 48.5 163t72.5 117.5t89 71.5t99 24q53 0 108 -22t109.5 -48.5t107 -48.5t101.5 -22q34 0 57 32t29 104l235 -50q-20 -93 -55 -163
t-81 -117.5t-99.5 -71.5t-109.5 -24z" />
    <glyph glyph-name="dotlessi" unicode="&#x131;" horiz-adv-x="761" 
d="M162 1079h432v-1079h-432v1079z" />
    <glyph glyph-name="IJ" unicode="&#x132;" horiz-adv-x="1784" 
d="M171 1414h448v-1414h-448v1414zM1133 -29q-91 0 -175.5 13t-144.5 51v285q67 -21 124.5 -26.5t99.5 -5.5q45 0 70.5 18.5t38.5 47.5t16 65.5t3 72.5v922h448v-985q0 -120 -42 -206.5t-109.5 -142.5t-154 -82.5t-174.5 -26.5z" />
    <glyph glyph-name="ij" unicode="&#x133;" horiz-adv-x="1538" 
d="M162 1079h432v-1079h-432v1079zM379 1301q-57 0 -107 12t-86.5 33t-58 51t-21.5 66q0 40 21 70.5t58 50.5t87 30t108 10t108.5 -10t87.5 -30t58 -50.5t21 -70.5q0 -36 -21.5 -66t-58.5 -51t-87.5 -33t-108.5 -12zM966 -416q-79 0 -152 4.5t-136 27.5v287q28 -9 47.5 -15
t35.5 -9.5t30 -5t31 -1.5q42 0 67.5 16.5t39 43.5t17.5 62t4 73v1012h432v-1035q0 -132 -33.5 -220.5t-90.5 -141.5t-132.5 -75.5t-159.5 -22.5zM1156 1318q-57 0 -107 12t-86.5 33t-58 51t-21.5 66q0 40 21 70.5t58 50.5t87 30t108 10t108.5 -10t87.5 -30t58 -50.5
t21 -70.5q0 -36 -21.5 -66t-58.5 -51t-87.5 -33t-108.5 -12z" />
    <glyph glyph-name="Jcircumflex" unicode="&#x134;" horiz-adv-x="994" 
d="M343 -29q-91 0 -175.5 13t-144.5 51v285q67 -21 124.5 -26.5t99.5 -5.5q45 0 70.5 18.5t38.5 47.5t16 65.5t3 72.5v922h448v-985q0 -120 -42 -206.5t-109.5 -142.5t-154 -82.5t-174.5 -26.5zM693 1566l-150 402l-150 -402h-300l200 544h500l200 -544h-300z" />
    <glyph glyph-name="jcircumflex" unicode="&#x135;" horiz-adv-x="777" 
d="M205 -416q-79 0 -152 4.5t-136 27.5v287q28 -9 47.5 -15t35.5 -9.5t30 -5t31 -1.5q42 0 67.5 16.5t39 43.5t17.5 62t4 73v1012h432v-1035q0 -132 -33.5 -220.5t-90.5 -141.5t-132.5 -75.5t-159.5 -22.5zM541 1248l-150 402l-150 -402h-300l200 544h500l200 -544h-300z
" />
    <glyph glyph-name="kcommaaccent" unicode="&#x137;" horiz-adv-x="1405" 
d="M984 1079h443l-411 -508l431 -571h-500l-325 509l-34 -35v-474h-432v1536h432v-938zM729 -673q-66 -36 -115 -36q-39 0 -72.5 17t-58.5 45.5t-39 66.5t-14 79q0 42 16.5 85t50 77.5t84 56t118.5 21.5q137 0 206 -81.5t69 -236.5q0 -126 -37 -207.5t-96.5 -128
t-133.5 -64.5t-149 -18h-96v192q93 0 146.5 8t80.5 24.5t33.5 41.5t6.5 58z" />
    <glyph glyph-name="kgreenlandic" unicode="&#x138;" horiz-adv-x="1405" 
d="M984 1079h443l-411 -528l431 -551h-500l-325 489l-34 -35v-454h-432v1079h432v-501z" />
    <glyph glyph-name="Lacute" unicode="&#x139;" horiz-adv-x="1150" 
d="M170 1414h448v-1126h480v-288h-928v1414zM305 1536l96 634h448l-256 -634h-288z" />
    <glyph glyph-name="lacute" unicode="&#x13a;" horiz-adv-x="744" 
d="M156 1441h432v-1441h-432v1441zM200 1536l96 634h448l-256 -634h-288z" />
    <glyph glyph-name="Lcaron" unicode="&#x13d;" horiz-adv-x="1323" 
d="M170 1414h448v-1126h480v-288h-928v1414zM1031 1455q0 34 -13 58t-43 39.5t-79 23t-121 7.5v192h96q75 0 149 -18t133.5 -64.5t96.5 -128t37 -207.5q0 -155 -69 -236.5t-206 -81.5q-68 0 -118.5 21.5t-84 56t-50 77.5t-16.5 85q0 41 14 79t39 66.5t58.5 45.5t72.5 17
q51 0 104 -32z" />
    <glyph glyph-name="lcaron" unicode="&#x13e;" horiz-adv-x="1194" 
d="M156 1536h432v-1536h-432v1536zM1030 1120q0 34 -13 58t-43 39.5t-79 23t-121 7.5v192h96q75 0 149 -18t133.5 -64.5t96.5 -128t37 -207.5q0 -155 -69 -236.5t-206 -81.5q-68 0 -118.5 21.5t-84 56t-50 77.5t-16.5 85q0 41 14 79t39 66.5t58.5 45.5t72.5 17q51 0 104 -32
z" />
    <glyph glyph-name="Ldotaccent" unicode="&#x13f;" horiz-adv-x="1707" 
 />
    <glyph glyph-name="ldot" unicode="&#x140;" horiz-adv-x="744" 
d="M156 1536h432v-1536h-432v1536z" />
    <glyph glyph-name="Lslash" unicode="&#x141;" horiz-adv-x="1303" 
d="M170 1414h448v-395l229 81v-300l-229 -81v-431h480v-288h-928v560l-171 -60v300l171 60v554z" />
    <glyph glyph-name="lslash" unicode="&#x142;" horiz-adv-x="756" 
d="M156 1536h432v-497l142 61v-300l-142 -61v-739h-432v554l-126 -54v300l126 54v682z" />
    <glyph glyph-name="Nacute" unicode="&#x143;" horiz-adv-x="1654" 
d="M170 1414h433l538 -710v710h342v-1414h-444l-530 752v-752h-339v1414zM555 1537l96 634h448l-256 -634h-288z" />
    <glyph glyph-name="nacute" unicode="&#x144;" horiz-adv-x="1572" 
d="M156 1079h432q-6 -34 -12 -87.5t-6 -110.5q34 51 85.5 92.5t113.5 71t131.5 45.5t140.5 16q78 0 148 -23.5t123 -74.5t84 -132.5t31 -197.5v-678h-432v615q0 62 -13 103t-36 65t-54.5 34t-68.5 10q-40 0 -79 -13.5t-71 -36.5t-55 -54t-30 -66v-657h-432v1079zM514 1219
l96 634h448l-256 -634h-288z" />
    <glyph glyph-name="Ncaron" unicode="&#x147;" horiz-adv-x="1654" 
d="M170 1414h433l538 -710v710h342v-1414h-444l-530 752v-752h-339v1414zM571 1585l-193 544h289l160 -381l160 381h289l-193 -544h-512z" />
    <glyph glyph-name="ncaron" unicode="&#x148;" horiz-adv-x="1572" 
d="M156 1079h432q-6 -34 -12 -87.5t-6 -110.5q34 51 85.5 92.5t113.5 71t131.5 45.5t140.5 16q78 0 148 -23.5t123 -74.5t84 -132.5t31 -197.5v-678h-432v615q0 62 -13 103t-36 65t-54.5 34t-68.5 10q-40 0 -79 -13.5t-71 -36.5t-55 -54t-30 -66v-657h-432v1079zM530 1248
l-193 544h289l160 -381l160 381h289l-193 -544h-512z" />
    <glyph glyph-name="Ohungarumlaut" unicode="&#x150;" horiz-adv-x="1593" 
d="M795 -29q-131 0 -234 28.5t-181.5 79t-133 120t-89 151t-50 171.5t-15.5 183q0 92 19 182.5t57 172.5t96 152t136 121t176.5 80t218.5 29t218.5 -29t177 -80t136.5 -121t96.5 -152t57.5 -172.5t19 -182.5q0 -93 -16 -183t-50.5 -171.5t-89.5 -151t-133 -120t-181.5 -79
t-234.5 -28.5zM540 704q0 -120 17.5 -205t50 -139t80 -79t107.5 -25t107.5 25t81 79t51 139t17.5 205t-17.5 205.5t-51 140t-81 80.5t-107.5 26t-107.5 -26t-80 -80.5t-50 -140t-17.5 -205.5zM465 1553v544h384l-224 -544h-160zM913 1553v544h384l-224 -544h-160z" />
    <glyph glyph-name="ohungarumlaut" unicode="&#x151;" horiz-adv-x="1408" 
d="M704 -29q-118 0 -210 22t-161 61t-117.5 92.5t-78.5 116.5t-43.5 133t-13.5 142q0 71 13.5 140.5t43.5 133t78 117t117.5 93t161.5 62t210 22.5t210 -22.5t161.5 -62t117.5 -93t78 -117t43.5 -133t13.5 -140.5q0 -72 -13.5 -142t-43.5 -133t-78.5 -116.5t-117.5 -92.5
t-161 -61t-210 -22zM512 538q0 -54 10 -105.5t32.5 -92t59 -65t90.5 -24.5t90.5 24.5t59 65t32.5 92t10 105.5t-10 105.5t-32.5 92t-59 65.5t-90.5 25t-90.5 -25t-59 -65.5t-32.5 -92t-10 -105.5zM288 1248v544h384l-224 -544h-160zM736 1248v544h384l-224 -544h-160z" />
    <glyph glyph-name="OE" unicode="&#x152;" horiz-adv-x="2055" 
d="M992 1414h932v-262h-484v-299h420v-256h-420v-309h484v-288h-932v22q-78 -26 -148 -38.5t-135 -12.5q-100 0 -184.5 27t-153 75.5t-120.5 116.5t-87.5 149.5t-53.5 174t-18 190.5q0 149 44 282.5t125 234.5t195 160.5t255 59.5q133 0 281 -59v32zM540 704
q0 -110 21.5 -194t62.5 -140.5t99 -85t132 -28.5q37 0 72 6t65 20v848q-30 14 -65 20t-72 6q-74 0 -132 -29.5t-99 -86.5t-62.5 -141.5t-21.5 -194.5z" />
    <glyph glyph-name="oe" unicode="&#x153;" horiz-adv-x="2092" 
d="M704 -29q-118 0 -210 22t-161 61t-117.5 92.5t-78.5 116.5t-43.5 133t-13.5 142q0 71 13.5 140.5t43.5 133t78 117t117.5 93t161.5 62t210 22.5q146 0 251.5 -33.5t179.5 -90.5q90 61 194.5 92.5t207.5 31.5q115 0 203 -25.5t146.5 -68.5t88.5 -100t30 -121
q0 -78 -26.5 -133t-71 -92.5t-103 -59t-123.5 -33t-132.5 -14.5t-128.5 -3q-21 0 -40.5 0.5t-38.5 0.5q8 -57 31.5 -96t59 -63.5t82 -35t99.5 -10.5q40 0 85.5 6t92 16.5t93 24t89.5 28.5v-284q-94 -31 -203 -51.5t-227 -20.5t-225 28t-193 87q-73 -54 -176.5 -84.5
t-244.5 -30.5zM512 538q0 -54 10 -105.5t32.5 -92t59 -65t90.5 -24.5t90.5 24.5t59 65t32.5 92t10 105.5t-10 105.5t-32.5 92t-59 65.5t-90.5 25t-90.5 -25t-59 -65.5t-32.5 -92t-10 -105.5zM1332 611q24 1 61.5 3t79.5 7t84 14t76 23t55 35t21 51q0 51 -40.5 81.5
t-112.5 30.5q-33 0 -71 -9.5t-71 -36.5t-56 -75t-26 -124z" />
    <glyph glyph-name="Racute" unicode="&#x154;" horiz-adv-x="1456" 
d="M170 1414h636q151 0 266 -39.5t191.5 -104t115.5 -146t39 -164.5q0 -65 -13 -128.5t-46 -120t-90.5 -102t-146.5 -73.5q13 -42 44 -104t72 -134t88 -149t92 -149h-512q-43 97 -88 217.5t-72 262.5h-128v-480h-448v1414zM694 704q76 0 128.5 20t85.5 52t47.5 72t14.5 80
q0 79 -22 129t-60 78.5t-88 38.5t-107 10h-75v-480h76zM456 1536l96 634h448l-256 -634h-288z" />
    <glyph glyph-name="racute" unicode="&#x155;" horiz-adv-x="1050" 
d="M156 1079h411q-2 -26 -3 -57.5t-1 -66v-69.5v-67q20 49 52 100.5t75.5 92.5t99 67.5t124.5 26.5q13 0 28.5 -1.5t30.5 -4.5t28.5 -7.5t22.5 -10.5l-35 -412q-45 17 -95 25.5t-87 8.5q-51 0 -89.5 -12.5t-65.5 -32.5t-42.5 -44t-21.5 -47v-568h-432v1079zM255 1219l96 634
h448l-256 -634h-288z" />
    <glyph glyph-name="Rcommaaccent" unicode="&#x156;" horiz-adv-x="1456" 
d="M170 1414h636q151 0 266 -39.5t191.5 -104t115.5 -146t39 -164.5q0 -65 -13 -128.5t-46 -120t-90.5 -102t-146.5 -73.5q13 -42 44 -104t72 -134t88 -149t92 -149h-512q-43 97 -88 217.5t-72 262.5h-128v-480h-448v1414zM694 704q76 0 128.5 20t85.5 52t47.5 72t14.5 80
q0 79 -22 129t-60 78.5t-88 38.5t-107 10h-75v-480h76zM790 -552q-66 -36 -115 -36q-39 0 -72.5 17t-58.5 45.5t-39 66.5t-14 79q0 42 16.5 85t50 77.5t84 56t118.5 21.5q137 0 206 -81.5t69 -236.5q0 -126 -37 -207.5t-96.5 -128t-133.5 -64.5t-149 -18h-96v192
q93 0 146.5 8t80.5 24.5t33.5 41.5t6.5 58z" />
    <glyph glyph-name="rcommaaccent" unicode="&#x157;" horiz-adv-x="1050" 
d="M156 1079h411q-2 -26 -3 -57.5t-1 -66v-69.5v-67q20 49 52 100.5t75.5 92.5t99 67.5t124.5 26.5q13 0 28.5 -1.5t30.5 -4.5t28.5 -7.5t22.5 -10.5l-35 -412q-45 17 -95 25.5t-87 8.5q-51 0 -89.5 -12.5t-65.5 -32.5t-42.5 -44t-21.5 -47v-568h-432v1079zM552 -552
q-66 -36 -115 -36q-39 0 -72.5 17t-58.5 45.5t-39 66.5t-14 79q0 42 16.5 85t50 77.5t84 56t118.5 21.5q137 0 206 -81.5t69 -236.5q0 -126 -37 -207.5t-96.5 -128t-133.5 -64.5t-149 -18h-96v192q93 0 146.5 8t80.5 24.5t33.5 41.5t6.5 58z" />
    <glyph glyph-name="Rcaron" unicode="&#x158;" horiz-adv-x="1456" 
d="M170 1414h636q151 0 266 -39.5t191.5 -104t115.5 -146t39 -164.5q0 -65 -13 -128.5t-46 -120t-90.5 -102t-146.5 -73.5q13 -42 44 -104t72 -134t88 -149t92 -149h-512q-43 97 -88 217.5t-72 262.5h-128v-480h-448v1414zM694 704q76 0 128.5 20t85.5 52t47.5 72t14.5 80
q0 79 -22 129t-60 78.5t-88 38.5t-107 10h-75v-480h76zM472 1577l-193 544h289l160 -381l160 381h289l-193 -544h-512z" />
    <glyph glyph-name="rcaron" unicode="&#x159;" horiz-adv-x="1050" 
d="M156 1079h411q-2 -26 -3 -57.5t-1 -66v-69.5v-67q20 49 52 100.5t75.5 92.5t99 67.5t124.5 26.5q13 0 28.5 -1.5t30.5 -4.5t28.5 -7.5t22.5 -10.5l-35 -412q-45 17 -95 25.5t-87 8.5q-51 0 -89.5 -12.5t-65.5 -32.5t-42.5 -44t-21.5 -47v-568h-432v1079zM271 1248
l-193 544h289l160 -381l160 381h289l-193 -544h-512z" />
    <glyph glyph-name="Sacute" unicode="&#x15a;" horiz-adv-x="1491" 
d="M1183 1047q-41 18 -95.5 36.5t-114 33.5t-120.5 24.5t-115 9.5q-94 0 -147 -24t-53 -81q0 -27 18.5 -47.5t52.5 -38t81.5 -34t105.5 -34.5l73 -23q92 -28 165 -67.5t123.5 -93t77.5 -122.5t27 -157q0 -103 -32.5 -187.5t-101.5 -144.5t-176.5 -93t-258.5 -33
q-134 0 -266.5 22t-267.5 77v330q129 -66 250.5 -96.5t239.5 -30.5q97 0 141.5 31t44.5 86q0 33 -16.5 56.5t-53 43.5t-95.5 40.5t-143 46.5q-84 25 -155.5 63t-123.5 91.5t-81.5 124.5t-29.5 162q0 94 33 172t101 133.5t172.5 86.5t248.5 31q57 0 121 -5t130.5 -15
t131.5 -26t123 -38zM622 1537l96 634h448l-256 -634h-288z" />
    <glyph glyph-name="sacute" unicode="&#x15b;" horiz-adv-x="1228" 
d="M500 1219l96 634h448l-256 -634h-288zM996 756q-100 46 -195.5 71.5t-167.5 25.5q-76 0 -108 -14.5t-32 -50.5q0 -32 47 -50.5t138 -42.5t163 -53t122.5 -72t77 -103t26.5 -147q0 -78 -30 -142.5t-91 -110.5t-154 -71t-219 -25q-112 0 -225 16.5t-228 58.5v309
q103 -45 207 -72t198 -27q169 0 169 70q0 12 -8 22t-29.5 19.5t-60 20t-98.5 25.5q-83 20 -156.5 51.5t-128 77t-86 106.5t-31.5 139q0 70 29.5 129t89 101t148 65.5t205.5 23.5q68 0 130.5 -6t118.5 -14.5t104.5 -18t89.5 -17.5z" />
    <glyph glyph-name="Scedilla" unicode="&#x15e;" horiz-adv-x="1448" 
d="M1179 1047q-41 18 -95.5 36.5t-114 33.5t-120.5 24.5t-115 9.5q-94 0 -147 -24t-53 -81q0 -27 18.5 -47.5t52.5 -38t81.5 -34t105.5 -34.5l73 -23q92 -28 165 -67.5t123.5 -93t77.5 -122.5t27 -157q0 -103 -32.5 -187.5t-101.5 -144.5t-176.5 -93t-258.5 -33
q-134 0 -266.5 22t-267.5 77v330q129 -66 250.5 -96.5t239.5 -30.5q97 0 141.5 31t44.5 86q0 33 -16.5 56.5t-53 43.5t-95.5 40.5t-143 46.5q-84 25 -155.5 63t-123.5 91.5t-81.5 124.5t-29.5 162q0 94 33 172t101 133.5t172.5 86.5t248.5 31q57 0 121 -5t130.5 -15
t131.5 -26t123 -38zM534 0h200v-100q86 0 152 -29t110.5 -76.5t67.5 -108t23 -124.5q0 -65 -24.5 -128t-75.5 -112.5t-128.5 -79.5t-182.5 -30q-33 0 -68.5 3.5t-73.5 10.5v296q51 -9 91 -9q39 0 68.5 11t49 28.5t29.5 40t10 46.5q0 23 -9.5 45t-28 39.5t-47 28t-66.5 10.5
q-45 0 -97 -18v256z" />
    <glyph glyph-name="scedilla" unicode="&#x15f;" horiz-adv-x="1156" 
d="M996 756q-100 46 -195.5 71.5t-167.5 25.5q-76 0 -108 -14.5t-32 -50.5q0 -32 47 -50.5t138 -42.5t163 -53t122.5 -72t77 -103t26.5 -147q0 -78 -30 -142.5t-91 -110.5t-154 -71t-219 -25q-112 0 -225 16.5t-228 58.5v309q103 -45 207 -72t198 -27q169 0 169 70
q0 12 -8 22t-29.5 19.5t-60 20t-98.5 25.5q-83 20 -156.5 51.5t-128 77t-86 106.5t-31.5 139q0 70 29.5 129t89 101t148 65.5t205.5 23.5q68 0 130.5 -6t118.5 -14.5t104.5 -18t89.5 -17.5zM393 0h200v-100q86 0 152 -29t110.5 -76.5t67.5 -108t23 -124.5q0 -65 -24.5 -128
t-75.5 -112.5t-128.5 -79.5t-182.5 -30q-33 0 -68.5 3.5t-73.5 10.5v296q51 -9 91 -9q39 0 68.5 11t49 28.5t29.5 40t10 46.5q0 23 -9.5 45t-28 39.5t-47 28t-66.5 10.5q-45 0 -97 -18v256z" />
    <glyph glyph-name="Scaron" unicode="&#x160;" horiz-adv-x="1448" 
d="M1179 1047q-41 18 -95.5 36.5t-114 33.5t-120.5 24.5t-115 9.5q-94 0 -147 -24t-53 -81q0 -27 18.5 -47.5t52.5 -38t81.5 -34t105.5 -34.5l73 -23q92 -28 165 -67.5t123.5 -93t77.5 -122.5t27 -157q0 -103 -32.5 -187.5t-101.5 -144.5t-176.5 -93t-258.5 -33
q-134 0 -266.5 22t-267.5 77v330q129 -66 250.5 -96.5t239.5 -30.5q97 0 141.5 31t44.5 86q0 33 -16.5 56.5t-53 43.5t-95.5 40.5t-143 46.5q-84 25 -155.5 63t-123.5 91.5t-81.5 124.5t-29.5 162q0 94 33 172t101 133.5t172.5 86.5t248.5 31q57 0 121 -5t130.5 -15
t131.5 -26t123 -38zM462 1563l-193 544h289l160 -381l160 381h289l-193 -544h-512z" />
    <glyph glyph-name="scaron" unicode="&#x161;" horiz-adv-x="1200" 
d="M996 756q-100 46 -195.5 71.5t-167.5 25.5q-76 0 -108 -14.5t-32 -50.5q0 -32 47 -50.5t138 -42.5t163 -53t122.5 -72t77 -103t26.5 -147q0 -78 -30 -142.5t-91 -110.5t-154 -71t-219 -25q-112 0 -225 16.5t-228 58.5v309q103 -45 207 -72t198 -27q169 0 169 70
q0 12 -8 22t-29.5 19.5t-60 20t-98.5 25.5q-83 20 -156.5 51.5t-128 77t-86 106.5t-31.5 139q0 70 29.5 129t89 101t148 65.5t205.5 23.5q68 0 130.5 -6t118.5 -14.5t104.5 -18t89.5 -17.5zM350 1248l-193 544h289l160 -381l160 381h289l-193 -544h-512z" />
    <glyph glyph-name="Tcommaaccent" unicode="&#x162;" horiz-adv-x="1116" 
d="M330 0v1088h-320v326h1095v-326h-327v-1088h-448zM570 -552q-66 -36 -115 -36q-39 0 -72.5 17t-58.5 45.5t-39 66.5t-14 79q0 42 16.5 85t50 77.5t84 56t118.5 21.5q137 0 206 -81.5t69 -236.5q0 -126 -37 -207.5t-96.5 -128t-133.5 -64.5t-149 -18h-96v192q93 0 146.5 8
t80.5 24.5t33.5 41.5t6.5 58z" />
    <glyph glyph-name="tcommaaccent" unicode="&#x163;" horiz-adv-x="1053" 
d="M693 -29q-93 0 -178 22.5t-149.5 76t-103 142t-38.5 220.5v399h-199v65l471 512h160v-329h320q-12 -60 -21.5 -121t-10.5 -127h-288v-395q0 -36 5.5 -69.5t22.5 -59t49 -41t85 -15.5q34 0 75 6.5t93 24.5l24 -259q-63 -23 -144.5 -37.5t-172.5 -14.5zM608 -552
q-66 -36 -115 -36q-39 0 -72.5 17t-58.5 45.5t-39 66.5t-14 79q0 42 16.5 85t50 77.5t84 56t118.5 21.5q137 0 206 -81.5t69 -236.5q0 -126 -37 -207.5t-96.5 -128t-133.5 -64.5t-149 -18h-96v192q93 0 146.5 8t80.5 24.5t33.5 41.5t6.5 58z" />
    <glyph glyph-name="Tcaron" unicode="&#x164;" horiz-adv-x="1411" 
d="M330 0v1088h-320v326h1095v-326h-327v-1088h-448zM390 1583l-193 544h289l160 -381l160 381h289l-193 -544h-512z" />
    <glyph glyph-name="tcaron" unicode="&#x165;" horiz-adv-x="1018" 
d="M693 -29q-93 0 -178 22.5t-149.5 76t-103 142t-38.5 220.5v399h-199v65l471 512h160v-329h320q-12 -60 -21.5 -121t-10.5 -127h-288v-395q0 -36 5.5 -69.5t22.5 -59t49 -41t85 -15.5q34 0 75 6.5t93 24.5l24 -259q-63 -23 -144.5 -37.5t-172.5 -14.5zM1475 1120
q0 34 -13 58t-43 39.5t-79 23t-121 7.5v192h96q75 0 149 -18t133.5 -64.5t96.5 -128t37 -207.5q0 -155 -69 -236.5t-206 -81.5q-68 0 -118.5 21.5t-84 56t-50 77.5t-16.5 85q0 41 14 79t39 66.5t58.5 45.5t72.5 17q51 0 104 -32z" />
    <glyph glyph-name="Uring" unicode="&#x16e;" horiz-adv-x="1579" 
d="M810 -29q-149 0 -267.5 43.5t-201.5 131t-127 219.5t-44 309v740h448v-742q0 -99 10 -176t34 -130.5t64 -81.5t100 -28q66 0 106.5 28t63 81.5t30.5 130.5t8 176v742h374v-740q0 -178 -35 -310t-108.5 -219.5t-186 -130.5t-268.5 -43zM693 1781q0 -42 25.5 -69t70.5 -27
t70.5 27t25.5 69t-25.5 69t-70.5 27t-70.5 -27t-25.5 -69zM565 1781q0 37 14.5 72t43 61.5t70.5 42.5t96 16t96 -16t70.5 -42.5t43 -61.5t14.5 -72q0 -38 -14.5 -72.5t-43 -61t-70.5 -42.5t-96 -16t-96 16t-70.5 42.5t-43 61t-14.5 72.5z" />
    <glyph glyph-name="uring" unicode="&#x16f;" horiz-adv-x="1517" 
d="M1361 0h-431l9 69q4 32 7 72t5 83q-30 -59 -75.5 -105.5t-100.5 -79.5t-117 -50.5t-125 -17.5q-78 0 -148 25.5t-123.5 81t-85 143t-31.5 211.5v647h432v-607q0 -62 11.5 -104t31.5 -68t46 -37.5t55 -11.5q34 0 68.5 14t63 38t49 56.5t27.5 69.5v650h432v-1079zM662 1408
q0 -42 25.5 -69t70.5 -27t70.5 27t25.5 69t-25.5 69t-70.5 27t-70.5 -27t-25.5 -69zM534 1408q0 37 14.5 72t43 61.5t70.5 42.5t96 16t96 -16t70.5 -42.5t43 -61.5t14.5 -72q0 -38 -14.5 -72.5t-43 -61t-70.5 -42.5t-96 -16t-96 16t-70.5 42.5t-43 61t-14.5 72.5z" />
    <glyph glyph-name="Uhungarumlaut" unicode="&#x170;" horiz-adv-x="1579" 
d="M810 -29q-149 0 -267.5 43.5t-201.5 131t-127 219.5t-44 309v740h448v-742q0 -99 10 -176t34 -130.5t64 -81.5t100 -28q66 0 106.5 28t63 81.5t30.5 130.5t8 176v742h374v-740q0 -178 -35 -310t-108.5 -219.5t-186 -130.5t-268.5 -43zM373 1572v544h384l-224 -544h-160z
M821 1572v544h384l-224 -544h-160z" />
    <glyph glyph-name="uhungarumlaut" unicode="&#x171;" horiz-adv-x="1517" 
d="M1361 0h-431l9 69q4 32 7 72t5 83q-30 -59 -75.5 -105.5t-100.5 -79.5t-117 -50.5t-125 -17.5q-78 0 -148 25.5t-123.5 81t-85 143t-31.5 211.5v647h432v-607q0 -62 11.5 -104t31.5 -68t46 -37.5t55 -11.5q34 0 68.5 14t63 38t49 56.5t27.5 69.5v650h432v-1079zM342 1248
v544h384l-224 -544h-160zM790 1248v544h384l-224 -544h-160z" />
    <glyph glyph-name="Ydieresis" unicode="&#x178;" horiz-adv-x="1235" 
d="M414 0v486l-437 928h514l172 -509l158 509h436l-395 -915v-499h-448zM328 1570q-51 0 -90 17.5t-65.5 46t-39.5 64.5t-13 74t13 74t39 64.5t65 45.5t91 17t91 -17t65 -45.5t39.5 -64.5t13.5 -74t-13.5 -74t-39.5 -64.5t-65 -46t-91 -17.5zM911 1570q-51 0 -90 17.5
t-65.5 46t-39.5 64.5t-13 74t13 74t39 64.5t65 45.5t91 17t91 -17t65 -45.5t39.5 -64.5t13.5 -74t-13.5 -74t-39.5 -64.5t-65 -46t-91 -17.5z" />
    <glyph glyph-name="Zacute" unicode="&#x179;" horiz-adv-x="1510" 
d="M980 1414v-326l-416 -768h403v-320h-883v317l483 771h-469v326h882zM460 1554l96 634h448l-256 -634h-288z" />
    <glyph glyph-name="zacute" unicode="&#x17a;" horiz-adv-x="1201" 
d="M590 271h387q-12 -63 -18.5 -129.5t-6.5 -141.5h-868v271l380 561h-380l25 247h843v-253zM492 1219l96 634h448l-256 -634h-288z" />
    <glyph glyph-name="Zdotaccent" unicode="&#x17b;" horiz-adv-x="1510" 
d="M980 1414v-326l-416 -768h403v-320h-883v317l483 771h-469v326h882zM460 1536q-70 0 -122 19.5t-86.5 52t-51.5 73.5t-17 85q0 45 18 88.5t53 78t87 55.5t120 21t120 -21t87.5 -55.5t53.5 -77.5t18 -88q0 -44 -17 -85.5t-52 -74t-87.5 -52t-123.5 -19.5z" />
    <glyph glyph-name="zdotaccent" unicode="&#x17c;" horiz-adv-x="1067" 
d="M590 271h387q-12 -63 -18.5 -129.5t-6.5 -141.5h-868v271l380 561h-380l25 247h843v-253zM485 1206q-70 0 -122 19.5t-86.5 52t-51.5 73.5t-17 85q0 45 18 88.5t53 78t87 55.5t120 21t120 -21t87.5 -55.5t53.5 -77.5t18 -88q0 -44 -17 -85.5t-52 -74t-87.5 -52
t-123.5 -19.5z" />
    <glyph glyph-name="Zcaron" unicode="&#x17d;" horiz-adv-x="1468" 
d="M980 1414v-326l-416 -768h403v-320h-883v317l483 771h-469v326h882zM316 1563l-193 544h289l160 -381l160 381h289l-193 -544h-512z" />
    <glyph glyph-name="zcaron" unicode="&#x17e;" horiz-adv-x="1176" 
d="M590 271h387q-12 -63 -18.5 -129.5t-6.5 -141.5h-868v271l380 561h-380l25 247h843v-253zM331 1248l-193 544h289l160 -381l160 381h289l-193 -544h-512z" />
    <glyph glyph-name="florin" unicode="&#x192;" horiz-adv-x="1099" 
d="M690 32q0 -133 -36.5 -223t-96.5 -145t-137 -78.5t-158 -23.5q-70 0 -137.5 14t-118.5 37q0 2 1.5 23t4 51.5t5 66t5 66.5t4 52t1.5 23q63 -22 105 -22q47 0 77.5 15.5t48.5 41t25 58.5t7 69v781h-147v272h147v191q0 127 36.5 212.5t95.5 138t135 75t155 22.5h7
q88 0 167 -17.5t142 -43.5q0 -2 -1.5 -23t-4 -52t-5 -66.5t-5 -66t-4 -51.5t-1.5 -23q-51 15 -92 23.5t-73 8.5q-54 0 -84.5 -20.5t-45.5 -54.5t-18.5 -78t-3.5 -90v-85h309q-10 -54 -17.5 -120.5t-7.5 -151.5h-284v-806z" />
    <glyph glyph-name="uni0200" unicode="&#x200;" horiz-adv-x="1395" 
d="M1385 0h-534l-66 301h-351l-63 -301h-361l360 1414h626zM614 1194l-137 -659h286l-118 659h-31zM844 1577l-224 544h384v-544h-160zM396 1577l-224 544h384v-544h-160z" />
    <glyph glyph-name="uni0201" unicode="&#x201;" 
d="M416 -29q-64 0 -122.5 18t-103.5 55t-71.5 93.5t-26.5 133.5q0 74 24 128.5t64.5 93.5t95 64.5t115.5 40t125.5 20t125.5 5.5q42 0 81 -2t73 -5q-2 63 -24 104.5t-58 66t-84 34.5t-101 10q-49 0 -100.5 -6.5t-100.5 -16t-93.5 -20.5t-78.5 -20v280q49 11 105.5 21.5
t117.5 18.5t124.5 13t125.5 5q77 0 151.5 -9.5t141 -31.5t123 -59t97 -91.5t63.5 -128.5t23 -171v-615h-412v179q-24 -49 -67 -87.5t-97 -65.5t-115 -41t-121 -14zM585 206q28 0 64.5 15.5t69 47.5t55 81t22.5 117h-33q-48 0 -98.5 -10t-92.5 -30t-69 -49t-27 -67
q0 -30 10 -50t25.5 -32.5t35 -17.5t38.5 -5zM937 1248l-224 544h384v-544h-160zM489 1248l-224 544h384v-544h-160z" />
    <glyph glyph-name="uni0202" unicode="&#x202;" horiz-adv-x="1395" 
d="M1385 0h-534l-66 301h-351l-63 -301h-361l360 1414h626zM614 1194l-137 -659h286l-118 659h-31zM857 1573q0 34 -14 57t-36.5 36.5t-51 19.5t-58.5 6t-59 -6t-51.5 -19.5t-36 -36.5t-13.5 -57h-212q0 91 27 156.5t75.5 107.5t117 61.5t152.5 19.5q73 0 140.5 -19.5
t119 -61.5t82 -107.5t30.5 -156.5h-212z" />
    <glyph glyph-name="uni0203" unicode="&#x203;" 
d="M416 -29q-64 0 -122.5 18t-103.5 55t-71.5 93.5t-26.5 133.5q0 74 24 128.5t64.5 93.5t95 64.5t115.5 40t125.5 20t125.5 5.5q42 0 81 -2t73 -5q-2 63 -24 104.5t-58 66t-84 34.5t-101 10q-49 0 -100.5 -6.5t-100.5 -16t-93.5 -20.5t-78.5 -20v280q49 11 105.5 21.5
t117.5 18.5t124.5 13t125.5 5q77 0 151.5 -9.5t141 -31.5t123 -59t97 -91.5t63.5 -128.5t23 -171v-615h-412v179q-24 -49 -67 -87.5t-97 -65.5t-115 -41t-121 -14zM585 206q28 0 64.5 15.5t69 47.5t55 81t22.5 117h-33q-48 0 -98.5 -10t-92.5 -30t-69 -49t-27 -67
q0 -30 10 -50t25.5 -32.5t35 -17.5t38.5 -5zM841 1200q0 34 -14 57t-36.5 36.5t-51 19.5t-58.5 6t-59 -6t-51.5 -19.5t-36 -36.5t-13.5 -57h-212q0 91 27 156.5t75.5 107.5t117 61.5t152.5 19.5q73 0 140.5 -19.5t119 -61.5t82 -107.5t30.5 -156.5h-212z" />
    <glyph glyph-name="uni0204" unicode="&#x204;" horiz-adv-x="1319" 
d="M171 1414h992v-262h-544v-299h480v-256h-480v-309h544v-288h-992v1414zM875 1577l-224 544h384v-544h-160zM427 1577l-224 544h384v-544h-160z" />
    <glyph glyph-name="uni0205" unicode="&#x205;" horiz-adv-x="1297" 
d="M1156 43q-94 -31 -203 -51.5t-227 -20.5q-129 0 -246 34t-206 106t-141.5 182.5t-52.5 263.5q0 87 27 161.5t73.5 135.5t109 108t134 79t147.5 48.5t149 16.5q115 0 203 -25.5t146.5 -68.5t88.5 -100t30 -121q0 -78 -26.5 -133t-71 -92.5t-103 -59t-123.5 -33
t-132.5 -14.5t-128.5 -3q-21 0 -40.5 0.5t-38.5 0.5q8 -57 31.5 -96t59 -63.5t82 -35t99.5 -10.5q40 0 85.5 6t92 16.5t93 24t89.5 28.5v-284zM515 611q24 1 61.5 3t79.5 7t84 14t76 23t55 35t21 51q0 51 -40.5 81.5t-112.5 30.5q-33 0 -71 -9.5t-71 -36.5t-56 -75t-26 -124
zM904 1248l-224 544h384v-544h-160zM456 1248l-224 544h384v-544h-160z" />
    <glyph glyph-name="uni0206" unicode="&#x206;" horiz-adv-x="1319" 
d="M171 1414h992v-262h-544v-299h480v-256h-480v-309h544v-288h-992v1414zM819 1573q0 34 -14 57t-36.5 36.5t-51 19.5t-58.5 6t-59 -6t-51.5 -19.5t-36 -36.5t-13.5 -57h-212q0 91 27 156.5t75.5 107.5t117 61.5t152.5 19.5q73 0 140.5 -19.5t119 -61.5t82 -107.5
t30.5 -156.5h-212z" />
    <glyph glyph-name="uni0207" unicode="&#x207;" horiz-adv-x="1297" 
d="M1156 43q-94 -31 -203 -51.5t-227 -20.5q-129 0 -246 34t-206 106t-141.5 182.5t-52.5 263.5q0 87 27 161.5t73.5 135.5t109 108t134 79t147.5 48.5t149 16.5q115 0 203 -25.5t146.5 -68.5t88.5 -100t30 -121q0 -78 -26.5 -133t-71 -92.5t-103 -59t-123.5 -33
t-132.5 -14.5t-128.5 -3q-21 0 -40.5 0.5t-38.5 0.5q8 -57 31.5 -96t59 -63.5t82 -35t99.5 -10.5q40 0 85.5 6t92 16.5t93 24t89.5 28.5v-284zM515 611q24 1 61.5 3t79.5 7t84 14t76 23t55 35t21 51q0 51 -40.5 81.5t-112.5 30.5q-33 0 -71 -9.5t-71 -36.5t-56 -75t-26 -124
zM886 1200q0 34 -14 57t-36.5 36.5t-51 19.5t-58.5 6t-59 -6t-51.5 -19.5t-36 -36.5t-13.5 -57h-212q0 91 27 156.5t75.5 107.5t117 61.5t152.5 19.5q73 0 140.5 -19.5t119 -61.5t82 -107.5t30.5 -156.5h-212z" />
    <glyph glyph-name="uni0208" unicode="&#x208;" horiz-adv-x="790" 
d="M171 1414h448v-1414h-448v1414zM631 1577l-224 544h384v-544h-160zM183 1577l-224 544h384v-544h-160z" />
    <glyph glyph-name="uni0209" unicode="&#x209;" horiz-adv-x="670" 
d="M162 1079h432v-1079h-432v1079zM593 1248l-224 544h384v-544h-160zM145 1248l-224 544h384v-544h-160z" />
    <glyph glyph-name="uni020A" unicode="&#x20a;" horiz-adv-x="790" 
d="M171 1414h448v-1414h-448v1414zM557 1573q0 34 -14 57t-36.5 36.5t-51 19.5t-58.5 6t-59 -6t-51.5 -19.5t-36 -36.5t-13.5 -57h-212q0 91 27 156.5t75.5 107.5t117 61.5t152.5 19.5q73 0 140.5 -19.5t119 -61.5t82 -107.5t30.5 -156.5h-212z" />
    <glyph glyph-name="uni020B" unicode="&#x20b;" horiz-adv-x="761" 
d="M162 1079h432v-1079h-432v1079zM543 1200q0 34 -14 57t-36.5 36.5t-51 19.5t-58.5 6t-59 -6t-51.5 -19.5t-36 -36.5t-13.5 -57h-212q0 91 27 156.5t75.5 107.5t117 61.5t152.5 19.5q73 0 140.5 -19.5t119 -61.5t82 -107.5t30.5 -156.5h-212z" />
    <glyph glyph-name="uni020C" unicode="&#x20c;" horiz-adv-x="1593" 
d="M795 -29q-131 0 -234 28.5t-181.5 79t-133 120t-89 151t-50 171.5t-15.5 183q0 92 19 182.5t57 172.5t96 152t136 121t176.5 80t218.5 29t218.5 -29t177 -80t136.5 -121t96.5 -152t57.5 -172.5t19 -182.5q0 -93 -16 -183t-50.5 -171.5t-89.5 -151t-133 -120t-181.5 -79
t-234.5 -28.5zM540 704q0 -120 17.5 -205t50 -139t80 -79t107.5 -25t107.5 25t81 79t51 139t17.5 205t-17.5 205.5t-51 140t-81 80.5t-107.5 26t-107.5 -26t-80 -80.5t-50 -140t-17.5 -205.5zM983 1577l-224 544h384v-544h-160zM535 1577l-224 544h384v-544h-160z" />
    <glyph glyph-name="uni020D" unicode="&#x20d;" horiz-adv-x="1408" 
d="M704 -29q-118 0 -210 22t-161 61t-117.5 92.5t-78.5 116.5t-43.5 133t-13.5 142q0 71 13.5 140.5t43.5 133t78 117t117.5 93t161.5 62t210 22.5t210 -22.5t161.5 -62t117.5 -93t78 -117t43.5 -133t13.5 -140.5q0 -72 -13.5 -142t-43.5 -133t-78.5 -116.5t-117.5 -92.5
t-161 -61t-210 -22zM512 538q0 -54 10 -105.5t32.5 -92t59 -65t90.5 -24.5t90.5 24.5t59 65t32.5 92t10 105.5t-10 105.5t-32.5 92t-59 65.5t-90.5 25t-90.5 -25t-59 -65.5t-32.5 -92t-10 -105.5zM960 1248l-224 544h384v-544h-160zM512 1248l-224 544h384v-544h-160z" />
    <glyph glyph-name="uni020E" unicode="&#x20e;" horiz-adv-x="1593" 
d="M795 -29q-131 0 -234 28.5t-181.5 79t-133 120t-89 151t-50 171.5t-15.5 183q0 92 19 182.5t57 172.5t96 152t136 121t176.5 80t218.5 29t218.5 -29t177 -80t136.5 -121t96.5 -152t57.5 -172.5t19 -182.5q0 -93 -16 -183t-50.5 -171.5t-89.5 -151t-133 -120t-181.5 -79
t-234.5 -28.5zM540 704q0 -120 17.5 -205t50 -139t80 -79t107.5 -25t107.5 25t81 79t51 139t17.5 205t-17.5 205.5t-51 140t-81 80.5t-107.5 26t-107.5 -26t-80 -80.5t-50 -140t-17.5 -205.5zM956 1573q0 34 -14 57t-36.5 36.5t-51 19.5t-58.5 6t-59 -6t-51.5 -19.5
t-36 -36.5t-13.5 -57h-212q0 91 27 156.5t75.5 107.5t117 61.5t152.5 19.5q73 0 140.5 -19.5t119 -61.5t82 -107.5t30.5 -156.5h-212z" />
    <glyph glyph-name="uni020F" unicode="&#x20f;" horiz-adv-x="1408" 
d="M704 -29q-118 0 -210 22t-161 61t-117.5 92.5t-78.5 116.5t-43.5 133t-13.5 142q0 71 13.5 140.5t43.5 133t78 117t117.5 93t161.5 62t210 22.5t210 -22.5t161.5 -62t117.5 -93t78 -117t43.5 -133t13.5 -140.5q0 -72 -13.5 -142t-43.5 -133t-78.5 -116.5t-117.5 -92.5
t-161 -61t-210 -22zM512 538q0 -54 10 -105.5t32.5 -92t59 -65t90.5 -24.5t90.5 24.5t59 65t32.5 92t10 105.5t-10 105.5t-32.5 92t-59 65.5t-90.5 25t-90.5 -25t-59 -65.5t-32.5 -92t-10 -105.5zM864 1200q0 34 -14 57t-36.5 36.5t-51 19.5t-58.5 6t-59 -6t-51.5 -19.5
t-36 -36.5t-13.5 -57h-212q0 91 27 156.5t75.5 107.5t117 61.5t152.5 19.5q73 0 140.5 -19.5t119 -61.5t82 -107.5t30.5 -156.5h-212z" />
    <glyph glyph-name="uni0210" unicode="&#x210;" horiz-adv-x="1456" 
d="M170 1414h636q151 0 266 -39.5t191.5 -104t115.5 -146t39 -164.5q0 -65 -13 -128.5t-46 -120t-90.5 -102t-146.5 -73.5q13 -42 44 -104t72 -134t88 -149t92 -149h-512q-43 97 -88 217.5t-72 262.5h-128v-480h-448v1414zM694 704q76 0 128.5 20t85.5 52t47.5 72t14.5 80
q0 79 -22 129t-60 78.5t-88 38.5t-107 10h-75v-480h76zM903 1577l-224 544h384v-544h-160zM455 1577l-224 544h384v-544h-160z" />
    <glyph glyph-name="uni0211" unicode="&#x211;" horiz-adv-x="1050" 
d="M156 1079h411q-2 -26 -3 -57.5t-1 -66v-69.5v-67q20 49 52 100.5t75.5 92.5t99 67.5t124.5 26.5q13 0 28.5 -1.5t30.5 -4.5t28.5 -7.5t22.5 -10.5l-35 -412q-45 17 -95 25.5t-87 8.5q-51 0 -89.5 -12.5t-65.5 -32.5t-42.5 -44t-21.5 -47v-568h-432v1079zM783 1248
l-224 544h384v-544h-160zM335 1248l-224 544h384v-544h-160z" />
    <glyph glyph-name="uni0212" unicode="&#x212;" horiz-adv-x="1456" 
d="M170 1414h636q151 0 266 -39.5t191.5 -104t115.5 -146t39 -164.5q0 -65 -13 -128.5t-46 -120t-90.5 -102t-146.5 -73.5q13 -42 44 -104t72 -134t88 -149t92 -149h-512q-43 97 -88 217.5t-72 262.5h-128v-480h-448v1414zM694 704q76 0 128.5 20t85.5 52t47.5 72t14.5 80
q0 79 -22 129t-60 78.5t-88 38.5t-107 10h-75v-480h76zM888 1573q0 34 -14 57t-36.5 36.5t-51 19.5t-58.5 6t-59 -6t-51.5 -19.5t-36 -36.5t-13.5 -57h-212q0 91 27 156.5t75.5 107.5t117 61.5t152.5 19.5q73 0 140.5 -19.5t119 -61.5t82 -107.5t30.5 -156.5h-212z" />
    <glyph glyph-name="uni0213" unicode="&#x213;" horiz-adv-x="1050" 
d="M156 1079h411q-2 -26 -3 -57.5t-1 -66v-69.5v-67q20 49 52 100.5t75.5 92.5t99 67.5t124.5 26.5q13 0 28.5 -1.5t30.5 -4.5t28.5 -7.5t22.5 -10.5l-35 -412q-45 17 -95 25.5t-87 8.5q-51 0 -89.5 -12.5t-65.5 -32.5t-42.5 -44t-21.5 -47v-568h-432v1079zM687 1200
q0 34 -14 57t-36.5 36.5t-51 19.5t-58.5 6t-59 -6t-51.5 -19.5t-36 -36.5t-13.5 -57h-212q0 91 27 156.5t75.5 107.5t117 61.5t152.5 19.5q73 0 140.5 -19.5t119 -61.5t82 -107.5t30.5 -156.5h-212z" />
    <glyph glyph-name="uni0214" unicode="&#x214;" horiz-adv-x="1579" 
d="M810 -29q-149 0 -267.5 43.5t-201.5 131t-127 219.5t-44 309v740h448v-742q0 -99 10 -176t34 -130.5t64 -81.5t100 -28q66 0 106.5 28t63 81.5t30.5 130.5t8 176v742h374v-740q0 -178 -35 -310t-108.5 -219.5t-186 -130.5t-268.5 -43zM969 1577l-224 544h384v-544h-160z
M521 1577l-224 544h384v-544h-160z" />
    <glyph glyph-name="uni0215" unicode="&#x215;" horiz-adv-x="1517" 
d="M1361 0h-431l9 69q4 32 7 72t5 83q-30 -59 -75.5 -105.5t-100.5 -79.5t-117 -50.5t-125 -17.5q-78 0 -148 25.5t-123.5 81t-85 143t-31.5 211.5v647h432v-607q0 -62 11.5 -104t31.5 -68t46 -37.5t55 -11.5q34 0 68.5 14t63 38t49 56.5t27.5 69.5v650h432v-1079z
M1014 1248l-224 544h384v-544h-160zM566 1248l-224 544h384v-544h-160z" />
    <glyph glyph-name="uni0216" unicode="&#x216;" horiz-adv-x="1579" 
d="M810 -29q-149 0 -267.5 43.5t-201.5 131t-127 219.5t-44 309v740h448v-742q0 -99 10 -176t34 -130.5t64 -81.5t100 -28q66 0 106.5 28t63 81.5t30.5 130.5t8 176v742h374v-740q0 -178 -35 -310t-108.5 -219.5t-186 -130.5t-268.5 -43zM949 1573q0 34 -14 57t-36.5 36.5
t-51 19.5t-58.5 6t-59 -6t-51.5 -19.5t-36 -36.5t-13.5 -57h-212q0 91 27 156.5t75.5 107.5t117 61.5t152.5 19.5q73 0 140.5 -19.5t119 -61.5t82 -107.5t30.5 -156.5h-212z" />
    <glyph glyph-name="uni0217" unicode="&#x217;" horiz-adv-x="1517" 
d="M1361 0h-431l9 69q4 32 7 72t5 83q-30 -59 -75.5 -105.5t-100.5 -79.5t-117 -50.5t-125 -17.5q-78 0 -148 25.5t-123.5 81t-85 143t-31.5 211.5v647h432v-607q0 -62 11.5 -104t31.5 -68t46 -37.5t55 -11.5q34 0 68.5 14t63 38t49 56.5t27.5 69.5v650h432v-1079zM918 1200
q0 34 -14 57t-36.5 36.5t-51 19.5t-58.5 6t-59 -6t-51.5 -19.5t-36 -36.5t-13.5 -57h-212q0 91 27 156.5t75.5 107.5t117 61.5t152.5 19.5q73 0 140.5 -19.5t119 -61.5t82 -107.5t30.5 -156.5h-212z" />
    <glyph glyph-name="uni0218" unicode="&#x218;" horiz-adv-x="1707" 
 />
    <glyph glyph-name="uni0219" unicode="&#x219;" horiz-adv-x="1707" 
 />
    <glyph glyph-name="uni021A" unicode="&#x21a;" horiz-adv-x="1116" 
d="M330 0v1088h-320v326h1095v-326h-327v-1088h-448zM585 -673q-66 -36 -115 -36q-39 0 -72.5 17t-58.5 45.5t-39 66.5t-14 79q0 42 16.5 85t50 77.5t84 56t118.5 21.5q137 0 206 -81.5t69 -236.5q0 -126 -37 -207.5t-96.5 -128t-133.5 -64.5t-149 -18h-96v192q93 0 146.5 8
t80.5 24.5t33.5 41.5t6.5 58z" />
    <glyph glyph-name="uni021B" unicode="&#x21b;" horiz-adv-x="1053" 
d="M693 -29q-93 0 -178 22.5t-149.5 76t-103 142t-38.5 220.5v399h-199v65l471 512h160v-329h320q-12 -60 -21.5 -121t-10.5 -127h-288v-395q0 -36 5.5 -69.5t22.5 -59t49 -41t85 -15.5q34 0 75 6.5t93 24.5l24 -259q-63 -23 -144.5 -37.5t-172.5 -14.5zM553 -673
q-66 -36 -115 -36q-39 0 -72.5 17t-58.5 45.5t-39 66.5t-14 79q0 42 16.5 85t50 77.5t84 56t118.5 21.5q137 0 206 -81.5t69 -236.5q0 -126 -37 -207.5t-96.5 -128t-133.5 -64.5t-149 -18h-96v192q93 0 146.5 8t80.5 24.5t33.5 41.5t6.5 58z" />
    <glyph glyph-name="dotlessj" unicode="&#x237;" horiz-adv-x="777" 
d="M205 -416q-79 0 -152 4.5t-136 27.5v287q28 -9 47.5 -15t35.5 -9.5t30 -5t31 -1.5q42 0 67.5 16.5t39 43.5t17.5 62t4 73v1012h432v-1035q0 -132 -33.5 -220.5t-90.5 -141.5t-132.5 -75.5t-159.5 -22.5z" />
    <glyph glyph-name="circumflex" unicode="&#x2c6;" horiz-adv-x="1146" 
d="M723 1248l-150 402l-150 -402h-300l200 544h500l200 -544h-300z" />
    <glyph glyph-name="caron" unicode="&#x2c7;" horiz-adv-x="1144" 
d="M316 1248l-193 544h289l160 -381l160 381h289l-193 -544h-512z" />
    <glyph glyph-name="breve" unicode="&#x2d8;" horiz-adv-x="1064" 
d="M904 1536q0 -92 -30.5 -157t-82 -107t-119 -61.5t-140.5 -19.5q-84 0 -152.5 19.5t-117 61.5t-75.5 107t-27 157h212q0 -34 13.5 -57t36 -36.5t51.5 -19.5t59 -6t58.5 6t51 19.5t36.5 36.5t14 57h212z" />
    <glyph glyph-name="dotaccent" unicode="&#x2d9;" horiz-adv-x="954" 
d="M505 0q-70 0 -122 19.5t-86.5 52t-51.5 73.5t-17 85q0 45 18 88.5t53 78t87 55.5t120 21t120 -21t87.5 -55.5t53.5 -77.5t18 -88q0 -44 -17 -85.5t-52 -74t-87.5 -52t-123.5 -19.5z" />
    <glyph glyph-name="ring" unicode="&#x2da;" horiz-adv-x="857" 
d="M335 1408q0 -42 25.5 -69t70.5 -27t70.5 27t25.5 69t-25.5 69t-70.5 27t-70.5 -27t-25.5 -69zM207 1408q0 37 14.5 72t43 61.5t70.5 42.5t96 16t96 -16t70.5 -42.5t43 -61.5t14.5 -72q0 -38 -14.5 -72.5t-43 -61t-70.5 -42.5t-96 -16t-96 16t-70.5 42.5t-43 61
t-14.5 72.5z" />
    <glyph glyph-name="ogonek" unicode="&#x2db;" horiz-adv-x="967" 
d="M789 -672q-108 0 -196.5 29.5t-151.5 78.5t-97.5 112.5t-34.5 131.5q0 85 25 149t68 110t101 76t123.5 48t136 25t138.5 7v-95q-35 -8 -77 -23t-78 -43.5t-60.5 -74t-24.5 -115.5q0 -29 11 -52.5t29 -40.5t41 -26t47 -9v-288z" />
    <glyph glyph-name="tilde" unicode="&#x2dc;" horiz-adv-x="1356" 
d="M861 1245q-49 0 -99.5 22t-101 48.5t-99 48.5t-93.5 22q-33 0 -55 -32t-28 -104l-235 50q17 93 48.5 163t72.5 117.5t89 71.5t99 24q53 0 108 -22t109.5 -48.5t107 -48.5t101.5 -22q34 0 57 32t29 104l235 -50q-20 -93 -55 -163t-81 -117.5t-99.5 -71.5t-109.5 -24z" />
    <glyph glyph-name="hungarumlaut" unicode="&#x2dd;" horiz-adv-x="1146" 
d="M174 1248v544h384l-224 -544h-160zM622 1248v544h384l-224 -544h-160z" />
    <glyph glyph-name="dotaccentcmb" unicode="&#x307;" horiz-adv-x="954" 
d="M483 0q-70 0 -122 19.5t-86.5 52t-51.5 73.5t-17 85q0 45 18 88.5t53 78t87 55.5t120 21t120 -21t87.5 -55.5t53.5 -77.5t18 -88q0 -44 -17 -85.5t-52 -74t-87.5 -52t-123.5 -19.5z" />
    <glyph glyph-name="uni030F" unicode="&#x30f;" horiz-adv-x="1181" 
d="M846 1248l-224 544h384v-544h-160zM398 1248l-224 544h384v-544h-160z" />
    <glyph glyph-name="uni0311" unicode="&#x311;" horiz-adv-x="1064" 
d="M692 1200q0 34 -14 57t-36.5 36.5t-51 19.5t-58.5 6t-59 -6t-51.5 -19.5t-36 -36.5t-13.5 -57h-212q0 91 27 156.5t75.5 107.5t117 61.5t152.5 19.5q73 0 140.5 -19.5t119 -61.5t82 -107.5t30.5 -156.5h-212z" />
    <glyph glyph-name="uni0326" unicode="&#x326;" horiz-adv-x="832" 
d="M397 -673q-66 -36 -115 -36q-39 0 -72.5 17t-58.5 45.5t-39 66.5t-14 79q0 42 16.5 85t50 77.5t84 56t118.5 21.5q137 0 206 -81.5t69 -236.5q0 -126 -37 -207.5t-96.5 -128t-133.5 -64.5t-149 -18h-96v192q93 0 146.5 8t80.5 24.5t33.5 41.5t6.5 58z" />
    <glyph glyph-name="uni03A9" unicode="&#x3a9;" horiz-adv-x="1642" 
 />
    <glyph glyph-name="pi" unicode="&#x3c0;" horiz-adv-x="1315" 
d="M48 1079h1217v-1079h-427v791h-404v-791h-386v1079z" />
    <glyph glyph-name="endash" unicode="&#x2013;" horiz-adv-x="800" 
d="M800 832v-320h-800v320h800z" />
    <glyph glyph-name="emdash" unicode="&#x2014;" horiz-adv-x="2048" 
d="M992 832v-320h-992v320h992z" />
    <glyph glyph-name="quoteleft" unicode="&#x2018;" horiz-adv-x="849" 
d="M446 1024q0 -34 13 -58t43 -39.5t79 -23t121 -7.5v-192h-96q-75 0 -149 18t-133.5 64.5t-96.5 128t-37 207.5q0 155 69 236.5t206 81.5q68 0 118.5 -21.5t84 -56t50 -77.5t16.5 -85q0 -41 -14 -79t-39 -66.5t-58.5 -45.5t-72.5 -17q-51 0 -104 32z" />
    <glyph glyph-name="quoteright" unicode="&#x2019;" horiz-adv-x="748" 
d="M405 1120q0 34 -13 58t-43 39.5t-79 23t-121 7.5v192h96q75 0 149 -18t133.5 -64.5t96.5 -128t37 -207.5q0 -155 -69 -236.5t-206 -81.5q-68 0 -118.5 21.5t-84 56t-50 77.5t-16.5 85q0 41 14 79t39 66.5t58.5 45.5t72.5 17q51 0 104 -32z" />
    <glyph glyph-name="quotesinglbase" unicode="&#x201a;" horiz-adv-x="745" 
d="M133 98h320l-60 -626h-200z" />
    <glyph glyph-name="quotedblleft" unicode="&#x201c;" horiz-adv-x="1309" 
d="M1054 1024q0 -34 13 -58t43 -39.5t79 -23t121 -7.5v-192h-96q-75 0 -149 18t-133.5 64.5t-96.5 128t-37 207.5q0 155 69 236.5t206 81.5q68 0 118.5 -21.5t84 -56t50 -77.5t16.5 -85q0 -41 -14 -79t-39 -66.5t-58.5 -45.5t-72.5 -17q-51 0 -104 32zM446 1024
q0 -34 13 -58t43 -39.5t79 -23t121 -7.5v-192h-96q-75 0 -149 18t-133.5 64.5t-96.5 128t-37 207.5q0 155 69 236.5t206 81.5q68 0 118.5 -21.5t84 -56t50 -77.5t16.5 -85q0 -41 -14 -79t-39 -66.5t-58.5 -45.5t-72.5 -17q-51 0 -104 32z" />
    <glyph glyph-name="quotedblright" unicode="&#x201d;" horiz-adv-x="1309" 
d="M1098 1120q0 34 -13 58t-43 39.5t-79 23t-121 7.5v192h96q75 0 149 -18t133.5 -64.5t96.5 -128t37 -207.5q0 -155 -69 -236.5t-206 -81.5q-68 0 -118.5 21.5t-84 56t-50 77.5t-16.5 85q0 41 14 79t39 66.5t58.5 45.5t72.5 17q51 0 104 -32zM458 1120q0 34 -13 58
t-43 39.5t-79 23t-121 7.5v192h96q75 0 149 -18t133.5 -64.5t96.5 -128t37 -207.5q0 -155 -69 -236.5t-206 -81.5q-68 0 -118.5 21.5t-84 56t-50 77.5t-16.5 85q0 41 14 79t39 66.5t58.5 45.5t72.5 17q51 0 104 -32z" />
    <glyph glyph-name="quotedblbase" unicode="&#x201e;" horiz-adv-x="997" 
d="M549 100h320l-60 -626h-200zM133 100h320l-60 -626h-200z" />
    <glyph glyph-name="dagger" unicode="&#x2020;" horiz-adv-x="898" 
d="M49 900v256h200v258h400v-258h200v-256h-200v-900h-400v900h-200z" />
    <glyph glyph-name="daggerdbl" unicode="&#x2021;" horiz-adv-x="894" 
d="M47 320v256h200v275h-200v256h200v307h400v-307h200v-256h-200v-275h200v-256h-200v-320h-400v320h-200z" />
    <glyph glyph-name="bullet" unicode="&#x2022;" horiz-adv-x="1253" 
d="M560 300q-74 0 -129 25.5t-92 67t-55 94.5t-18 109q0 57 18.5 111t55.5 97t92 69t128 26t127.5 -26t91.5 -68.5t55.5 -97t18.5 -110.5t-18 -109.5t-55 -95t-92 -67t-128 -25.5z" />
    <glyph glyph-name="ellipsis" unicode="&#x2026;" horiz-adv-x="2168" 
d="M1744 -27q-69 0 -121 19t-86 50.5t-51 72t-17 82.5q0 44 18 86.5t52.5 76t86 54t119.5 20.5q67 0 119 -20.5t86.5 -54t52.5 -76t18 -85.5t-17 -83.5t-51.5 -72t-86.5 -50.5t-122 -19zM422 -27q-69 0 -121 19t-86 50.5t-51 72t-17 82.5q0 44 18 86.5t52.5 76t86 54
t119.5 20.5q67 0 119 -20.5t86.5 -54t52.5 -76t18 -85.5t-17 -83.5t-51.5 -72t-86.5 -50.5t-122 -19zM1090 -27q-69 0 -121 19t-86 50.5t-51 72t-17 82.5q0 44 18 86.5t52.5 76t86 54t119.5 20.5q67 0 119 -20.5t86.5 -54t52.5 -76t18 -85.5t-17 -83.5t-51.5 -72
t-86.5 -50.5t-122 -19z" />
    <glyph glyph-name="perthousand" unicode="&#x2030;" horiz-adv-x="3917" 
d="M566 285q-94 0 -168.5 23t-131 63.5t-96 96t-64 120.5t-36 136.5t-11.5 144.5q0 71 11 141.5t36 134t64 118t95.5 94t131 62t169.5 22.5q142 0 239 -49t156.5 -129.5t85.5 -183.5t26 -210q0 -73 -11.5 -144.5t-36 -136.5t-64 -120.5t-96 -96t-131 -63.5t-168.5 -23z
M566 522q41 0 72 29.5t51.5 78t31 110.5t10.5 127q0 64 -10.5 126t-31 110.5t-51.5 78t-72 29.5t-72 -29.5t-52 -78t-31.5 -110.5t-10.5 -126q0 -65 10.5 -127t31 -110.5t51.5 -78t73 -29.5zM2252 -29q-95 0 -169 23t-130.5 63.5t-96 96t-64 120.5t-36 136.5t-11.5 144.5
q0 72 11 142t36 133.5t64 118t95.5 94t131 62t169.5 22.5q142 0 239 -49t156.5 -129.5t85.5 -183.5t26 -210q0 -73 -11.5 -144.5t-36 -136.5t-64 -120.5t-96 -96t-131 -63.5t-168.5 -23zM2252 208q41 0 72 29.5t51.5 78t31 110.5t10.5 127q0 64 -10.5 126t-31 110.5
t-51.5 78t-72 29.5t-72 -29.5t-52 -78t-31.5 -110.5t-10.5 -126q0 -65 10.5 -127t31 -110.5t51.5 -78t73 -29.5zM1878 1441l-524 -1441h-417l499 1441h442zM3367 -29q-95 0 -169 23t-130.5 63.5t-96 96t-64 120.5t-36 136.5t-11.5 144.5q0 72 11 142t36 133.5t64 118
t95.5 94t131 62t169.5 22.5q142 0 239 -49t156.5 -129.5t85.5 -183.5t26 -210q0 -73 -11.5 -144.5t-36 -136.5t-64 -120.5t-96 -96t-131 -63.5t-168.5 -23zM3367 208q41 0 72 29.5t51.5 78t31 110.5t10.5 127q0 64 -10.5 126t-31 110.5t-51.5 78t-72 29.5t-72 -29.5t-52 -78
t-31.5 -110.5t-10.5 -126q0 -65 10.5 -127t31 -110.5t51.5 -78t73 -29.5z" />
    <glyph glyph-name="guilsinglleft" unicode="&#x2039;" horiz-adv-x="811" 
d="M743 200l-600 400v300l600 400v-400l-328 -150l328 -150v-400z" />
    <glyph glyph-name="guilsinglright" unicode="&#x203a;" horiz-adv-x="811" 
d="M174 600l328 150l-328 150v400l600 -400v-300l-600 -400v400z" />
    <glyph glyph-name="fraction" unicode="&#x2044;" horiz-adv-x="541" 
d="M741 1441l-524 -1441h-417l499 1441h442z" />
    <glyph glyph-name="foursuperior" unicode="&#x2074;" horiz-adv-x="1421" 
d="M1089 748h175v-239h-175v-204h-442v204h-502v239l348 666h596v-666zM683 1195l-241 -447h265v447h-24z" />
    <glyph glyph-name="Euro" unicode="&#x20ac;" horiz-adv-x="1409" 
d="M794 643v-175h-203q19 -38 48 -69q48 -54 116.5 -82.5t156.5 -28.5q72 0 158 24t174 72l62 -320q-112 -54 -225 -73.5t-222 -19.5q-118 0 -225.5 28.5t-199 83t-163.5 134t-118 180.5q-8 17 -14.5 34.5t-12.5 36.5h-169v175h137q-1 15 -1.5 30t-0.5 31v34h-135v175h161
q13 50 35 98q45 102 117 182t164 135t200 83.5t225 29.5q109 -1 222 -22t225 -75l-62 -320q-88 48 -174 72t-158 24q-88 0 -156.5 -28.5t-116.5 -82.5q-37 -41 -61 -96h216v-175h-253q-1 -8 -1 -17v-17q0 -16 0.5 -31.5t1.5 -29.5h252z" />
    <glyph glyph-name="trademark" unicode="&#x2122;" horiz-adv-x="2148" 
d="M362 589v620h-200v206h700v-206h-200v-620h-300zM962 1415h285l222 -372l235 372h258v-826h-300v386l-206 -352h-64l-230 352v-386h-200v826z" />
    <glyph glyph-name="partialdiff" unicode="&#x2202;" horiz-adv-x="1315" 
d="M222 1056q-1 33 -3 80q-2 40 -4.5 99.5t-5.5 140.5q87 32 199.5 48.5t236.5 16.5q126 0 220.5 -22t162.5 -62.5t113 -98t71.5 -128t37 -152t10.5 -170.5q0 -110 -10 -215t-38 -198t-76.5 -171.5t-125.5 -135.5t-186.5 -88.5t-257.5 -31.5q-151 0 -249.5 35.5t-156.5 93.5
t-81.5 132.5t-23.5 152.5q0 117 38.5 207t103.5 151t151.5 92.5t182.5 31.5q36 0 76.5 -3.5t82 -11.5t81.5 -20t76 -29q1 12 1 23v22q0 82 -19.5 135.5t-52 84.5t-75.5 43t-91 12q-75 0 -138.5 -8t-112.5 -18.5t-84 -21t-53 -16.5zM612 608q-53 0 -91.5 -16.5t-63 -43
t-36.5 -60t-12 -68.5q0 -32 10.5 -61.5t30.5 -52t50.5 -36.5t70.5 -14q63 0 109.5 10t78.5 46t50.5 106t25.5 190h-223z" />
    <glyph glyph-name="Delta" unicode="&#x2206;" horiz-adv-x="1375" 
d="M1375 0h-1375l360 1414h626zM651 1200l-166 -901h369l-172 901h-31z" />
    <glyph glyph-name="product" unicode="&#x220f;" horiz-adv-x="1404" 
d="M135 1414h1129v-1414h-432v1120h-249v-1120h-448v1414z" />
    <glyph glyph-name="summation" unicode="&#x2211;" horiz-adv-x="1070" 
d="M486 728l-447 426v260h992v-256h-544l482 -391v-84l-482 -395h544v-288h-992v284z" />
    <glyph glyph-name="minus" unicode="&#x2212;" horiz-adv-x="1194" 
d="M997 847v-318h-800v318h800z" />
    <glyph glyph-name="radical" unicode="&#x221a;" horiz-adv-x="1378" 
d="M962 0h-547l-345 734h367l209 -463l251 1143h485z" />
    <glyph glyph-name="infinity" unicode="&#x221e;" horiz-adv-x="1673" 
d="M779 857q42 68 84.5 116.5t87.5 79t93.5 45t102.5 14.5q73 0 137 -27t111.5 -77t74.5 -122.5t27 -163.5t-26.5 -163.5t-73.5 -123t-111 -77.5t-139 -27q-54 0 -102 14t-93 45t-88 79t-85 117q-35 -47 -75.5 -83t-83 -60.5t-86 -37t-83.5 -12.5q-57 0 -107.5 23
t-87.5 65.5t-58.5 103.5t-21.5 137t21.5 136.5t59 103t87.5 65t107 22.5q40 0 83.5 -13t86.5 -37.5t83.5 -60t74.5 -81.5zM898 724q85 -131 118 -158q52 -45 115 -45q39 0 68.5 16t49.5 44t30 65.5t10 79.5q0 47 -12.5 84t-33.5 62.5t-49 38.5t-60 13q-26 0 -50 -6.5
t-51.5 -27.5t-60 -60.5t-74.5 -105.5zM664 726q-101 141 -190 141q-23 0 -43.5 -9.5t-36 -27.5t-24.5 -44t-9 -59q0 -69 32.5 -106.5t80.5 -37.5q49 0 92.5 37t97.5 106z" />
    <glyph glyph-name="integral" unicode="&#x222b;" horiz-adv-x="1114" 
d="M331 1301q0 127 36.5 212.5t95.5 138t135 75t155 22.5h7q88 0 167 -17.5t142 -43.5q0 -2 -1.5 -23t-4 -52t-5 -66.5t-5 -66t-4 -51.5t-1.5 -23q-51 15 -92 23.5t-73 8.5q-54 0 -84.5 -20.5t-45.5 -54.5t-18.5 -78t-3.5 -90v-1163q0 -133 -36.5 -223t-96.5 -145
t-137 -78.5t-158 -23.5q-70 0 -137.5 14t-118.5 37q0 2 1.5 23t4 51.5t5 66t5 66.5t4 52t1.5 23q63 -22 105 -22q47 0 77.5 15.5t48.5 41t25 58.5t7 69v1244z" />
    <glyph glyph-name="approxequal" unicode="&#x2248;" horiz-adv-x="1673" 
d="M1027 836q-39 0 -76.5 14t-75 35.5t-74 46t-72.5 46t-71.5 35.5t-70.5 14q-57 0 -100 -32.5t-60 -101.5l-230 83q36 99 85.5 171t108 119.5t124.5 70.5t136 23q38 0 76 -14t75.5 -35.5t74 -46t72.5 -46t71 -35.5t70 -14q57 0 97.5 24.5t57.5 78.5l231 -83
q-35 -91 -83.5 -157.5t-107 -110t-124 -64.5t-134.5 -21zM1027 257q-39 0 -76.5 14t-75 35.5t-74 46t-72.5 46t-71.5 35.5t-70.5 14q-57 0 -100 -32.5t-60 -101.5l-230 83q36 99 85.5 171t108 119.5t124.5 70.5t136 23q38 0 76 -14t75.5 -35.5t74 -46t72.5 -46t71 -35.5
t70 -14q57 0 97.5 24.5t57.5 78.5l231 -83q-35 -91 -83.5 -157.5t-107 -110t-124 -64.5t-134.5 -21z" />
    <glyph glyph-name="notequal" unicode="&#x2260;" horiz-adv-x="1235" 
d="M1038 915v-243h-258l-54 -153h312v-256h-402l-92 -263h-239l90 263h-198v256h286l53 153h-339v243h426l66 192h248l-67 -192h168z" />
    <glyph glyph-name="lessequal" unicode="&#x2264;" horiz-adv-x="1098" 
d="M901 258v-263h-704v263h704zM197 1024l704 256v-320l-512 -128l512 -128v-320l-704 256v384z" />
    <glyph glyph-name="greaterequal" unicode="&#x2265;" horiz-adv-x="1088" 
d="M891 258v-258h-694v258h694zM891 640l-694 -256v320l512 128l-512 128v320l694 -256v-384z" />
    <glyph glyph-name="lozenge" unicode="&#x25ca;" horiz-adv-x="1047" 
d="M446 702l120 -498l108 498l-108 498zM6 702l246 702h547l242 -702l-242 -702h-547z" />
    <glyph glyph-name="ff" unicode="&#xfb00;" horiz-adv-x="1795" 
d="M641 0h-432v827h-172v252h170q0 123 33 214.5t94 152.5t147.5 91.5t194.5 30.5q88 0 163 -19t138 -45l-32 -257q-58 14 -96.5 23.5t-74.5 9.5q-46 0 -72.5 -17t-40 -45t-17 -64.5t-3.5 -74.5h415q0 123 33 214.5t94 152.5t147.5 91.5t194.5 30.5q88 0 163 -19t138 -45
l-32 -257q-58 14 -96.5 23.5t-74.5 9.5q-46 0 -72.5 -17t-40 -45t-17 -64.5t-3.5 -74.5h302q-14 -66 -22 -127t-8 -125h-272v-827h-432v827h-417v-827z" />
    <glyph glyph-name="fi" unicode="&#xfb01;" horiz-adv-x="1720" 
d="M641 0h-432v827h-172v252h170q0 123 33 214.5t94 152.5t147.5 91.5t194.5 30.5q88 0 163 -19t138 -45l-32 -257q-58 14 -96.5 23.5t-74.5 9.5q-46 0 -72.5 -17t-40 -45t-17 -64.5t-3.5 -74.5h912v-1079h-432v827h-480v-827zM1338 1301q-57 0 -107 12t-86.5 33t-58 51
t-21.5 66q0 40 21 70.5t58 50.5t87 30t108 10t108.5 -10t87.5 -30t58 -50.5t21 -70.5q0 -36 -21.5 -66t-58.5 -51t-87.5 -33t-108.5 -12z" />
    <glyph glyph-name="fl" unicode="&#xfb02;" horiz-adv-x="1703" 
d="M1115 1536h432v-1536h-432v827h-474v-827h-432v827h-172v252h170q0 123 33 214.5t94 152.5t147.5 91.5t194.5 30.5q88 0 163 -19t138 -45l-32 -257q-58 14 -96.5 23.5t-74.5 9.5q-46 0 -72.5 -17t-40 -45t-17 -64.5t-3.5 -74.5h474v457z" />
    <glyph glyph-name="ffi" unicode="&#xfb03;" horiz-adv-x="2472" 
d="M641 0h-432v827h-172v252h170q0 123 33 214.5t94 152.5t147.5 91.5t194.5 30.5q88 0 163 -19t138 -45l-32 -257q-58 14 -96.5 23.5t-74.5 9.5q-46 0 -72.5 -17t-40 -45t-17 -64.5t-3.5 -74.5h386q0 123 33 214.5t94 152.5t147.5 91.5t194.5 30.5q88 0 163 -19t138 -45
l-32 -257q-58 14 -96.5 23.5t-74.5 9.5q-46 0 -72.5 -17t-40 -45t-17 -64.5t-3.5 -74.5h879v-1079h-432v827h-447v-827h-432v827h-388v-827zM2125 1301q-57 0 -107 12t-86.5 33t-58 51t-21.5 66q0 40 21 70.5t58 50.5t87 30t108 10t108.5 -10t87.5 -30t58 -50.5t21 -70.5
q0 -36 -21.5 -66t-58.5 -51t-87.5 -33t-108.5 -12z" />
    <glyph glyph-name="ffl" unicode="&#xfb04;" horiz-adv-x="2483" 
d="M1920 1536h432v-1536h-432v827h-459v-827h-432v827h-388v-827h-432v827h-172v252h170q0 123 33 214.5t94 152.5t147.5 91.5t194.5 30.5q88 0 163 -19t138 -45l-32 -257q-58 14 -96.5 23.5t-74.5 9.5q-46 0 -72.5 -17t-40 -45t-17 -64.5t-3.5 -74.5h386q0 123 33 214.5
t94 152.5t147.5 91.5t194.5 30.5q88 0 163 -19t138 -45l-32 -257q-58 14 -96.5 23.5t-74.5 9.5q-46 0 -72.5 -17t-40 -45t-17 -64.5t-3.5 -74.5h459v457z" />
    <glyph glyph-name="st" unicode="&#xfb06;" horiz-adv-x="0" 
 />
    <glyph glyph-name="commaaccent" horiz-adv-x="713" 
d="M384 -552q-66 -36 -115 -36q-39 0 -72.5 17t-58.5 45.5t-39 66.5t-14 79q0 42 16.5 85t50 77.5t84 56t118.5 21.5q137 0 206 -81.5t69 -236.5q0 -126 -37 -207.5t-96.5 -128t-133.5 -64.5t-149 -18h-96v192q93 0 146.5 8t80.5 24.5t33.5 41.5t6.5 58z" />
    </font>
</defs>
</svg>
