<?xml version="1.0" encoding="UTF-8"?>
<svg viewBox="0 0 701.14374 666.26874" xmlns="http://www.w3.org/2000/svg">
 <g transform="translate(-24.216 -361.14)" stroke="#000">
  <path d="m724.46 376.2c-0.39139 0.03765-0.78632 0.0625-1.1875 0.0625-6.7558 0-12.25-5.463-12.25-12.219 0-0.68258 0.07969-1.3476 0.1875-2h-12.406c0.10781 0.65245 0.1875 1.3174 0.1875 2-1e-5 6.7558-5.4942 12.219-12.25 12.219s-12.219-5.463-12.219-12.219c0-0.68258 0.08027-1.3476 0.1875-2h-12.406c0.10781 0.65245 0.1875 1.3174 0.1875 2-1e-5 6.7558-5.4942 12.219-12.25 12.219s-12.25-5.463-12.25-12.219c0-0.68258 0.07969-1.3476 0.1875-2h-12.406c0.10781 0.65245 0.1875 1.3174 0.1875 2-2e-5 6.7558-5.4942 12.219-12.25 12.219s-12.219-5.463-12.219-12.219c0-0.68258 0.08027-1.3476 0.1875-2h-12.438c0.10723 0.65245 0.1875 1.3174 0.1875 2 1e-5 6.7558-5.463 12.219-12.219 12.219s-12.25-5.463-12.25-12.219c0-0.68258 0.07969-1.3476 0.1875-2h-12.406c0.10781 0.65245 0.1875 1.3174 0.1875 2 1e-5 6.7558-5.4942 12.219-12.25 12.219s-12.25-5.463-12.25-12.219c0-0.68258 0.07969-1.3476 0.1875-2h-12.406c0.10723 0.65245 0.1875 1.3174 0.1875 2 2e-5 6.7558-5.463 12.219-12.219 12.219s-12.25-5.463-12.25-12.219c0-0.68258 0.07969-1.3476 0.1875-2h-12.406c0.10781 0.65245 0.1875 1.3174 0.1875 2 1e-5 6.7558-5.4942 12.219-12.25 12.219s-12.25-5.463-12.25-12.219c0-0.68258 0.07969-1.3476 0.1875-2h-12.406c0.10781 0.65245 0.1875 1.3174 0.1875 2 1e-5 6.7558-5.4942 12.219-12.25 12.219s-12.219-5.463-12.219-12.219c0-0.68258 0.08027-1.3476 0.1875-2h-12.438c0.10723 0.65245 0.1875 1.3174 0.1875 2 1e-5 6.7558-5.463 12.219-12.219 12.219s-12.25-5.463-12.25-12.219c0-0.68258 0.07969-1.3476 0.1875-2h-12.406c0.10781 0.65245 0.1875 1.3174 0.1875 2-1e-5 6.7558-5.4942 12.219-12.25 12.219s-12.219-5.463-12.219-12.219c0-0.68258 0.08027-1.3476 0.1875-2h-12.438c0.10723 0.65245 0.1875 1.3174 0.1875 2 1e-5 6.7558-5.463 12.219-12.219 12.219s-12.25-5.463-12.25-12.219c0-0.68258 0.07969-1.3476 0.1875-2h-12.406c0.10781 0.65245 0.1875 1.3174 0.1875 2 1e-5 6.7558-5.4942 12.219-12.25 12.219s-12.25-5.463-12.25-12.219c0-0.68258 0.07969-1.3476 0.1875-2h-12.406c0.10781 0.65245 0.1875 1.3174 0.1875 2-1e-5 6.7558-5.4942 12.219-12.25 12.219s-12.219-5.463-12.219-12.219c0-0.68258 0.08027-1.3476 0.1875-2h-12.406c0.10781 0.65245 0.1875 1.3174 0.1875 2-2e-5 6.7558-5.4942 12.219-12.25 12.219s-12.25-5.463-12.25-12.219c0-0.68258 0.07969-1.3476 0.1875-2h-12.406c0.10781 0.65245 0.1875 1.3174 0.1875 2 2e-5 6.7558-5.4942 12.219-12.25 12.219s-12.219-5.463-12.219-12.219c0-0.68258 0.08027-1.3476 0.1875-2h-12.438c0.10723 0.65245 0.1875 1.3174 0.1875 2 1e-5 6.7558-5.463 12.219-12.219 12.219s-12.25-5.463-12.25-12.219c0-0.68258 0.07969-1.3476 0.1875-2h-12.406c0.10781 0.65245 0.1875 1.3174 0.1875 2-1e-5 6.7558-5.4942 12.219-12.25 12.219s-12.25-5.463-12.25-12.219c0-0.68258 0.07969-1.3476 0.1875-2h-12.406c0.10723 0.65245 0.1875 1.3174 0.1875 2-1e-5 6.7558-5.463 12.219-12.219 12.219s-12.25-5.463-12.25-12.219c0-0.68258 0.07969-1.3476 0.1875-2h-14.375c0.10781 0.65245 0.1875 1.3174 0.1875 2 4e-5 6.3967-4.9302 11.616-11.188 12.156-0.38049 0.03868-0.76632 0.05954-1.1562 0.0625s-0.77577-0.02382-1.1562-0.0625c-0.37032-0.03199-0.73368-0.09221-1.0938-0.15625v12.5c0.75807-0.14648 1.5432-0.21875 2.3438-0.21875 6.7558 0 12.25 5.463 12.25 12.219s-5.4942 12.25-12.25 12.25c-0.80054 0-1.5857-0.0715-2.3438-0.21875v12.469c0.75807-0.14725 1.5432-0.21875 2.3438-0.21875 6.7558 0 12.25 5.4942 12.25 12.25s-5.4942 12.219-12.25 12.219c-0.80054 0-1.5857-0.07227-2.3438-0.21875v12.5c0.75807-0.14648 1.5432-0.21875 2.3438-0.21875 6.7558 1e-5 12.25 5.463 12.25 12.219s-5.4942 12.25-12.25 12.25c-0.80054 0-1.5857-0.0715-2.3438-0.21875v12.469c0.75807-0.14725 1.5432-0.21875 2.3438-0.21875 6.7558 1e-5 12.25 5.4942 12.25 12.25s-5.4942 12.25-12.25 12.25c-0.80054 0-1.5857-0.0715-2.3438-0.21875v12.469c0.75807-0.14648 1.5432-0.21875 2.3438-0.21875 6.7558 1e-5 12.25 5.463 12.25 12.219s-5.4942 12.25-12.25 12.25c-0.80054 0-1.5857-0.0715-2.3438-0.21875v12.469c0.75807-0.14725 1.5432-0.21875 2.3438-0.21875 6.7558 1e-5 12.25 5.4942 12.25 12.25s-5.4942 12.25-12.25 12.25c-0.80054 0-1.5857-0.0715-2.3438-0.21875v12.469c0.75807-0.14725 1.5432-0.21875 2.3438-0.21875 6.7558 2e-5 12.25 5.4942 12.25 12.25s-5.4942 12.219-12.25 12.219c-0.80054 0-1.5857-0.07227-2.3438-0.21875v12.5c0.75807-0.14648 1.5432-0.21875 2.3438-0.21875 6.7558 2e-5 12.25 5.463 12.25 12.219s-5.4942 12.25-12.25 12.25c-0.80054 0-1.5857-0.0715-2.3438-0.21875v12.469c0.75807-0.14725 1.5432-0.21875 2.3438-0.21875 6.7558 1e-5 12.25 5.4942 12.25 12.25s-5.4942 12.219-12.25 12.219c-0.80054 0-1.5857-0.07227-2.3438-0.21875v12.5c0.75807-0.14648 1.5432-0.21875 2.3438-0.21875 6.7558 2e-5 12.25 5.463 12.25 12.219s-5.4942 12.25-12.25 12.25c-0.80054 0-1.5857-0.0715-2.3438-0.21875v12.469c0.75807-0.14725 1.5432-0.21875 2.3438-0.21875 6.7558 2e-5 12.25 5.4942 12.25 12.25s-5.4942 12.25-12.25 12.25c-0.80054 0-1.5857-0.0715-2.3438-0.21875v12.469c0.75807-0.14725 1.5432-0.21875 2.3438-0.21875 6.7558 1e-5 12.25 5.4942 12.25 12.25s-5.4942 12.219-12.25 12.219c-0.80054 0-1.5857-0.07227-2.3438-0.21875v12.5c0.75807-0.14648 1.5432-0.21875 2.3438-0.21875 6.7558-1e-5 12.25 5.463 12.25 12.219s-5.4942 12.25-12.25 12.25c-0.80054 0-1.5857-0.0715-2.3438-0.21875v12.469c0.75807-0.14725 1.5432-0.21875 2.3438-0.21875 6.7558-5e-5 12.25 5.4942 12.25 12.25s-5.4942 12.219-12.25 12.219c-0.80054 0-1.5857-0.07227-2.3438-0.21875v12.5c0.75807-0.14648 1.5432-0.21875 2.3438-0.21875 6.7558-4e-5 12.25 5.463 12.25 12.219s-5.4942 12.25-12.25 12.25c-0.80054 0-1.5857-0.0715-2.3438-0.21875v12.469c0.75807-0.14725 1.5432-0.21875 2.3438-0.21875 6.7558-2e-5 12.25 5.4942 12.25 12.25s-5.4942 12.25-12.25 12.25c-0.80054-1e-5 -1.5857-0.07149-2.3438-0.21875v12.469c0.75807-0.14648 1.5432-0.21875 2.3438-0.21875 6.7558-2e-5 12.25 5.463 12.25 12.219s-5.4942 12.25-12.25 12.25c-0.80054-1e-5 -1.5857-0.07149-2.3438-0.21875v14.656c0.69943-0.1247 1.4208-0.1875 2.1562-0.1875 6.7558 0 12.25 5.4942 12.25 12.25 0 1.0228-0.13783 1.9873-0.375 2.9375h12.781c-0.23667-0.9493-0.375-1.9158-0.375-2.9375-1e-5 -6.7558 5.4942-12.25 12.25-12.25s12.219 5.4942 12.219 12.25c0 1.0228-0.13905 1.9873-0.375 2.9375h12.812c-0.23546-0.9493-0.375-1.9158-0.375-2.9375 2e-5 -6.7558 5.463-12.25 12.219-12.25s12.25 5.4942 12.25 12.25c0 1.0228-0.13783 1.9873-0.375 2.9375h12.781c-0.23667-0.9493-0.375-1.9158-0.375-2.9375 1e-5 -6.7558 5.4942-12.25 12.25-12.25s12.25 5.4942 12.25 12.25c0 1.0228-0.13783 1.9873-0.375 2.9375h12.781c-0.23667-0.9493-0.375-1.9158-0.375-2.9375 3e-5 -6.7558 5.4942-12.25 12.25-12.25s12.219 5.4942 12.219 12.25c0 1.0228-0.13905 1.9873-0.375 2.9375h12.781c-0.23667-0.9493-0.375-1.9158-0.375-2.9375 0-6.7558 5.4942-12.25 12.25-12.25s12.25 5.4942 12.25 12.25c1e-5 1.0228-0.13783 1.9873-0.375 2.9375h12.781c-0.23667-0.9493-0.375-1.9158-0.375-2.9375-1e-5 -6.7558 5.4942-12.25 12.25-12.25s12.219 5.4942 12.219 12.25c0 1.0228-0.13905 1.9873-0.375 2.9375h12.812c-0.23546-0.9493-0.375-1.9158-0.375-2.9375 3e-5 -6.7558 5.463-12.25 12.219-12.25s12.25 5.4942 12.25 12.25c0 1.0228-0.13783 1.9873-0.375 2.9375h12.781c-0.23667-0.9493-0.375-1.9158-0.375-2.9375 3e-5 -6.7558 5.4942-12.25 12.25-12.25s12.25 5.4942 12.25 12.25c0 1.0228-0.13783 1.9873-0.375 2.9375h12.781c-0.23546-0.9493-0.375-1.9158-0.375-2.9375 0-6.7558 5.463-12.25 12.219-12.25s12.25 5.4942 12.25 12.25c1e-5 1.0228-0.13783 1.9873-0.375 2.9375h12.781c-0.23667-0.9493-0.375-1.9158-0.375-2.9375-1e-5 -6.7558 5.4942-12.25 12.25-12.25s12.25 5.4942 12.25 12.25c0 1.0228-0.13783 1.9873-0.375 2.9375h12.781c-0.23667-0.9493-0.375-1.9158-0.375-2.9375 0-6.7558 5.4942-12.25 12.25-12.25s12.219 5.4942 12.219 12.25c0 1.0228-0.13905 1.9873-0.375 2.9375h12.812c-0.23546-0.9493-0.375-1.9158-0.375-2.9375 0-6.7558 5.463-12.25 12.219-12.25s12.25 5.4942 12.25 12.25c0 1.0228-0.13783 1.9873-0.375 2.9375h12.781c-0.23667-0.9493-0.375-1.9158-0.375-2.9375 2e-5 -6.7558 5.4942-12.25 12.25-12.25s12.219 5.4942 12.219 12.25c0 1.0228-0.13905 1.9873-0.375 2.9375h12.812c-0.23546-0.9493-0.375-1.9158-0.375-2.9375 0-6.7558 5.463-12.25 12.219-12.25s12.25 5.4942 12.25 12.25c0 1.0228-0.13783 1.9873-0.375 2.9375h12.781c-0.23667-0.9493-0.375-1.9158-0.375-2.9375 2e-5 -6.7558 5.4942-12.25 12.25-12.25s12.25 5.4942 12.25 12.25c0 1.0228-0.13783 1.9873-0.375 2.9375h12.781c-0.23667-0.9493-0.375-1.9158-0.375-2.9375 0-6.7558 5.4942-12.25 12.25-12.25s12.219 5.4942 12.219 12.25c0 1.0228-0.13905 1.9873-0.375 2.9375h12.781c-0.23667-0.9493-0.375-1.9158-0.375-2.9375 0-6.7558 5.4942-12.25 12.25-12.25s12.25 5.4942 12.25 12.25c0 1.0228-0.13783 1.9873-0.375 2.9375h12.781c-0.23667-0.9493-0.375-1.9158-0.375-2.9375-2e-5 -6.7558 5.4942-12.25 12.25-12.25s12.219 5.4942 12.219 12.25c0 1.0228-0.13905 1.9873-0.375 2.9375h14.781c-0.23553-0.9487-0.375-1.9158-0.375-2.9375 0-6.3967 4.8989-11.647 11.156-12.188 0.34972-0.0355 0.70474-0.0571 1.0625-0.0625h0.1875c0.40118 0 0.79611 0.0247 1.1875 0.0625v-12.187c-0.45276 0.05093-0.90883 0.09375-1.375 0.09375-6.7558-2e-5 -12.219-5.4942-12.219-12.25s5.463-12.219 12.219-12.219c0.46617 0 0.92224 0.0431 1.375 0.09375v-12.25c-0.45276 0.05065-0.90883 0.09375-1.375 0.09375-6.7558 0-12.219-5.463-12.219-12.219s5.463-12.25 12.219-12.25c0.46617 0 0.92224 0.04282 1.375 0.09375v-12.219c-0.45276 0.05093-0.90883 0.09375-1.375 0.09375-6.7558-2e-5 -12.219-5.4942-12.219-12.25s5.463-12.219 12.219-12.219c0.46617 0 0.92224 0.0431 1.375 0.09375v-12.25c-0.45276 0.05065-0.90883 0.09375-1.375 0.09375-6.7558-5e-5 -12.219-5.463-12.219-12.219s5.463-12.25 12.219-12.25c0.46617 0 0.92224 0.04282 1.375 0.09375v-12.219c-0.45276 0.05093-0.90883 0.09375-1.375 0.09375-6.7558-4e-5 -12.219-5.4942-12.219-12.25s5.463-12.25 12.219-12.25c0.46617 0 0.92224 0.04282 1.375 0.09375v-12.219c-0.45276 0.05065-0.90883 0.09375-1.375 0.09375-6.7558 1e-5 -12.219-5.463-12.219-12.219s5.463-12.25 12.219-12.25c0.46617 0 0.92224 0.04282 1.375 0.09375v-12.219c-0.45276 0.05093-0.90883 0.09375-1.375 0.09375-6.7558 1e-5 -12.219-5.4942-12.219-12.25s5.463-12.25 12.219-12.25c0.46617 0 0.92224 0.04282 1.375 0.09375v-12.219c-0.45276 0.05093-0.90883 0.09375-1.375 0.09375-6.7558 1e-5 -12.219-5.4942-12.219-12.25s5.463-12.219 12.219-12.219c0.46617 0 0.92224 0.0431 1.375 0.09375v-12.25c-0.45276 0.05065-0.90883 0.09375-1.375 0.09375-6.7558 2e-5 -12.219-5.463-12.219-12.219s5.463-12.25 12.219-12.25c0.46617 0 0.92224 0.04282 1.375 0.09375v-12.219c-0.45276 0.05093-0.90883 0.09375-1.375 0.09375-6.7558 1e-5 -12.219-5.4942-12.219-12.25s5.463-12.219 12.219-12.219c0.46617 0 0.92224 0.0431 1.375 0.09375v-12.25c-0.45276 0.05065-0.90883 0.09375-1.375 0.09375-6.7558 1e-5 -12.219-5.463-12.219-12.219s5.463-12.25 12.219-12.25c0.46617 0 0.92224 0.04282 1.375 0.09375v-12.219c-0.45276 0.05093-0.90883 0.09375-1.375 0.09375-6.7558 2e-5 -12.219-5.4942-12.219-12.25s5.463-12.25 12.219-12.25c0.46617 0 0.92224 0.04282 1.375 0.09375v-12.219c-0.45276 0.05093-0.90883 0.09375-1.375 0.09375-6.7558 1e-5 -12.219-5.4942-12.219-12.25s5.463-12.219 12.219-12.219c0.46617 0 0.92224 0.0431 1.375 0.09375v-12.25c-0.45276 0.05065-0.90883 0.09375-1.375 0.09375-6.7558 0-12.219-5.463-12.219-12.219s5.463-12.25 12.219-12.25c0.46617 0 0.92224 0.04282 1.375 0.09375v-12.219c-0.45276 0.05093-0.90883 0.09375-1.375 0.09375-6.7558 1e-5 -12.219-5.4942-12.219-12.25s5.463-12.219 12.219-12.219c0.46617 0 0.92224 0.0431 1.375 0.09375v-12.25c-0.45276 0.05065-0.90883 0.09375-1.375 0.09375-6.7558 1e-5 -12.219-5.463-12.219-12.219s5.463-12.25 12.219-12.25c0.46617 0 0.92224 0.04282 1.375 0.09375v-12.219c-0.45276 0.05093-0.90883 0.09375-1.375 0.09375-6.7558 0-12.219-5.4942-12.219-12.25s5.463-12.25 12.219-12.25c0.46617 0 0.92224 0.04282 1.375 0.09375v-14.406z" fill="none" stroke-width="1.8"/>
  <path d="m55.075 392.55h641.14v602.57h-641.14z" fill="#fff" stroke-width="2.3749"/>
 </g>
</svg>
